G04 #@! TF.FileFunction,Copper,L2,Bot,Signal*
%FSLAX46Y46*%
G04 Gerber Fmt 4.6, Leading zero omitted, Abs format (unit mm)*
G04 Created by KiCad (PCBNEW 4.0.2-stable) date 15/03/2016 10:56:13 PM*
%MOMM*%
G01*
G04 APERTURE LIST*
%ADD10C,0.100000*%
%ADD11C,0.300000*%
%ADD12R,2.032000X2.032000*%
%ADD13C,2.000000*%
%ADD14R,1.300000X1.300000*%
%ADD15C,1.300000*%
%ADD16O,2.300000X1.600000*%
%ADD17C,6.400000*%
%ADD18R,2.540000X2.540000*%
%ADD19C,2.540000*%
%ADD20R,1.727200X1.727200*%
%ADD21O,1.727200X1.727200*%
%ADD22C,4.064000*%
%ADD23C,1.998980*%
%ADD24O,0.899160X1.501140*%
%ADD25C,0.600000*%
%ADD26C,0.508000*%
%ADD27C,0.254000*%
G04 APERTURE END LIST*
D10*
D11*
X167326428Y-158650714D02*
X167397857Y-158722143D01*
X167612143Y-158793571D01*
X167755000Y-158793571D01*
X167969285Y-158722143D01*
X168112143Y-158579286D01*
X168183571Y-158436429D01*
X168255000Y-158150714D01*
X168255000Y-157936429D01*
X168183571Y-157650714D01*
X168112143Y-157507857D01*
X167969285Y-157365000D01*
X167755000Y-157293571D01*
X167612143Y-157293571D01*
X167397857Y-157365000D01*
X167326428Y-157436429D01*
X166683571Y-157293571D02*
X166683571Y-158507857D01*
X166612143Y-158650714D01*
X166540714Y-158722143D01*
X166397857Y-158793571D01*
X166112143Y-158793571D01*
X165969285Y-158722143D01*
X165897857Y-158650714D01*
X165826428Y-158507857D01*
X165826428Y-157293571D01*
D12*
X228600000Y-101600000D03*
D13*
X231140000Y-101600000D03*
X233680000Y-101600000D03*
X236220000Y-101600000D03*
X238760000Y-101600000D03*
X241300000Y-101600000D03*
X236220000Y-86360000D03*
X238760000Y-86360000D03*
X228600000Y-86360000D03*
X231140000Y-86360000D03*
X241300000Y-86360000D03*
X233680000Y-86360000D03*
D12*
X228600000Y-152400000D03*
D13*
X231140000Y-152400000D03*
X233680000Y-152400000D03*
X236220000Y-152400000D03*
X238760000Y-152400000D03*
X241300000Y-152400000D03*
X236220000Y-137160000D03*
X238760000Y-137160000D03*
X228600000Y-137160000D03*
X231140000Y-137160000D03*
X241300000Y-137160000D03*
X233680000Y-137160000D03*
D12*
X228600000Y-76200000D03*
D13*
X231140000Y-76200000D03*
X233680000Y-76200000D03*
X236220000Y-76200000D03*
X238760000Y-76200000D03*
X241300000Y-76200000D03*
X236220000Y-60960000D03*
X238760000Y-60960000D03*
X228600000Y-60960000D03*
X231140000Y-60960000D03*
X241300000Y-60960000D03*
X233680000Y-60960000D03*
D12*
X228600000Y-127000000D03*
D13*
X231140000Y-127000000D03*
X233680000Y-127000000D03*
X236220000Y-127000000D03*
X238760000Y-127000000D03*
X241300000Y-127000000D03*
X236220000Y-111760000D03*
X238760000Y-111760000D03*
X228600000Y-111760000D03*
X231140000Y-111760000D03*
X241300000Y-111760000D03*
X233680000Y-111760000D03*
D14*
X164465000Y-59690000D03*
D15*
X164465000Y-63490000D03*
D14*
X169545000Y-104775000D03*
D15*
X169545000Y-109775000D03*
D16*
X173355000Y-88265000D03*
X173355000Y-90805000D03*
X173355000Y-93345000D03*
X173355000Y-95885000D03*
X173355000Y-98425000D03*
X173355000Y-100965000D03*
X173355000Y-103505000D03*
X173355000Y-106045000D03*
X173355000Y-108585000D03*
X173355000Y-111125000D03*
X173355000Y-113665000D03*
X173355000Y-116205000D03*
X173355000Y-118745000D03*
X173355000Y-121285000D03*
X180975000Y-121285000D03*
X180975000Y-118745000D03*
X180975000Y-116205000D03*
X180975000Y-113665000D03*
X180975000Y-111125000D03*
X180975000Y-108585000D03*
X180975000Y-106045000D03*
X180975000Y-103505000D03*
X180975000Y-100965000D03*
X180975000Y-98425000D03*
X180975000Y-95885000D03*
X180975000Y-93345000D03*
X180975000Y-90805000D03*
X180975000Y-88265000D03*
D17*
X264795000Y-157480000D03*
D18*
X187960000Y-57785000D03*
D19*
X193040000Y-57785000D03*
D17*
X153670000Y-157480000D03*
D20*
X175260000Y-59690000D03*
D21*
X177800000Y-59690000D03*
X175260000Y-62230000D03*
X177800000Y-62230000D03*
X175260000Y-64770000D03*
X177800000Y-64770000D03*
X175260000Y-67310000D03*
X177800000Y-67310000D03*
X175260000Y-69850000D03*
X177800000Y-69850000D03*
X175260000Y-72390000D03*
X177800000Y-72390000D03*
D17*
X153670000Y-57785000D03*
X264795000Y-57785000D03*
D22*
X264160000Y-96520000D03*
X264160000Y-147320000D03*
X264160000Y-72390000D03*
X264160000Y-121920000D03*
D23*
X196850000Y-102235000D03*
X186690000Y-102235000D03*
X196850000Y-98425000D03*
X186690000Y-98425000D03*
X196850000Y-94615000D03*
X186690000Y-94615000D03*
X196850000Y-90805000D03*
X186690000Y-90805000D03*
X158750000Y-86360000D03*
X168910000Y-86360000D03*
X158750000Y-90170000D03*
X168910000Y-90170000D03*
X158750000Y-93980000D03*
X168910000Y-93980000D03*
X158750000Y-97790000D03*
X168910000Y-97790000D03*
X158750000Y-101600000D03*
X168910000Y-101600000D03*
X159385000Y-113030000D03*
X169545000Y-113030000D03*
X159385000Y-116840000D03*
X169545000Y-116840000D03*
X159385000Y-120650000D03*
X169545000Y-120650000D03*
D24*
X204470000Y-87630000D03*
X203200000Y-87630000D03*
X205740000Y-87630000D03*
X204470000Y-138430000D03*
X203200000Y-138430000D03*
X205740000Y-138430000D03*
X204470000Y-93345000D03*
X203200000Y-93345000D03*
X205740000Y-93345000D03*
X204470000Y-144780000D03*
X203200000Y-144780000D03*
X205740000Y-144780000D03*
X204470000Y-99695000D03*
X203200000Y-99695000D03*
X205740000Y-99695000D03*
X204470000Y-151130000D03*
X203200000Y-151130000D03*
X205740000Y-151130000D03*
X264160000Y-90170000D03*
X265430000Y-90170000D03*
X262890000Y-90170000D03*
X264160000Y-140970000D03*
X265430000Y-140970000D03*
X262890000Y-140970000D03*
X204470000Y-62230000D03*
X203200000Y-62230000D03*
X205740000Y-62230000D03*
X204470000Y-113030000D03*
X203200000Y-113030000D03*
X205740000Y-113030000D03*
X204470000Y-68580000D03*
X203200000Y-68580000D03*
X205740000Y-68580000D03*
X204470000Y-119380000D03*
X203200000Y-119380000D03*
X205740000Y-119380000D03*
X204470000Y-74930000D03*
X203200000Y-74930000D03*
X205740000Y-74930000D03*
X204470000Y-125730000D03*
X203200000Y-125730000D03*
X205740000Y-125730000D03*
X264160000Y-64770000D03*
X265430000Y-64770000D03*
X262890000Y-64770000D03*
X264160000Y-115570000D03*
X265430000Y-115570000D03*
X262890000Y-115570000D03*
D25*
X250825000Y-119380000D03*
X250825000Y-93980000D03*
X250825000Y-68580000D03*
X249555000Y-120650000D03*
X249555000Y-95250000D03*
X249555000Y-69850000D03*
X248285000Y-121920000D03*
X248285000Y-96520000D03*
X248285000Y-71120000D03*
X247015000Y-72390000D03*
X247015000Y-97790000D03*
X247015000Y-123190000D03*
X245745000Y-73660000D03*
X245745000Y-99060000D03*
X245745000Y-124460000D03*
X253365000Y-89535000D03*
X253365000Y-114935000D03*
X253365000Y-140335000D03*
X252095000Y-88265000D03*
X252095000Y-113665000D03*
X252095000Y-139065000D03*
D26*
X228600000Y-153670000D02*
X235077000Y-160147000D01*
X235077000Y-160147000D02*
X246888000Y-160147000D01*
X246888000Y-160147000D02*
X250825000Y-156210000D01*
X250825000Y-156210000D02*
X250825000Y-119380000D01*
X250825000Y-119380000D02*
X250825000Y-93980000D01*
X250825000Y-93980000D02*
X250825000Y-68580000D01*
X228600000Y-153670000D02*
X228600000Y-152400000D01*
X231140000Y-154940000D02*
X235585000Y-159385000D01*
X235585000Y-159385000D02*
X245745000Y-159385000D01*
X245745000Y-159385000D02*
X249555000Y-155575000D01*
X249555000Y-155575000D02*
X249555000Y-120650000D01*
X249555000Y-120650000D02*
X249555000Y-95250000D01*
X249555000Y-95250000D02*
X249555000Y-69850000D01*
X231140000Y-154940000D02*
X231140000Y-152400000D01*
X233680000Y-154940000D02*
X236855000Y-158115000D01*
X236855000Y-158115000D02*
X245110000Y-158115000D01*
X245110000Y-158115000D02*
X248285000Y-154940000D01*
X248285000Y-154940000D02*
X248285000Y-121920000D01*
X248285000Y-121920000D02*
X248285000Y-96520000D01*
X248285000Y-96520000D02*
X248285000Y-71120000D01*
X233680000Y-154940000D02*
X233680000Y-152400000D01*
X247015000Y-72390000D02*
X247015000Y-97790000D01*
X236220000Y-152400000D02*
X236220000Y-154940000D01*
X236220000Y-154940000D02*
X238125000Y-156845000D01*
X238125000Y-156845000D02*
X244475000Y-156845000D01*
X244475000Y-156845000D02*
X247015000Y-154305000D01*
X247015000Y-154305000D02*
X247015000Y-123190000D01*
X247015000Y-123190000D02*
X247015000Y-97790000D01*
X236220000Y-127000000D02*
X236220000Y-127000000D01*
X245745000Y-73660000D02*
X245745000Y-99060000D01*
X238760000Y-152400000D02*
X238760000Y-154305000D01*
X245745000Y-153670000D02*
X245745000Y-124460000D01*
X245745000Y-124460000D02*
X245745000Y-99060000D01*
X243840000Y-155575000D02*
X245745000Y-153670000D01*
X240030000Y-155575000D02*
X243840000Y-155575000D01*
X238760000Y-154305000D02*
X240030000Y-155575000D01*
X205740000Y-93345000D02*
X229235000Y-93345000D01*
X229235000Y-93345000D02*
X236220000Y-86360000D01*
X205740000Y-99695000D02*
X217170000Y-99695000D01*
X230505000Y-94615000D02*
X238760000Y-86360000D01*
X222250000Y-94615000D02*
X230505000Y-94615000D01*
X217170000Y-99695000D02*
X222250000Y-94615000D01*
X205740000Y-87630000D02*
X217170000Y-87630000D01*
X218440000Y-86360000D02*
X228600000Y-86360000D01*
X217170000Y-87630000D02*
X218440000Y-86360000D01*
X231140000Y-59055000D02*
X233045000Y-57150000D01*
X233045000Y-57150000D02*
X252095000Y-57150000D01*
X252095000Y-57150000D02*
X253365000Y-58420000D01*
X253365000Y-58420000D02*
X253365000Y-89535000D01*
X253365000Y-89535000D02*
X253365000Y-114935000D01*
X253365000Y-114935000D02*
X253365000Y-140335000D01*
X231140000Y-59055000D02*
X231140000Y-60960000D01*
X241300000Y-86360000D02*
X244475000Y-86360000D01*
X241300000Y-111760000D02*
X244475000Y-111760000D01*
X241300000Y-137160000D02*
X243205000Y-137160000D01*
X243205000Y-60960000D02*
X241300000Y-60960000D01*
X244475000Y-62230000D02*
X243205000Y-60960000D01*
X244475000Y-135890000D02*
X244475000Y-111760000D01*
X244475000Y-111760000D02*
X244475000Y-86360000D01*
X244475000Y-86360000D02*
X244475000Y-62230000D01*
X243205000Y-137160000D02*
X244475000Y-135890000D01*
X233680000Y-59690000D02*
X234950000Y-58420000D01*
X234950000Y-58420000D02*
X251460000Y-58420000D01*
X251460000Y-58420000D02*
X252095000Y-59055000D01*
X252095000Y-59055000D02*
X252095000Y-88265000D01*
X252095000Y-88265000D02*
X252095000Y-113665000D01*
X252095000Y-113665000D02*
X252095000Y-139065000D01*
X233680000Y-59690000D02*
X233680000Y-60960000D01*
X205740000Y-144780000D02*
X228600000Y-144780000D01*
X228600000Y-144780000D02*
X236220000Y-137160000D01*
X205740000Y-151130000D02*
X215265000Y-151130000D01*
X229235000Y-146685000D02*
X238760000Y-137160000D01*
X219710000Y-146685000D02*
X229235000Y-146685000D01*
X215265000Y-151130000D02*
X219710000Y-146685000D01*
X205740000Y-138430000D02*
X218440000Y-138430000D01*
X219710000Y-137160000D02*
X228600000Y-137160000D01*
X218440000Y-138430000D02*
X219710000Y-137160000D01*
X205740000Y-68580000D02*
X228600000Y-68580000D01*
X228600000Y-68580000D02*
X236220000Y-60960000D01*
X205740000Y-74930000D02*
X218440000Y-74930000D01*
X229870000Y-69850000D02*
X238760000Y-60960000D01*
X223520000Y-69850000D02*
X229870000Y-69850000D01*
X218440000Y-74930000D02*
X223520000Y-69850000D01*
X205740000Y-62230000D02*
X220345000Y-62230000D01*
X221615000Y-60960000D02*
X228600000Y-60960000D01*
X220345000Y-62230000D02*
X221615000Y-60960000D01*
X205740000Y-119380000D02*
X228600000Y-119380000D01*
X228600000Y-119380000D02*
X236220000Y-111760000D01*
X205740000Y-125730000D02*
X215265000Y-125730000D01*
X229235000Y-121285000D02*
X238760000Y-111760000D01*
X219710000Y-121285000D02*
X229235000Y-121285000D01*
X215265000Y-125730000D02*
X219710000Y-121285000D01*
X205740000Y-113030000D02*
X220345000Y-113030000D01*
X221615000Y-111760000D02*
X228600000Y-111760000D01*
X220345000Y-113030000D02*
X221615000Y-111760000D01*
X173355000Y-90805000D02*
X172720000Y-90805000D01*
X172720000Y-90805000D02*
X171450000Y-89535000D01*
X171450000Y-89535000D02*
X171450000Y-86995000D01*
X171450000Y-86995000D02*
X170815000Y-86360000D01*
X170815000Y-86360000D02*
X168910000Y-86360000D01*
X168910000Y-90170000D02*
X170180000Y-90170000D01*
X171450000Y-93345000D02*
X173355000Y-93345000D01*
X170815000Y-92710000D02*
X171450000Y-93345000D01*
X170815000Y-90805000D02*
X170815000Y-92710000D01*
X170180000Y-90170000D02*
X170815000Y-90805000D01*
X168910000Y-93980000D02*
X169545000Y-93980000D01*
X169545000Y-93980000D02*
X171450000Y-95885000D01*
X171450000Y-95885000D02*
X173355000Y-95885000D01*
X168910000Y-97790000D02*
X170815000Y-97790000D01*
X171450000Y-98425000D02*
X173355000Y-98425000D01*
X170815000Y-97790000D02*
X171450000Y-98425000D01*
X168910000Y-101600000D02*
X170180000Y-101600000D01*
X170815000Y-100965000D02*
X173355000Y-100965000D01*
X170180000Y-101600000D02*
X170815000Y-100965000D01*
X169545000Y-113030000D02*
X170815000Y-113030000D01*
X171450000Y-113665000D02*
X173355000Y-113665000D01*
X170815000Y-113030000D02*
X171450000Y-113665000D01*
X169545000Y-116840000D02*
X170815000Y-116840000D01*
X171450000Y-116205000D02*
X173355000Y-116205000D01*
X170815000Y-116840000D02*
X171450000Y-116205000D01*
X169545000Y-120650000D02*
X170815000Y-120650000D01*
X172085000Y-118745000D02*
X173355000Y-118745000D01*
X171450000Y-119380000D02*
X172085000Y-118745000D01*
X171450000Y-120015000D02*
X171450000Y-119380000D01*
X170815000Y-120650000D02*
X171450000Y-120015000D01*
X180975000Y-100965000D02*
X183515000Y-100965000D01*
X184785000Y-102235000D02*
X186690000Y-102235000D01*
X183515000Y-100965000D02*
X184785000Y-102235000D01*
X180975000Y-98425000D02*
X186690000Y-98425000D01*
X180975000Y-95885000D02*
X182245000Y-95885000D01*
X183515000Y-94615000D02*
X186690000Y-94615000D01*
X182245000Y-95885000D02*
X183515000Y-94615000D01*
X180975000Y-93345000D02*
X182245000Y-93345000D01*
X184785000Y-90805000D02*
X186690000Y-90805000D01*
X182245000Y-93345000D02*
X184785000Y-90805000D01*
X180975000Y-93345000D02*
X181610000Y-93345000D01*
X264160000Y-90170000D02*
X264160000Y-96520000D01*
X264160000Y-140970000D02*
X264160000Y-147320000D01*
X264160000Y-64770000D02*
X264160000Y-72390000D01*
X264160000Y-115570000D02*
X264160000Y-121920000D01*
X196850000Y-90805000D02*
X203200000Y-90805000D01*
X204470000Y-89535000D02*
X204470000Y-87630000D01*
X203200000Y-90805000D02*
X204470000Y-89535000D01*
X196850000Y-94615000D02*
X199390000Y-94615000D01*
X204470000Y-94615000D02*
X204470000Y-93345000D01*
X203835000Y-95250000D02*
X204470000Y-94615000D01*
X200025000Y-95250000D02*
X203835000Y-95250000D01*
X199390000Y-94615000D02*
X200025000Y-95250000D01*
X196850000Y-98425000D02*
X198755000Y-98425000D01*
X204470000Y-98425000D02*
X204470000Y-99695000D01*
X203835000Y-97790000D02*
X204470000Y-98425000D01*
X199390000Y-97790000D02*
X203835000Y-97790000D01*
X198755000Y-98425000D02*
X199390000Y-97790000D01*
X161290000Y-130175000D02*
X154940000Y-123825000D01*
X161290000Y-130175000D02*
X202565000Y-130175000D01*
X202565000Y-130175000D02*
X204470000Y-132080000D01*
X204470000Y-138430000D02*
X204470000Y-132080000D01*
X156845000Y-113030000D02*
X159385000Y-113030000D01*
X154940000Y-114935000D02*
X156845000Y-113030000D01*
X154940000Y-123825000D02*
X154940000Y-114935000D01*
X158750000Y-101600000D02*
X155575000Y-101600000D01*
X204470000Y-142875000D02*
X204470000Y-144780000D01*
X203835000Y-142240000D02*
X204470000Y-142875000D01*
X201930000Y-142240000D02*
X203835000Y-142240000D01*
X200025000Y-140335000D02*
X201930000Y-142240000D01*
X200025000Y-133350000D02*
X200025000Y-140335000D01*
X198755000Y-132080000D02*
X200025000Y-133350000D01*
X160655000Y-132080000D02*
X198755000Y-132080000D01*
X153035000Y-124460000D02*
X160655000Y-132080000D01*
X153035000Y-104140000D02*
X153035000Y-124460000D01*
X155575000Y-101600000D02*
X153035000Y-104140000D01*
X158750000Y-97790000D02*
X154940000Y-97790000D01*
X204470000Y-149225000D02*
X204470000Y-151130000D01*
X203835000Y-148590000D02*
X204470000Y-149225000D01*
X200025000Y-148590000D02*
X203835000Y-148590000D01*
X198120000Y-146685000D02*
X200025000Y-148590000D01*
X198120000Y-135255000D02*
X198120000Y-146685000D01*
X196850000Y-133985000D02*
X198120000Y-135255000D01*
X159385000Y-133985000D02*
X196850000Y-133985000D01*
X151130000Y-125730000D02*
X159385000Y-133985000D01*
X151130000Y-101600000D02*
X151130000Y-125730000D01*
X154940000Y-97790000D02*
X151130000Y-101600000D01*
X158750000Y-93980000D02*
X156210000Y-93980000D01*
X204470000Y-64770000D02*
X204470000Y-62230000D01*
X203200000Y-66040000D02*
X204470000Y-64770000D01*
X200660000Y-66040000D02*
X203200000Y-66040000D01*
X198755000Y-68580000D02*
X200660000Y-66040000D01*
X198755000Y-78105000D02*
X198755000Y-68580000D01*
X197485000Y-79375000D02*
X198755000Y-78105000D01*
X156845000Y-79375000D02*
X197485000Y-79375000D01*
X153035000Y-83185000D02*
X156845000Y-79375000D01*
X153035000Y-91440000D02*
X153035000Y-83185000D01*
X156210000Y-93980000D02*
X153035000Y-91440000D01*
X155575000Y-84455000D02*
X155575000Y-88900000D01*
X155575000Y-84455000D02*
X158750000Y-81280000D01*
X158750000Y-81280000D02*
X199390000Y-81280000D01*
X199390000Y-81280000D02*
X201295000Y-79375000D01*
X201295000Y-79375000D02*
X201295000Y-72390000D01*
X201295000Y-72390000D02*
X202565000Y-71120000D01*
X202565000Y-71120000D02*
X203200000Y-71120000D01*
X203200000Y-71120000D02*
X204470000Y-69850000D01*
X204470000Y-68580000D02*
X204470000Y-69850000D01*
X156845000Y-90170000D02*
X158750000Y-90170000D01*
X155575000Y-88900000D02*
X156845000Y-90170000D01*
X204470000Y-74930000D02*
X204470000Y-80645000D01*
X161925000Y-83185000D02*
X158750000Y-86360000D01*
X201930000Y-83185000D02*
X161925000Y-83185000D01*
X204470000Y-80645000D02*
X201930000Y-83185000D01*
X196850000Y-102235000D02*
X198755000Y-102235000D01*
X204470000Y-107950000D02*
X204470000Y-113030000D01*
X198755000Y-102235000D02*
X204470000Y-107950000D01*
X159385000Y-120650000D02*
X159385000Y-123190000D01*
X204470000Y-120650000D02*
X204470000Y-119380000D01*
X203200000Y-121920000D02*
X204470000Y-120650000D01*
X200025000Y-121920000D02*
X203200000Y-121920000D01*
X197485000Y-124460000D02*
X200025000Y-121920000D01*
X160655000Y-124460000D02*
X197485000Y-124460000D01*
X159385000Y-123190000D02*
X160655000Y-124460000D01*
X159385000Y-116840000D02*
X157480000Y-116840000D01*
X204470000Y-128270000D02*
X204470000Y-125730000D01*
X161925000Y-128270000D02*
X204470000Y-128270000D01*
X156845000Y-123190000D02*
X161925000Y-128270000D01*
X156845000Y-117475000D02*
X156845000Y-123190000D01*
X157480000Y-116840000D02*
X156845000Y-117475000D01*
D27*
G36*
X151500485Y-54531950D02*
X150420741Y-55609811D01*
X149835667Y-57018825D01*
X149834336Y-58544482D01*
X150416950Y-59954515D01*
X151494811Y-61034259D01*
X152903825Y-61619333D01*
X154429482Y-61620664D01*
X155839515Y-61038050D01*
X156919259Y-59960189D01*
X157301355Y-59040000D01*
X163167560Y-59040000D01*
X163167560Y-60340000D01*
X163211838Y-60575317D01*
X163350910Y-60791441D01*
X163563110Y-60936431D01*
X163815000Y-60987440D01*
X165115000Y-60987440D01*
X165350317Y-60943162D01*
X165566441Y-60804090D01*
X165711431Y-60591890D01*
X165762440Y-60340000D01*
X165762440Y-59040000D01*
X165722249Y-58826400D01*
X173748960Y-58826400D01*
X173748960Y-60553600D01*
X173793238Y-60788917D01*
X173932310Y-61005041D01*
X174144510Y-61150031D01*
X174188345Y-61158908D01*
X173875474Y-61627152D01*
X173761400Y-62200641D01*
X173761400Y-62259359D01*
X173875474Y-62832848D01*
X174200330Y-63319029D01*
X174471161Y-63499992D01*
X174053179Y-63881510D01*
X173805032Y-64410973D01*
X173925531Y-64643000D01*
X175133000Y-64643000D01*
X175133000Y-64623000D01*
X175387000Y-64623000D01*
X175387000Y-64643000D01*
X177673000Y-64643000D01*
X177673000Y-64623000D01*
X177927000Y-64623000D01*
X177927000Y-64643000D01*
X179134469Y-64643000D01*
X179254968Y-64410973D01*
X179006821Y-63881510D01*
X178588839Y-63499992D01*
X178859670Y-63319029D01*
X179184526Y-62832848D01*
X179279178Y-62357000D01*
X202115420Y-62357000D01*
X202115420Y-62657990D01*
X202246580Y-63063373D01*
X202522889Y-63387706D01*
X202906065Y-63574981D01*
X203073000Y-63448068D01*
X203073000Y-62357000D01*
X202115420Y-62357000D01*
X179279178Y-62357000D01*
X179298600Y-62259359D01*
X179298600Y-62200641D01*
X179219308Y-61802010D01*
X202115420Y-61802010D01*
X202115420Y-62103000D01*
X203073000Y-62103000D01*
X203073000Y-61011932D01*
X202906065Y-60885019D01*
X202522889Y-61072294D01*
X202246580Y-61396627D01*
X202115420Y-61802010D01*
X179219308Y-61802010D01*
X179184526Y-61627152D01*
X178859670Y-61140971D01*
X178588828Y-60960000D01*
X178859670Y-60779029D01*
X179184526Y-60292848D01*
X179298600Y-59719359D01*
X179298600Y-59660641D01*
X179184526Y-59087152D01*
X178859670Y-58600971D01*
X178373489Y-58276115D01*
X177800000Y-58162041D01*
X177226511Y-58276115D01*
X176740330Y-58600971D01*
X176731195Y-58614642D01*
X176726762Y-58591083D01*
X176587690Y-58374959D01*
X176375490Y-58229969D01*
X176123600Y-58178960D01*
X174396400Y-58178960D01*
X174161083Y-58223238D01*
X173944959Y-58362310D01*
X173799969Y-58574510D01*
X173748960Y-58826400D01*
X165722249Y-58826400D01*
X165718162Y-58804683D01*
X165579090Y-58588559D01*
X165366890Y-58443569D01*
X165115000Y-58392560D01*
X163815000Y-58392560D01*
X163579683Y-58436838D01*
X163363559Y-58575910D01*
X163218569Y-58788110D01*
X163167560Y-59040000D01*
X157301355Y-59040000D01*
X157504333Y-58551175D01*
X157505664Y-57025518D01*
X157294723Y-56515000D01*
X186042560Y-56515000D01*
X186042560Y-59055000D01*
X186086838Y-59290317D01*
X186225910Y-59506441D01*
X186438110Y-59651431D01*
X186690000Y-59702440D01*
X189230000Y-59702440D01*
X189465317Y-59658162D01*
X189681441Y-59519090D01*
X189826431Y-59306890D01*
X189861689Y-59132777D01*
X191871828Y-59132777D01*
X192003520Y-59427657D01*
X192711036Y-59699261D01*
X193468632Y-59679436D01*
X194076480Y-59427657D01*
X194208172Y-59132777D01*
X193040000Y-57964605D01*
X191871828Y-59132777D01*
X189861689Y-59132777D01*
X189877440Y-59055000D01*
X189877440Y-57456036D01*
X191125739Y-57456036D01*
X191145564Y-58213632D01*
X191397343Y-58821480D01*
X191692223Y-58953172D01*
X192860395Y-57785000D01*
X193219605Y-57785000D01*
X194387777Y-58953172D01*
X194682657Y-58821480D01*
X194954261Y-58113964D01*
X194934436Y-57356368D01*
X194682657Y-56748520D01*
X194387777Y-56616828D01*
X193219605Y-57785000D01*
X192860395Y-57785000D01*
X191692223Y-56616828D01*
X191397343Y-56748520D01*
X191125739Y-57456036D01*
X189877440Y-57456036D01*
X189877440Y-56515000D01*
X189862806Y-56437223D01*
X191871828Y-56437223D01*
X193040000Y-57605395D01*
X194208172Y-56437223D01*
X194076480Y-56142343D01*
X193368964Y-55870739D01*
X192611368Y-55890564D01*
X192003520Y-56142343D01*
X191871828Y-56437223D01*
X189862806Y-56437223D01*
X189833162Y-56279683D01*
X189694090Y-56063559D01*
X189481890Y-55918569D01*
X189230000Y-55867560D01*
X186690000Y-55867560D01*
X186454683Y-55911838D01*
X186238559Y-56050910D01*
X186093569Y-56263110D01*
X186042560Y-56515000D01*
X157294723Y-56515000D01*
X156923050Y-55615485D01*
X155845189Y-54535741D01*
X154800625Y-54102000D01*
X263666043Y-54102000D01*
X262625485Y-54531950D01*
X261545741Y-55609811D01*
X260960667Y-57018825D01*
X260959336Y-58544482D01*
X261541950Y-59954515D01*
X262619811Y-61034259D01*
X264028825Y-61619333D01*
X265554482Y-61620664D01*
X266964515Y-61038050D01*
X268044259Y-59960189D01*
X268478000Y-58915625D01*
X268478000Y-156351043D01*
X268048050Y-155310485D01*
X266970189Y-154230741D01*
X265561175Y-153645667D01*
X264035518Y-153644336D01*
X262625485Y-154226950D01*
X261545741Y-155304811D01*
X260960667Y-156713825D01*
X260959336Y-158239482D01*
X261541950Y-159649515D01*
X262619811Y-160729259D01*
X263664375Y-161163000D01*
X154798957Y-161163000D01*
X155839515Y-160733050D01*
X156919259Y-159655189D01*
X157504333Y-158246175D01*
X157505664Y-156720518D01*
X157199689Y-155980000D01*
X164684286Y-155980000D01*
X164684286Y-159950000D01*
X169325715Y-159950000D01*
X169325715Y-155980000D01*
X164684286Y-155980000D01*
X157199689Y-155980000D01*
X156923050Y-155310485D01*
X155845189Y-154230741D01*
X154436175Y-153645667D01*
X152910518Y-153644336D01*
X151500485Y-154226950D01*
X150420741Y-155304811D01*
X149835667Y-156713825D01*
X149834336Y-158239482D01*
X150416950Y-159649515D01*
X151494811Y-160729259D01*
X152539375Y-161163000D01*
X149352000Y-161163000D01*
X149352000Y-151257000D01*
X202115420Y-151257000D01*
X202115420Y-151557990D01*
X202246580Y-151963373D01*
X202522889Y-152287706D01*
X202906065Y-152474981D01*
X203073000Y-152348068D01*
X203073000Y-151257000D01*
X202115420Y-151257000D01*
X149352000Y-151257000D01*
X149352000Y-150702010D01*
X202115420Y-150702010D01*
X202115420Y-151003000D01*
X203073000Y-151003000D01*
X203073000Y-149911932D01*
X202906065Y-149785019D01*
X202522889Y-149972294D01*
X202246580Y-150296627D01*
X202115420Y-150702010D01*
X149352000Y-150702010D01*
X149352000Y-101600000D01*
X150241000Y-101600000D01*
X150241000Y-125730000D01*
X150308671Y-126070206D01*
X150501382Y-126358618D01*
X158756382Y-134613618D01*
X159044794Y-134806329D01*
X159385000Y-134874000D01*
X196481764Y-134874000D01*
X197231000Y-135623236D01*
X197231000Y-146685000D01*
X197298671Y-147025206D01*
X197491382Y-147313618D01*
X199396382Y-149218618D01*
X199684794Y-149411329D01*
X200025000Y-149479000D01*
X203466764Y-149479000D01*
X203581000Y-149593236D01*
X203581000Y-149827572D01*
X203493935Y-149785019D01*
X203327000Y-149911932D01*
X203327000Y-151003000D01*
X203347000Y-151003000D01*
X203347000Y-151257000D01*
X203327000Y-151257000D01*
X203327000Y-152348068D01*
X203493935Y-152474981D01*
X203830762Y-152310359D01*
X204054949Y-152460156D01*
X204470000Y-152542715D01*
X204885051Y-152460156D01*
X205105000Y-152313191D01*
X205324949Y-152460156D01*
X205740000Y-152542715D01*
X206155051Y-152460156D01*
X206506914Y-152225049D01*
X206644591Y-152019000D01*
X215265000Y-152019000D01*
X215605206Y-151951329D01*
X215893618Y-151758618D01*
X220078236Y-147574000D01*
X229235000Y-147574000D01*
X229575206Y-147506329D01*
X229863618Y-147313618D01*
X238397434Y-138779802D01*
X238433352Y-138794716D01*
X239083795Y-138795284D01*
X239684943Y-138546894D01*
X240030199Y-138202241D01*
X240372637Y-138545278D01*
X240973352Y-138794716D01*
X241623795Y-138795284D01*
X242224943Y-138546894D01*
X242685278Y-138087363D01*
X242701208Y-138049000D01*
X243205000Y-138049000D01*
X243545206Y-137981329D01*
X243833618Y-137788618D01*
X244856000Y-136766236D01*
X244856000Y-153301764D01*
X243471764Y-154686000D01*
X240398236Y-154686000D01*
X239649000Y-153936764D01*
X239649000Y-153801745D01*
X239684943Y-153786894D01*
X240030199Y-153442241D01*
X240372637Y-153785278D01*
X240973352Y-154034716D01*
X241623795Y-154035284D01*
X242224943Y-153786894D01*
X242685278Y-153327363D01*
X242934716Y-152726648D01*
X242935284Y-152076205D01*
X242686894Y-151475057D01*
X242227363Y-151014722D01*
X241626648Y-150765284D01*
X240976205Y-150764716D01*
X240375057Y-151013106D01*
X240029801Y-151357759D01*
X239687363Y-151014722D01*
X239086648Y-150765284D01*
X238436205Y-150764716D01*
X237835057Y-151013106D01*
X237489801Y-151357759D01*
X237147363Y-151014722D01*
X236546648Y-150765284D01*
X235896205Y-150764716D01*
X235295057Y-151013106D01*
X234949801Y-151357759D01*
X234607363Y-151014722D01*
X234006648Y-150765284D01*
X233356205Y-150764716D01*
X232755057Y-151013106D01*
X232409801Y-151357759D01*
X232067363Y-151014722D01*
X231466648Y-150765284D01*
X230816205Y-150764716D01*
X230215057Y-151013106D01*
X230164437Y-151063638D01*
X230080090Y-150932559D01*
X229867890Y-150787569D01*
X229616000Y-150736560D01*
X227584000Y-150736560D01*
X227348683Y-150780838D01*
X227132559Y-150919910D01*
X226987569Y-151132110D01*
X226936560Y-151384000D01*
X226936560Y-153416000D01*
X226980838Y-153651317D01*
X227119910Y-153867441D01*
X227332110Y-154012431D01*
X227584000Y-154063440D01*
X227814241Y-154063440D01*
X227923495Y-154226950D01*
X227971382Y-154298618D01*
X234448382Y-160775618D01*
X234736794Y-160968329D01*
X235077000Y-161036000D01*
X246888000Y-161036000D01*
X247228206Y-160968329D01*
X247516618Y-160775618D01*
X251453618Y-156838618D01*
X251537002Y-156713825D01*
X251646329Y-156550206D01*
X251714000Y-156210000D01*
X251714000Y-147848172D01*
X261492538Y-147848172D01*
X261897709Y-148828761D01*
X262647293Y-149579655D01*
X263627173Y-149986536D01*
X264688172Y-149987462D01*
X265668761Y-149582291D01*
X266419655Y-148832707D01*
X266826536Y-147852827D01*
X266827462Y-146791828D01*
X266422291Y-145811239D01*
X265672707Y-145060345D01*
X265049000Y-144801360D01*
X265049000Y-142272428D01*
X265136065Y-142314981D01*
X265303000Y-142188068D01*
X265303000Y-141097000D01*
X265557000Y-141097000D01*
X265557000Y-142188068D01*
X265723935Y-142314981D01*
X266107111Y-142127706D01*
X266383420Y-141803373D01*
X266514580Y-141397990D01*
X266514580Y-141097000D01*
X265557000Y-141097000D01*
X265303000Y-141097000D01*
X265283000Y-141097000D01*
X265283000Y-140843000D01*
X265303000Y-140843000D01*
X265303000Y-139751932D01*
X265557000Y-139751932D01*
X265557000Y-140843000D01*
X266514580Y-140843000D01*
X266514580Y-140542010D01*
X266383420Y-140136627D01*
X266107111Y-139812294D01*
X265723935Y-139625019D01*
X265557000Y-139751932D01*
X265303000Y-139751932D01*
X265136065Y-139625019D01*
X264799238Y-139789641D01*
X264575051Y-139639844D01*
X264160000Y-139557285D01*
X263744949Y-139639844D01*
X263525000Y-139786809D01*
X263305051Y-139639844D01*
X262890000Y-139557285D01*
X262474949Y-139639844D01*
X262123086Y-139874951D01*
X261887979Y-140226814D01*
X261805420Y-140641865D01*
X261805420Y-141298135D01*
X261887979Y-141713186D01*
X262123086Y-142065049D01*
X262474949Y-142300156D01*
X262890000Y-142382715D01*
X263271000Y-142306929D01*
X263271000Y-144801629D01*
X262651239Y-145057709D01*
X261900345Y-145807293D01*
X261493464Y-146787173D01*
X261492538Y-147848172D01*
X251714000Y-147848172D01*
X251714000Y-139919198D01*
X251908201Y-139999838D01*
X252280167Y-140000162D01*
X252476000Y-139919246D01*
X252476000Y-140037811D01*
X252430162Y-140148201D01*
X252429838Y-140520167D01*
X252571883Y-140863943D01*
X252834673Y-141127192D01*
X253178201Y-141269838D01*
X253550167Y-141270162D01*
X253893943Y-141128117D01*
X254157192Y-140865327D01*
X254299838Y-140521799D01*
X254300162Y-140149833D01*
X254254000Y-140038112D01*
X254254000Y-122448172D01*
X261492538Y-122448172D01*
X261897709Y-123428761D01*
X262647293Y-124179655D01*
X263627173Y-124586536D01*
X264688172Y-124587462D01*
X265668761Y-124182291D01*
X266419655Y-123432707D01*
X266826536Y-122452827D01*
X266827462Y-121391828D01*
X266422291Y-120411239D01*
X265672707Y-119660345D01*
X265049000Y-119401360D01*
X265049000Y-116872428D01*
X265136065Y-116914981D01*
X265303000Y-116788068D01*
X265303000Y-115697000D01*
X265557000Y-115697000D01*
X265557000Y-116788068D01*
X265723935Y-116914981D01*
X266107111Y-116727706D01*
X266383420Y-116403373D01*
X266514580Y-115997990D01*
X266514580Y-115697000D01*
X265557000Y-115697000D01*
X265303000Y-115697000D01*
X265283000Y-115697000D01*
X265283000Y-115443000D01*
X265303000Y-115443000D01*
X265303000Y-114351932D01*
X265557000Y-114351932D01*
X265557000Y-115443000D01*
X266514580Y-115443000D01*
X266514580Y-115142010D01*
X266383420Y-114736627D01*
X266107111Y-114412294D01*
X265723935Y-114225019D01*
X265557000Y-114351932D01*
X265303000Y-114351932D01*
X265136065Y-114225019D01*
X264799238Y-114389641D01*
X264575051Y-114239844D01*
X264160000Y-114157285D01*
X263744949Y-114239844D01*
X263525000Y-114386809D01*
X263305051Y-114239844D01*
X262890000Y-114157285D01*
X262474949Y-114239844D01*
X262123086Y-114474951D01*
X261887979Y-114826814D01*
X261805420Y-115241865D01*
X261805420Y-115898135D01*
X261887979Y-116313186D01*
X262123086Y-116665049D01*
X262474949Y-116900156D01*
X262890000Y-116982715D01*
X263271000Y-116906929D01*
X263271000Y-119401629D01*
X262651239Y-119657709D01*
X261900345Y-120407293D01*
X261493464Y-121387173D01*
X261492538Y-122448172D01*
X254254000Y-122448172D01*
X254254000Y-115232189D01*
X254299838Y-115121799D01*
X254300162Y-114749833D01*
X254254000Y-114638112D01*
X254254000Y-97048172D01*
X261492538Y-97048172D01*
X261897709Y-98028761D01*
X262647293Y-98779655D01*
X263627173Y-99186536D01*
X264688172Y-99187462D01*
X265668761Y-98782291D01*
X266419655Y-98032707D01*
X266826536Y-97052827D01*
X266827462Y-95991828D01*
X266422291Y-95011239D01*
X265672707Y-94260345D01*
X265049000Y-94001360D01*
X265049000Y-91472428D01*
X265136065Y-91514981D01*
X265303000Y-91388068D01*
X265303000Y-90297000D01*
X265557000Y-90297000D01*
X265557000Y-91388068D01*
X265723935Y-91514981D01*
X266107111Y-91327706D01*
X266383420Y-91003373D01*
X266514580Y-90597990D01*
X266514580Y-90297000D01*
X265557000Y-90297000D01*
X265303000Y-90297000D01*
X265283000Y-90297000D01*
X265283000Y-90043000D01*
X265303000Y-90043000D01*
X265303000Y-88951932D01*
X265557000Y-88951932D01*
X265557000Y-90043000D01*
X266514580Y-90043000D01*
X266514580Y-89742010D01*
X266383420Y-89336627D01*
X266107111Y-89012294D01*
X265723935Y-88825019D01*
X265557000Y-88951932D01*
X265303000Y-88951932D01*
X265136065Y-88825019D01*
X264799238Y-88989641D01*
X264575051Y-88839844D01*
X264160000Y-88757285D01*
X263744949Y-88839844D01*
X263525000Y-88986809D01*
X263305051Y-88839844D01*
X262890000Y-88757285D01*
X262474949Y-88839844D01*
X262123086Y-89074951D01*
X261887979Y-89426814D01*
X261805420Y-89841865D01*
X261805420Y-90498135D01*
X261887979Y-90913186D01*
X262123086Y-91265049D01*
X262474949Y-91500156D01*
X262890000Y-91582715D01*
X263271000Y-91506929D01*
X263271000Y-94001629D01*
X262651239Y-94257709D01*
X261900345Y-95007293D01*
X261493464Y-95987173D01*
X261492538Y-97048172D01*
X254254000Y-97048172D01*
X254254000Y-89832189D01*
X254299838Y-89721799D01*
X254300162Y-89349833D01*
X254254000Y-89238112D01*
X254254000Y-72918172D01*
X261492538Y-72918172D01*
X261897709Y-73898761D01*
X262647293Y-74649655D01*
X263627173Y-75056536D01*
X264688172Y-75057462D01*
X265668761Y-74652291D01*
X266419655Y-73902707D01*
X266826536Y-72922827D01*
X266827462Y-71861828D01*
X266422291Y-70881239D01*
X265672707Y-70130345D01*
X265049000Y-69871360D01*
X265049000Y-66072428D01*
X265136065Y-66114981D01*
X265303000Y-65988068D01*
X265303000Y-64897000D01*
X265557000Y-64897000D01*
X265557000Y-65988068D01*
X265723935Y-66114981D01*
X266107111Y-65927706D01*
X266383420Y-65603373D01*
X266514580Y-65197990D01*
X266514580Y-64897000D01*
X265557000Y-64897000D01*
X265303000Y-64897000D01*
X265283000Y-64897000D01*
X265283000Y-64643000D01*
X265303000Y-64643000D01*
X265303000Y-63551932D01*
X265557000Y-63551932D01*
X265557000Y-64643000D01*
X266514580Y-64643000D01*
X266514580Y-64342010D01*
X266383420Y-63936627D01*
X266107111Y-63612294D01*
X265723935Y-63425019D01*
X265557000Y-63551932D01*
X265303000Y-63551932D01*
X265136065Y-63425019D01*
X264799238Y-63589641D01*
X264575051Y-63439844D01*
X264160000Y-63357285D01*
X263744949Y-63439844D01*
X263525000Y-63586809D01*
X263305051Y-63439844D01*
X262890000Y-63357285D01*
X262474949Y-63439844D01*
X262123086Y-63674951D01*
X261887979Y-64026814D01*
X261805420Y-64441865D01*
X261805420Y-65098135D01*
X261887979Y-65513186D01*
X262123086Y-65865049D01*
X262474949Y-66100156D01*
X262890000Y-66182715D01*
X263271000Y-66106929D01*
X263271000Y-69871629D01*
X262651239Y-70127709D01*
X261900345Y-70877293D01*
X261493464Y-71857173D01*
X261492538Y-72918172D01*
X254254000Y-72918172D01*
X254254000Y-58420000D01*
X254186329Y-58079794D01*
X253993618Y-57791382D01*
X252723618Y-56521382D01*
X252597665Y-56437223D01*
X252435206Y-56328671D01*
X252095000Y-56261000D01*
X233045000Y-56261000D01*
X232704794Y-56328671D01*
X232542335Y-56437223D01*
X232416382Y-56521382D01*
X230511382Y-58426382D01*
X230318671Y-58714794D01*
X230251000Y-59055000D01*
X230251000Y-59558255D01*
X230215057Y-59573106D01*
X229869801Y-59917759D01*
X229527363Y-59574722D01*
X228926648Y-59325284D01*
X228276205Y-59324716D01*
X227675057Y-59573106D01*
X227214722Y-60032637D01*
X227198792Y-60071000D01*
X221615000Y-60071000D01*
X221274794Y-60138671D01*
X221044052Y-60292848D01*
X220986382Y-60331382D01*
X219976764Y-61341000D01*
X206644591Y-61341000D01*
X206506914Y-61134951D01*
X206155051Y-60899844D01*
X205740000Y-60817285D01*
X205324949Y-60899844D01*
X205105000Y-61046809D01*
X204885051Y-60899844D01*
X204470000Y-60817285D01*
X204054949Y-60899844D01*
X203830762Y-61049641D01*
X203493935Y-60885019D01*
X203327000Y-61011932D01*
X203327000Y-62103000D01*
X203347000Y-62103000D01*
X203347000Y-62357000D01*
X203327000Y-62357000D01*
X203327000Y-63448068D01*
X203493935Y-63574981D01*
X203581000Y-63532428D01*
X203581000Y-64401764D01*
X202831764Y-65151000D01*
X200660000Y-65151000D01*
X200597701Y-65163392D01*
X200534276Y-65159935D01*
X200429123Y-65196924D01*
X200319794Y-65218671D01*
X200266980Y-65253960D01*
X200207060Y-65275038D01*
X200124066Y-65349453D01*
X200031382Y-65411382D01*
X199996092Y-65464196D01*
X199948800Y-65506600D01*
X198043800Y-68046600D01*
X197995601Y-68147110D01*
X197933671Y-68239794D01*
X197921279Y-68302092D01*
X197893813Y-68359367D01*
X197887746Y-68470674D01*
X197866000Y-68580000D01*
X197866000Y-77736764D01*
X197116764Y-78486000D01*
X156845000Y-78486000D01*
X156504795Y-78553670D01*
X156216382Y-78746382D01*
X152406382Y-82556382D01*
X152213671Y-82844794D01*
X152146000Y-83185000D01*
X152146000Y-91440000D01*
X152155687Y-91488700D01*
X152151437Y-91538174D01*
X152189257Y-91657467D01*
X152213671Y-91780206D01*
X152241258Y-91821493D01*
X152256264Y-91868825D01*
X152336854Y-91964562D01*
X152406382Y-92068618D01*
X152447669Y-92096205D01*
X152479646Y-92134192D01*
X155654646Y-94674192D01*
X155765738Y-94731801D01*
X155869794Y-94801329D01*
X155918496Y-94811016D01*
X155962576Y-94833875D01*
X156087262Y-94844586D01*
X156210000Y-94869000D01*
X157348806Y-94869000D01*
X157363538Y-94904655D01*
X157822927Y-95364846D01*
X158423453Y-95614206D01*
X159073694Y-95614774D01*
X159674655Y-95366462D01*
X160134846Y-94907073D01*
X160384206Y-94306547D01*
X160384774Y-93656306D01*
X160136462Y-93055345D01*
X159677073Y-92595154D01*
X159076547Y-92345794D01*
X158426306Y-92345226D01*
X157825345Y-92593538D01*
X157365154Y-93052927D01*
X157349345Y-93091000D01*
X156521844Y-93091000D01*
X153924000Y-91012725D01*
X153924000Y-83553236D01*
X157213236Y-80264000D01*
X197485000Y-80264000D01*
X197825206Y-80196329D01*
X198113618Y-80003618D01*
X199383618Y-78733618D01*
X199576329Y-78445206D01*
X199644000Y-78105000D01*
X199644000Y-68876333D01*
X200187242Y-68152010D01*
X202115420Y-68152010D01*
X202115420Y-68453000D01*
X203073000Y-68453000D01*
X203073000Y-67361932D01*
X202906065Y-67235019D01*
X202522889Y-67422294D01*
X202246580Y-67746627D01*
X202115420Y-68152010D01*
X200187242Y-68152010D01*
X201104500Y-66929000D01*
X203200000Y-66929000D01*
X203540206Y-66861329D01*
X203828618Y-66668618D01*
X205098618Y-65398618D01*
X205145269Y-65328800D01*
X205291329Y-65110206D01*
X205359000Y-64770000D01*
X205359000Y-63566929D01*
X205740000Y-63642715D01*
X206155051Y-63560156D01*
X206506914Y-63325049D01*
X206644591Y-63119000D01*
X220345000Y-63119000D01*
X220685206Y-63051329D01*
X220973618Y-62858618D01*
X221983236Y-61849000D01*
X227198255Y-61849000D01*
X227213106Y-61884943D01*
X227672637Y-62345278D01*
X228273352Y-62594716D01*
X228923795Y-62595284D01*
X229524943Y-62346894D01*
X229870199Y-62002241D01*
X230212637Y-62345278D01*
X230813352Y-62594716D01*
X231463795Y-62595284D01*
X232064943Y-62346894D01*
X232410199Y-62002241D01*
X232752637Y-62345278D01*
X233335472Y-62587292D01*
X228231764Y-67691000D01*
X206644591Y-67691000D01*
X206506914Y-67484951D01*
X206155051Y-67249844D01*
X205740000Y-67167285D01*
X205324949Y-67249844D01*
X205105000Y-67396809D01*
X204885051Y-67249844D01*
X204470000Y-67167285D01*
X204054949Y-67249844D01*
X203830762Y-67399641D01*
X203493935Y-67235019D01*
X203327000Y-67361932D01*
X203327000Y-68453000D01*
X203347000Y-68453000D01*
X203347000Y-68707000D01*
X203327000Y-68707000D01*
X203327000Y-68727000D01*
X203073000Y-68727000D01*
X203073000Y-68707000D01*
X202115420Y-68707000D01*
X202115420Y-69007990D01*
X202246580Y-69413373D01*
X202522889Y-69737706D01*
X202906065Y-69924981D01*
X203072998Y-69798070D01*
X203072998Y-69965570D01*
X203097194Y-69965570D01*
X202831764Y-70231000D01*
X202565000Y-70231000D01*
X202224794Y-70298671D01*
X201994052Y-70452848D01*
X201936382Y-70491382D01*
X200666382Y-71761382D01*
X200473671Y-72049794D01*
X200406000Y-72390000D01*
X200406000Y-79006764D01*
X199021764Y-80391000D01*
X158750000Y-80391000D01*
X158409794Y-80458671D01*
X158130933Y-80645000D01*
X158121382Y-80651382D01*
X154946382Y-83826382D01*
X154753671Y-84114794D01*
X154686000Y-84455000D01*
X154686000Y-88900000D01*
X154753671Y-89240206D01*
X154826922Y-89349833D01*
X154946382Y-89528618D01*
X156216382Y-90798618D01*
X156504794Y-90991329D01*
X156845000Y-91059000D01*
X157348806Y-91059000D01*
X157363538Y-91094655D01*
X157822927Y-91554846D01*
X158423453Y-91804206D01*
X159073694Y-91804774D01*
X159674655Y-91556462D01*
X160134846Y-91097073D01*
X160384206Y-90496547D01*
X160384774Y-89846306D01*
X160136462Y-89245345D01*
X159677073Y-88785154D01*
X159076547Y-88535794D01*
X158426306Y-88535226D01*
X157825345Y-88783538D01*
X157365154Y-89242927D01*
X157349345Y-89281000D01*
X157213236Y-89281000D01*
X156464000Y-88531764D01*
X156464000Y-84823236D01*
X159118236Y-82169000D01*
X199390000Y-82169000D01*
X199730206Y-82101329D01*
X200018618Y-81908618D01*
X201923618Y-80003618D01*
X202116329Y-79715206D01*
X202184000Y-79375000D01*
X202184000Y-75569954D01*
X202246580Y-75763373D01*
X202522889Y-76087706D01*
X202906065Y-76274981D01*
X203073000Y-76148068D01*
X203073000Y-75057000D01*
X203053000Y-75057000D01*
X203053000Y-74803000D01*
X203073000Y-74803000D01*
X203073000Y-73711932D01*
X202906065Y-73585019D01*
X202522889Y-73772294D01*
X202246580Y-74096627D01*
X202184000Y-74290046D01*
X202184000Y-72758236D01*
X202933236Y-72009000D01*
X203200000Y-72009000D01*
X203540206Y-71941329D01*
X203828618Y-71748618D01*
X205098618Y-70478618D01*
X205200004Y-70326883D01*
X205291329Y-70190206D01*
X205346194Y-69914382D01*
X205740000Y-69992715D01*
X206155051Y-69910156D01*
X206506914Y-69675049D01*
X206644591Y-69469000D01*
X222643764Y-69469000D01*
X218071764Y-74041000D01*
X206644591Y-74041000D01*
X206506914Y-73834951D01*
X206155051Y-73599844D01*
X205740000Y-73517285D01*
X205324949Y-73599844D01*
X205105000Y-73746809D01*
X204885051Y-73599844D01*
X204470000Y-73517285D01*
X204054949Y-73599844D01*
X203830762Y-73749641D01*
X203493935Y-73585019D01*
X203327000Y-73711932D01*
X203327000Y-74803000D01*
X203347000Y-74803000D01*
X203347000Y-75057000D01*
X203327000Y-75057000D01*
X203327000Y-76148068D01*
X203493935Y-76274981D01*
X203581000Y-76232428D01*
X203581000Y-80276764D01*
X201561764Y-82296000D01*
X161925000Y-82296000D01*
X161584794Y-82363671D01*
X161296382Y-82556382D01*
X159112176Y-84740588D01*
X159076547Y-84725794D01*
X158426306Y-84725226D01*
X157825345Y-84973538D01*
X157365154Y-85432927D01*
X157115794Y-86033453D01*
X157115226Y-86683694D01*
X157363538Y-87284655D01*
X157822927Y-87744846D01*
X158423453Y-87994206D01*
X159073694Y-87994774D01*
X159674655Y-87746462D01*
X160134846Y-87287073D01*
X160384206Y-86686547D01*
X160384208Y-86683694D01*
X167275226Y-86683694D01*
X167523538Y-87284655D01*
X167982927Y-87744846D01*
X168583453Y-87994206D01*
X169233694Y-87994774D01*
X169834655Y-87746462D01*
X170294846Y-87287073D01*
X170310655Y-87249000D01*
X170446764Y-87249000D01*
X170561000Y-87363236D01*
X170561000Y-89375929D01*
X170520206Y-89348671D01*
X170322943Y-89309433D01*
X170296462Y-89245345D01*
X169837073Y-88785154D01*
X169236547Y-88535794D01*
X168586306Y-88535226D01*
X167985345Y-88783538D01*
X167525154Y-89242927D01*
X167275794Y-89843453D01*
X167275226Y-90493694D01*
X167523538Y-91094655D01*
X167982927Y-91554846D01*
X168583453Y-91804206D01*
X169233694Y-91804774D01*
X169834655Y-91556462D01*
X169926000Y-91465276D01*
X169926000Y-92684236D01*
X169837073Y-92595154D01*
X169236547Y-92345794D01*
X168586306Y-92345226D01*
X167985345Y-92593538D01*
X167525154Y-93052927D01*
X167275794Y-93653453D01*
X167275226Y-94303694D01*
X167523538Y-94904655D01*
X167982927Y-95364846D01*
X168583453Y-95614206D01*
X169233694Y-95614774D01*
X169721133Y-95413369D01*
X170821382Y-96513618D01*
X171109794Y-96706329D01*
X171450000Y-96774000D01*
X171871343Y-96774000D01*
X171955332Y-96899698D01*
X172337418Y-97155000D01*
X171955332Y-97410302D01*
X171871343Y-97536000D01*
X171818236Y-97536000D01*
X171443618Y-97161382D01*
X171424515Y-97148618D01*
X171155206Y-96968671D01*
X170815000Y-96901000D01*
X170311194Y-96901000D01*
X170296462Y-96865345D01*
X169837073Y-96405154D01*
X169236547Y-96155794D01*
X168586306Y-96155226D01*
X167985345Y-96403538D01*
X167525154Y-96862927D01*
X167275794Y-97463453D01*
X167275226Y-98113694D01*
X167523538Y-98714655D01*
X167982927Y-99174846D01*
X168583453Y-99424206D01*
X169233694Y-99424774D01*
X169834655Y-99176462D01*
X170294846Y-98717073D01*
X170310655Y-98679000D01*
X170446764Y-98679000D01*
X170821382Y-99053618D01*
X171109795Y-99246330D01*
X171450000Y-99314000D01*
X171871343Y-99314000D01*
X171955332Y-99439698D01*
X172337418Y-99695000D01*
X171955332Y-99950302D01*
X171871343Y-100076000D01*
X170815000Y-100076000D01*
X170474795Y-100143670D01*
X170186382Y-100336382D01*
X170072136Y-100450628D01*
X169837073Y-100215154D01*
X169236547Y-99965794D01*
X168586306Y-99965226D01*
X167985345Y-100213538D01*
X167525154Y-100672927D01*
X167275794Y-101273453D01*
X167275226Y-101923694D01*
X167523538Y-102524655D01*
X167982927Y-102984846D01*
X168583453Y-103234206D01*
X169233694Y-103234774D01*
X169834655Y-102986462D01*
X170294846Y-102527073D01*
X170322418Y-102460671D01*
X170520206Y-102421329D01*
X170808618Y-102228618D01*
X171183236Y-101854000D01*
X171871343Y-101854000D01*
X171955332Y-101979698D01*
X172337418Y-102235000D01*
X171955332Y-102490302D01*
X171644263Y-102955849D01*
X171535030Y-103505000D01*
X171644263Y-104054151D01*
X171955332Y-104519698D01*
X172333151Y-104772149D01*
X171900500Y-105120104D01*
X171630633Y-105613181D01*
X171613096Y-105695961D01*
X171735085Y-105918000D01*
X173228000Y-105918000D01*
X173228000Y-105898000D01*
X173482000Y-105898000D01*
X173482000Y-105918000D01*
X174974915Y-105918000D01*
X175096904Y-105695961D01*
X175079367Y-105613181D01*
X174809500Y-105120104D01*
X174376849Y-104772149D01*
X174754668Y-104519698D01*
X175065737Y-104054151D01*
X175174970Y-103505000D01*
X175065737Y-102955849D01*
X174754668Y-102490302D01*
X174372582Y-102235000D01*
X174754668Y-101979698D01*
X175065737Y-101514151D01*
X175174970Y-100965000D01*
X175065737Y-100415849D01*
X174754668Y-99950302D01*
X174372582Y-99695000D01*
X174754668Y-99439698D01*
X175065737Y-98974151D01*
X175174970Y-98425000D01*
X175065737Y-97875849D01*
X174754668Y-97410302D01*
X174372582Y-97155000D01*
X174754668Y-96899698D01*
X175065737Y-96434151D01*
X175174970Y-95885000D01*
X175065737Y-95335849D01*
X174754668Y-94870302D01*
X174372582Y-94615000D01*
X174754668Y-94359698D01*
X175065737Y-93894151D01*
X175174970Y-93345000D01*
X175065737Y-92795849D01*
X174754668Y-92330302D01*
X174372582Y-92075000D01*
X174754668Y-91819698D01*
X175065737Y-91354151D01*
X175174970Y-90805000D01*
X175065737Y-90255849D01*
X174754668Y-89790302D01*
X174372582Y-89535000D01*
X174754668Y-89279698D01*
X175065737Y-88814151D01*
X175174970Y-88265000D01*
X179155030Y-88265000D01*
X179264263Y-88814151D01*
X179575332Y-89279698D01*
X179957418Y-89535000D01*
X179575332Y-89790302D01*
X179264263Y-90255849D01*
X179155030Y-90805000D01*
X179264263Y-91354151D01*
X179575332Y-91819698D01*
X179957418Y-92075000D01*
X179575332Y-92330302D01*
X179264263Y-92795849D01*
X179155030Y-93345000D01*
X179264263Y-93894151D01*
X179575332Y-94359698D01*
X179957418Y-94615000D01*
X179575332Y-94870302D01*
X179264263Y-95335849D01*
X179155030Y-95885000D01*
X179264263Y-96434151D01*
X179575332Y-96899698D01*
X179957418Y-97155000D01*
X179575332Y-97410302D01*
X179264263Y-97875849D01*
X179155030Y-98425000D01*
X179264263Y-98974151D01*
X179575332Y-99439698D01*
X179957418Y-99695000D01*
X179575332Y-99950302D01*
X179264263Y-100415849D01*
X179155030Y-100965000D01*
X179264263Y-101514151D01*
X179575332Y-101979698D01*
X179953151Y-102232149D01*
X179520500Y-102580104D01*
X179250633Y-103073181D01*
X179233096Y-103155961D01*
X179355085Y-103378000D01*
X180848000Y-103378000D01*
X180848000Y-103358000D01*
X181102000Y-103358000D01*
X181102000Y-103378000D01*
X182594915Y-103378000D01*
X182716904Y-103155961D01*
X182699367Y-103073181D01*
X182429500Y-102580104D01*
X181996849Y-102232149D01*
X182374668Y-101979698D01*
X182458657Y-101854000D01*
X183146764Y-101854000D01*
X184156382Y-102863618D01*
X184444794Y-103056329D01*
X184785000Y-103124000D01*
X185288806Y-103124000D01*
X185303538Y-103159655D01*
X185762927Y-103619846D01*
X186363453Y-103869206D01*
X187013694Y-103869774D01*
X187614655Y-103621462D01*
X188074846Y-103162073D01*
X188324206Y-102561547D01*
X188324774Y-101911306D01*
X188076462Y-101310345D01*
X187617073Y-100850154D01*
X187016547Y-100600794D01*
X186366306Y-100600226D01*
X185765345Y-100848538D01*
X185305154Y-101307927D01*
X185289345Y-101346000D01*
X185153236Y-101346000D01*
X184143618Y-100336382D01*
X183855206Y-100143671D01*
X183515000Y-100076000D01*
X182458657Y-100076000D01*
X182374668Y-99950302D01*
X181992582Y-99695000D01*
X182374668Y-99439698D01*
X182458657Y-99314000D01*
X185288806Y-99314000D01*
X185303538Y-99349655D01*
X185762927Y-99809846D01*
X186363453Y-100059206D01*
X187013694Y-100059774D01*
X187614655Y-99811462D01*
X188074846Y-99352073D01*
X188324206Y-98751547D01*
X188324774Y-98101306D01*
X188076462Y-97500345D01*
X187617073Y-97040154D01*
X187016547Y-96790794D01*
X186366306Y-96790226D01*
X185765345Y-97038538D01*
X185305154Y-97497927D01*
X185289345Y-97536000D01*
X182458657Y-97536000D01*
X182374668Y-97410302D01*
X181992582Y-97155000D01*
X182374668Y-96899698D01*
X182491406Y-96724987D01*
X182585206Y-96706329D01*
X182873618Y-96513618D01*
X183883236Y-95504000D01*
X185288806Y-95504000D01*
X185303538Y-95539655D01*
X185762927Y-95999846D01*
X186363453Y-96249206D01*
X187013694Y-96249774D01*
X187614655Y-96001462D01*
X188074846Y-95542073D01*
X188324206Y-94941547D01*
X188324774Y-94291306D01*
X188076462Y-93690345D01*
X187617073Y-93230154D01*
X187016547Y-92980794D01*
X186366306Y-92980226D01*
X185765345Y-93228538D01*
X185305154Y-93687927D01*
X185289345Y-93726000D01*
X183515000Y-93726000D01*
X183174794Y-93793671D01*
X182905485Y-93973618D01*
X182886382Y-93986382D01*
X182151547Y-94721217D01*
X181992582Y-94615000D01*
X182374668Y-94359698D01*
X182491406Y-94184987D01*
X182585206Y-94166329D01*
X182873618Y-93973618D01*
X183930226Y-92917010D01*
X202115420Y-92917010D01*
X202115420Y-93218000D01*
X203073000Y-93218000D01*
X203073000Y-92126932D01*
X202906065Y-92000019D01*
X202522889Y-92187294D01*
X202246580Y-92511627D01*
X202115420Y-92917010D01*
X183930226Y-92917010D01*
X185153236Y-91694000D01*
X185288806Y-91694000D01*
X185303538Y-91729655D01*
X185762927Y-92189846D01*
X186363453Y-92439206D01*
X187013694Y-92439774D01*
X187614655Y-92191462D01*
X188074846Y-91732073D01*
X188324206Y-91131547D01*
X188324774Y-90481306D01*
X188076462Y-89880345D01*
X187617073Y-89420154D01*
X187016547Y-89170794D01*
X186366306Y-89170226D01*
X185765345Y-89418538D01*
X185305154Y-89877927D01*
X185289345Y-89916000D01*
X184785000Y-89916000D01*
X184444794Y-89983671D01*
X184156382Y-90176382D01*
X182151547Y-92181217D01*
X181992582Y-92075000D01*
X182374668Y-91819698D01*
X182685737Y-91354151D01*
X182794970Y-90805000D01*
X182685737Y-90255849D01*
X182374668Y-89790302D01*
X181992582Y-89535000D01*
X182374668Y-89279698D01*
X182685737Y-88814151D01*
X182794970Y-88265000D01*
X182693923Y-87757000D01*
X202115420Y-87757000D01*
X202115420Y-88057990D01*
X202246580Y-88463373D01*
X202522889Y-88787706D01*
X202906065Y-88974981D01*
X203073000Y-88848068D01*
X203073000Y-87757000D01*
X202115420Y-87757000D01*
X182693923Y-87757000D01*
X182685737Y-87715849D01*
X182374668Y-87250302D01*
X182302395Y-87202010D01*
X202115420Y-87202010D01*
X202115420Y-87503000D01*
X203073000Y-87503000D01*
X203073000Y-86411932D01*
X202906065Y-86285019D01*
X202522889Y-86472294D01*
X202246580Y-86796627D01*
X202115420Y-87202010D01*
X182302395Y-87202010D01*
X181909121Y-86939233D01*
X181359970Y-86830000D01*
X180590030Y-86830000D01*
X180040879Y-86939233D01*
X179575332Y-87250302D01*
X179264263Y-87715849D01*
X179155030Y-88265000D01*
X175174970Y-88265000D01*
X175065737Y-87715849D01*
X174754668Y-87250302D01*
X174289121Y-86939233D01*
X173739970Y-86830000D01*
X172970030Y-86830000D01*
X172420879Y-86939233D01*
X172338814Y-86994067D01*
X172301937Y-86808671D01*
X172271330Y-86654795D01*
X172078618Y-86366382D01*
X171443618Y-85731382D01*
X171155206Y-85538671D01*
X170815000Y-85471000D01*
X170311194Y-85471000D01*
X170296462Y-85435345D01*
X169837073Y-84975154D01*
X169236547Y-84725794D01*
X168586306Y-84725226D01*
X167985345Y-84973538D01*
X167525154Y-85432927D01*
X167275794Y-86033453D01*
X167275226Y-86683694D01*
X160384208Y-86683694D01*
X160384774Y-86036306D01*
X160369031Y-85998205D01*
X162293236Y-84074000D01*
X201930000Y-84074000D01*
X202270206Y-84006329D01*
X202558618Y-83813618D01*
X205098618Y-81273618D01*
X205291329Y-80985206D01*
X205359000Y-80645000D01*
X205359000Y-76266929D01*
X205740000Y-76342715D01*
X206155051Y-76260156D01*
X206506914Y-76025049D01*
X206644591Y-75819000D01*
X218440000Y-75819000D01*
X218780206Y-75751329D01*
X219068618Y-75558618D01*
X219443236Y-75184000D01*
X226936560Y-75184000D01*
X226936560Y-77216000D01*
X226980838Y-77451317D01*
X227119910Y-77667441D01*
X227332110Y-77812431D01*
X227584000Y-77863440D01*
X229616000Y-77863440D01*
X229851317Y-77819162D01*
X230067441Y-77680090D01*
X230164899Y-77537456D01*
X230212637Y-77585278D01*
X230813352Y-77834716D01*
X231463795Y-77835284D01*
X232064943Y-77586894D01*
X232410199Y-77242241D01*
X232752637Y-77585278D01*
X233353352Y-77834716D01*
X234003795Y-77835284D01*
X234604943Y-77586894D01*
X234950199Y-77242241D01*
X235292637Y-77585278D01*
X235893352Y-77834716D01*
X236543795Y-77835284D01*
X237144943Y-77586894D01*
X237490199Y-77242241D01*
X237832637Y-77585278D01*
X238433352Y-77834716D01*
X239083795Y-77835284D01*
X239684943Y-77586894D01*
X240030199Y-77242241D01*
X240372637Y-77585278D01*
X240973352Y-77834716D01*
X241623795Y-77835284D01*
X242224943Y-77586894D01*
X242685278Y-77127363D01*
X242934716Y-76526648D01*
X242935284Y-75876205D01*
X242686894Y-75275057D01*
X242227363Y-74814722D01*
X241626648Y-74565284D01*
X240976205Y-74564716D01*
X240375057Y-74813106D01*
X240029801Y-75157759D01*
X239687363Y-74814722D01*
X239086648Y-74565284D01*
X238436205Y-74564716D01*
X237835057Y-74813106D01*
X237489801Y-75157759D01*
X237147363Y-74814722D01*
X236546648Y-74565284D01*
X235896205Y-74564716D01*
X235295057Y-74813106D01*
X234949801Y-75157759D01*
X234607363Y-74814722D01*
X234006648Y-74565284D01*
X233356205Y-74564716D01*
X232755057Y-74813106D01*
X232409801Y-75157759D01*
X232067363Y-74814722D01*
X231466648Y-74565284D01*
X230816205Y-74564716D01*
X230215057Y-74813106D01*
X230164437Y-74863638D01*
X230080090Y-74732559D01*
X229867890Y-74587569D01*
X229616000Y-74536560D01*
X227584000Y-74536560D01*
X227348683Y-74580838D01*
X227132559Y-74719910D01*
X226987569Y-74932110D01*
X226936560Y-75184000D01*
X219443236Y-75184000D01*
X223888236Y-70739000D01*
X229870000Y-70739000D01*
X230210206Y-70671329D01*
X230498618Y-70478618D01*
X238397434Y-62579802D01*
X238433352Y-62594716D01*
X239083795Y-62595284D01*
X239684943Y-62346894D01*
X240030199Y-62002241D01*
X240372637Y-62345278D01*
X240973352Y-62594716D01*
X241623795Y-62595284D01*
X242224943Y-62346894D01*
X242685278Y-61887363D01*
X242701208Y-61849000D01*
X242836764Y-61849000D01*
X243586000Y-62598236D01*
X243586000Y-85471000D01*
X242701745Y-85471000D01*
X242686894Y-85435057D01*
X242227363Y-84974722D01*
X241626648Y-84725284D01*
X240976205Y-84724716D01*
X240375057Y-84973106D01*
X240029801Y-85317759D01*
X239687363Y-84974722D01*
X239086648Y-84725284D01*
X238436205Y-84724716D01*
X237835057Y-84973106D01*
X237489801Y-85317759D01*
X237147363Y-84974722D01*
X236546648Y-84725284D01*
X235896205Y-84724716D01*
X235295057Y-84973106D01*
X234949801Y-85317759D01*
X234607363Y-84974722D01*
X234006648Y-84725284D01*
X233356205Y-84724716D01*
X232755057Y-84973106D01*
X232409801Y-85317759D01*
X232067363Y-84974722D01*
X231466648Y-84725284D01*
X230816205Y-84724716D01*
X230215057Y-84973106D01*
X229869801Y-85317759D01*
X229527363Y-84974722D01*
X228926648Y-84725284D01*
X228276205Y-84724716D01*
X227675057Y-84973106D01*
X227214722Y-85432637D01*
X227198792Y-85471000D01*
X218440000Y-85471000D01*
X218099794Y-85538671D01*
X217811382Y-85731382D01*
X216801764Y-86741000D01*
X206644591Y-86741000D01*
X206506914Y-86534951D01*
X206155051Y-86299844D01*
X205740000Y-86217285D01*
X205324949Y-86299844D01*
X205105000Y-86446809D01*
X204885051Y-86299844D01*
X204470000Y-86217285D01*
X204054949Y-86299844D01*
X203830762Y-86449641D01*
X203493935Y-86285019D01*
X203327000Y-86411932D01*
X203327000Y-87503000D01*
X203347000Y-87503000D01*
X203347000Y-87757000D01*
X203327000Y-87757000D01*
X203327000Y-88848068D01*
X203493935Y-88974981D01*
X203581000Y-88932428D01*
X203581000Y-89166764D01*
X202831764Y-89916000D01*
X198251194Y-89916000D01*
X198236462Y-89880345D01*
X197777073Y-89420154D01*
X197176547Y-89170794D01*
X196526306Y-89170226D01*
X195925345Y-89418538D01*
X195465154Y-89877927D01*
X195215794Y-90478453D01*
X195215226Y-91128694D01*
X195463538Y-91729655D01*
X195922927Y-92189846D01*
X196523453Y-92439206D01*
X197173694Y-92439774D01*
X197774655Y-92191462D01*
X198234846Y-91732073D01*
X198250655Y-91694000D01*
X203200000Y-91694000D01*
X203540206Y-91626329D01*
X203828618Y-91433618D01*
X205098618Y-90163618D01*
X205179212Y-90043000D01*
X205291329Y-89875206D01*
X205359000Y-89535000D01*
X205359000Y-88966929D01*
X205740000Y-89042715D01*
X206155051Y-88960156D01*
X206506914Y-88725049D01*
X206644591Y-88519000D01*
X217170000Y-88519000D01*
X217510206Y-88451329D01*
X217798618Y-88258618D01*
X218808236Y-87249000D01*
X227198255Y-87249000D01*
X227213106Y-87284943D01*
X227672637Y-87745278D01*
X228273352Y-87994716D01*
X228923795Y-87995284D01*
X229524943Y-87746894D01*
X229870199Y-87402241D01*
X230212637Y-87745278D01*
X230813352Y-87994716D01*
X231463795Y-87995284D01*
X232064943Y-87746894D01*
X232410199Y-87402241D01*
X232752637Y-87745278D01*
X233335472Y-87987292D01*
X228866764Y-92456000D01*
X206644591Y-92456000D01*
X206506914Y-92249951D01*
X206155051Y-92014844D01*
X205740000Y-91932285D01*
X205324949Y-92014844D01*
X205105000Y-92161809D01*
X204885051Y-92014844D01*
X204470000Y-91932285D01*
X204054949Y-92014844D01*
X203830762Y-92164641D01*
X203493935Y-92000019D01*
X203327000Y-92126932D01*
X203327000Y-93218000D01*
X203347000Y-93218000D01*
X203347000Y-93472000D01*
X203327000Y-93472000D01*
X203327000Y-93492000D01*
X203073000Y-93492000D01*
X203073000Y-93472000D01*
X202115420Y-93472000D01*
X202115420Y-93772990D01*
X202246580Y-94178373D01*
X202402165Y-94361000D01*
X200393236Y-94361000D01*
X200018618Y-93986382D01*
X199999515Y-93973618D01*
X199730206Y-93793671D01*
X199390000Y-93726000D01*
X198251194Y-93726000D01*
X198236462Y-93690345D01*
X197777073Y-93230154D01*
X197176547Y-92980794D01*
X196526306Y-92980226D01*
X195925345Y-93228538D01*
X195465154Y-93687927D01*
X195215794Y-94288453D01*
X195215226Y-94938694D01*
X195463538Y-95539655D01*
X195922927Y-95999846D01*
X196523453Y-96249206D01*
X197173694Y-96249774D01*
X197774655Y-96001462D01*
X198234846Y-95542073D01*
X198250655Y-95504000D01*
X199021764Y-95504000D01*
X199396382Y-95878618D01*
X199684795Y-96071330D01*
X200025000Y-96139000D01*
X203835000Y-96139000D01*
X204175206Y-96071329D01*
X204463618Y-95878618D01*
X205098618Y-95243618D01*
X205291330Y-94955205D01*
X205346194Y-94679382D01*
X205740000Y-94757715D01*
X206155051Y-94675156D01*
X206506914Y-94440049D01*
X206644591Y-94234000D01*
X221373764Y-94234000D01*
X216801764Y-98806000D01*
X206644591Y-98806000D01*
X206506914Y-98599951D01*
X206155051Y-98364844D01*
X205740000Y-98282285D01*
X205346194Y-98360618D01*
X205291330Y-98084795D01*
X205098618Y-97796382D01*
X204463618Y-97161382D01*
X204444515Y-97148618D01*
X204175206Y-96968671D01*
X203835000Y-96901000D01*
X199390000Y-96901000D01*
X199049795Y-96968670D01*
X198761382Y-97161382D01*
X198386764Y-97536000D01*
X198251194Y-97536000D01*
X198236462Y-97500345D01*
X197777073Y-97040154D01*
X197176547Y-96790794D01*
X196526306Y-96790226D01*
X195925345Y-97038538D01*
X195465154Y-97497927D01*
X195215794Y-98098453D01*
X195215226Y-98748694D01*
X195463538Y-99349655D01*
X195922927Y-99809846D01*
X196523453Y-100059206D01*
X197173694Y-100059774D01*
X197749151Y-99822000D01*
X202115420Y-99822000D01*
X202115420Y-100122990D01*
X202246580Y-100528373D01*
X202522889Y-100852706D01*
X202906065Y-101039981D01*
X203073000Y-100913068D01*
X203073000Y-99822000D01*
X202115420Y-99822000D01*
X197749151Y-99822000D01*
X197774655Y-99811462D01*
X198234846Y-99352073D01*
X198250655Y-99314000D01*
X198755000Y-99314000D01*
X199095206Y-99246329D01*
X199383618Y-99053618D01*
X199758236Y-98679000D01*
X202402165Y-98679000D01*
X202246580Y-98861627D01*
X202115420Y-99267010D01*
X202115420Y-99568000D01*
X203073000Y-99568000D01*
X203073000Y-99548000D01*
X203327000Y-99548000D01*
X203327000Y-99568000D01*
X203347000Y-99568000D01*
X203347000Y-99822000D01*
X203327000Y-99822000D01*
X203327000Y-100913068D01*
X203493935Y-101039981D01*
X203830762Y-100875359D01*
X204054949Y-101025156D01*
X204470000Y-101107715D01*
X204885051Y-101025156D01*
X205105000Y-100878191D01*
X205324949Y-101025156D01*
X205740000Y-101107715D01*
X206155051Y-101025156D01*
X206506914Y-100790049D01*
X206644591Y-100584000D01*
X217170000Y-100584000D01*
X226936560Y-100584000D01*
X226936560Y-102616000D01*
X226980838Y-102851317D01*
X227119910Y-103067441D01*
X227332110Y-103212431D01*
X227584000Y-103263440D01*
X229616000Y-103263440D01*
X229851317Y-103219162D01*
X230067441Y-103080090D01*
X230164899Y-102937456D01*
X230212637Y-102985278D01*
X230813352Y-103234716D01*
X231463795Y-103235284D01*
X232064943Y-102986894D01*
X232410199Y-102642241D01*
X232752637Y-102985278D01*
X233353352Y-103234716D01*
X234003795Y-103235284D01*
X234604943Y-102986894D01*
X234950199Y-102642241D01*
X235292637Y-102985278D01*
X235893352Y-103234716D01*
X236543795Y-103235284D01*
X237144943Y-102986894D01*
X237490199Y-102642241D01*
X237832637Y-102985278D01*
X238433352Y-103234716D01*
X239083795Y-103235284D01*
X239684943Y-102986894D01*
X240030199Y-102642241D01*
X240372637Y-102985278D01*
X240973352Y-103234716D01*
X241623795Y-103235284D01*
X242224943Y-102986894D01*
X242685278Y-102527363D01*
X242934716Y-101926648D01*
X242935284Y-101276205D01*
X242686894Y-100675057D01*
X242227363Y-100214722D01*
X241626648Y-99965284D01*
X240976205Y-99964716D01*
X240375057Y-100213106D01*
X240029801Y-100557759D01*
X239687363Y-100214722D01*
X239086648Y-99965284D01*
X238436205Y-99964716D01*
X237835057Y-100213106D01*
X237489801Y-100557759D01*
X237147363Y-100214722D01*
X236546648Y-99965284D01*
X235896205Y-99964716D01*
X235295057Y-100213106D01*
X234949801Y-100557759D01*
X234607363Y-100214722D01*
X234006648Y-99965284D01*
X233356205Y-99964716D01*
X232755057Y-100213106D01*
X232409801Y-100557759D01*
X232067363Y-100214722D01*
X231466648Y-99965284D01*
X230816205Y-99964716D01*
X230215057Y-100213106D01*
X230164437Y-100263638D01*
X230080090Y-100132559D01*
X229867890Y-99987569D01*
X229616000Y-99936560D01*
X227584000Y-99936560D01*
X227348683Y-99980838D01*
X227132559Y-100119910D01*
X226987569Y-100332110D01*
X226936560Y-100584000D01*
X217170000Y-100584000D01*
X217510206Y-100516329D01*
X217798618Y-100323618D01*
X222618236Y-95504000D01*
X230505000Y-95504000D01*
X230845206Y-95436329D01*
X231133618Y-95243618D01*
X238397434Y-87979802D01*
X238433352Y-87994716D01*
X239083795Y-87995284D01*
X239684943Y-87746894D01*
X240030199Y-87402241D01*
X240372637Y-87745278D01*
X240973352Y-87994716D01*
X241623795Y-87995284D01*
X242224943Y-87746894D01*
X242685278Y-87287363D01*
X242701208Y-87249000D01*
X243586000Y-87249000D01*
X243586000Y-110871000D01*
X242701745Y-110871000D01*
X242686894Y-110835057D01*
X242227363Y-110374722D01*
X241626648Y-110125284D01*
X240976205Y-110124716D01*
X240375057Y-110373106D01*
X240029801Y-110717759D01*
X239687363Y-110374722D01*
X239086648Y-110125284D01*
X238436205Y-110124716D01*
X237835057Y-110373106D01*
X237489801Y-110717759D01*
X237147363Y-110374722D01*
X236546648Y-110125284D01*
X235896205Y-110124716D01*
X235295057Y-110373106D01*
X234949801Y-110717759D01*
X234607363Y-110374722D01*
X234006648Y-110125284D01*
X233356205Y-110124716D01*
X232755057Y-110373106D01*
X232409801Y-110717759D01*
X232067363Y-110374722D01*
X231466648Y-110125284D01*
X230816205Y-110124716D01*
X230215057Y-110373106D01*
X229869801Y-110717759D01*
X229527363Y-110374722D01*
X228926648Y-110125284D01*
X228276205Y-110124716D01*
X227675057Y-110373106D01*
X227214722Y-110832637D01*
X227198792Y-110871000D01*
X221615000Y-110871000D01*
X221274794Y-110938671D01*
X220995933Y-111125000D01*
X220986382Y-111131382D01*
X219976764Y-112141000D01*
X206644591Y-112141000D01*
X206506914Y-111934951D01*
X206155051Y-111699844D01*
X205740000Y-111617285D01*
X205359000Y-111693071D01*
X205359000Y-107950000D01*
X205291330Y-107609795D01*
X205098618Y-107321382D01*
X199383618Y-101606382D01*
X199364515Y-101593618D01*
X199095206Y-101413671D01*
X198755000Y-101346000D01*
X198251194Y-101346000D01*
X198236462Y-101310345D01*
X197777073Y-100850154D01*
X197176547Y-100600794D01*
X196526306Y-100600226D01*
X195925345Y-100848538D01*
X195465154Y-101307927D01*
X195215794Y-101908453D01*
X195215226Y-102558694D01*
X195463538Y-103159655D01*
X195922927Y-103619846D01*
X196523453Y-103869206D01*
X197173694Y-103869774D01*
X197774655Y-103621462D01*
X198234846Y-103162073D01*
X198250655Y-103124000D01*
X198386764Y-103124000D01*
X203581000Y-108318236D01*
X203581000Y-111727572D01*
X203493935Y-111685019D01*
X203327000Y-111811932D01*
X203327000Y-112903000D01*
X203347000Y-112903000D01*
X203347000Y-113157000D01*
X203327000Y-113157000D01*
X203327000Y-114248068D01*
X203493935Y-114374981D01*
X203830762Y-114210359D01*
X204054949Y-114360156D01*
X204470000Y-114442715D01*
X204885051Y-114360156D01*
X205105000Y-114213191D01*
X205324949Y-114360156D01*
X205740000Y-114442715D01*
X206155051Y-114360156D01*
X206506914Y-114125049D01*
X206644591Y-113919000D01*
X220345000Y-113919000D01*
X220685206Y-113851329D01*
X220973618Y-113658618D01*
X221983236Y-112649000D01*
X227198255Y-112649000D01*
X227213106Y-112684943D01*
X227672637Y-113145278D01*
X228273352Y-113394716D01*
X228923795Y-113395284D01*
X229524943Y-113146894D01*
X229870199Y-112802241D01*
X230212637Y-113145278D01*
X230813352Y-113394716D01*
X231463795Y-113395284D01*
X232064943Y-113146894D01*
X232410199Y-112802241D01*
X232752637Y-113145278D01*
X233335472Y-113387292D01*
X228231764Y-118491000D01*
X206644591Y-118491000D01*
X206506914Y-118284951D01*
X206155051Y-118049844D01*
X205740000Y-117967285D01*
X205324949Y-118049844D01*
X205105000Y-118196809D01*
X204885051Y-118049844D01*
X204470000Y-117967285D01*
X204054949Y-118049844D01*
X203830762Y-118199641D01*
X203493935Y-118035019D01*
X203327000Y-118161932D01*
X203327000Y-119253000D01*
X203347000Y-119253000D01*
X203347000Y-119507000D01*
X203327000Y-119507000D01*
X203327000Y-119527000D01*
X203073000Y-119527000D01*
X203073000Y-119507000D01*
X202115420Y-119507000D01*
X202115420Y-119807990D01*
X202246580Y-120213373D01*
X202522889Y-120537706D01*
X202906065Y-120724981D01*
X203072998Y-120598070D01*
X203072998Y-120765570D01*
X203097194Y-120765570D01*
X202831764Y-121031000D01*
X200025000Y-121031000D01*
X199684794Y-121098671D01*
X199396382Y-121291382D01*
X197116764Y-123571000D01*
X161023236Y-123571000D01*
X160274000Y-122821764D01*
X160274000Y-122051194D01*
X160309655Y-122036462D01*
X160769846Y-121577073D01*
X161019206Y-120976547D01*
X161019774Y-120326306D01*
X160771462Y-119725345D01*
X160312073Y-119265154D01*
X159711547Y-119015794D01*
X159061306Y-119015226D01*
X158460345Y-119263538D01*
X158000154Y-119722927D01*
X157750794Y-120323453D01*
X157750226Y-120973694D01*
X157998538Y-121574655D01*
X158457927Y-122034846D01*
X158496000Y-122050655D01*
X158496000Y-123190000D01*
X158563671Y-123530206D01*
X158654996Y-123666883D01*
X158756382Y-123818618D01*
X160026382Y-125088618D01*
X160314794Y-125281329D01*
X160655000Y-125349000D01*
X197485000Y-125349000D01*
X197721235Y-125302010D01*
X202115420Y-125302010D01*
X202115420Y-125603000D01*
X203073000Y-125603000D01*
X203073000Y-124511932D01*
X202906065Y-124385019D01*
X202522889Y-124572294D01*
X202246580Y-124896627D01*
X202115420Y-125302010D01*
X197721235Y-125302010D01*
X197825206Y-125281329D01*
X198113618Y-125088618D01*
X200393236Y-122809000D01*
X203200000Y-122809000D01*
X203540206Y-122741329D01*
X203828618Y-122548618D01*
X205098618Y-121278618D01*
X205200004Y-121126883D01*
X205291329Y-120990206D01*
X205346194Y-120714382D01*
X205740000Y-120792715D01*
X206155051Y-120710156D01*
X206506914Y-120475049D01*
X206644591Y-120269000D01*
X228600000Y-120269000D01*
X228940206Y-120201329D01*
X229228618Y-120008618D01*
X235857434Y-113379802D01*
X235875472Y-113387292D01*
X228866764Y-120396000D01*
X219710000Y-120396000D01*
X219369794Y-120463671D01*
X219081382Y-120656382D01*
X214896764Y-124841000D01*
X206644591Y-124841000D01*
X206506914Y-124634951D01*
X206155051Y-124399844D01*
X205740000Y-124317285D01*
X205324949Y-124399844D01*
X205105000Y-124546809D01*
X204885051Y-124399844D01*
X204470000Y-124317285D01*
X204054949Y-124399844D01*
X203830762Y-124549641D01*
X203493935Y-124385019D01*
X203327000Y-124511932D01*
X203327000Y-125603000D01*
X203347000Y-125603000D01*
X203347000Y-125857000D01*
X203327000Y-125857000D01*
X203327000Y-126948068D01*
X203493935Y-127074981D01*
X203581000Y-127032428D01*
X203581000Y-127381000D01*
X162293236Y-127381000D01*
X160769236Y-125857000D01*
X202115420Y-125857000D01*
X202115420Y-126157990D01*
X202246580Y-126563373D01*
X202522889Y-126887706D01*
X202906065Y-127074981D01*
X203073000Y-126948068D01*
X203073000Y-125857000D01*
X202115420Y-125857000D01*
X160769236Y-125857000D01*
X157734000Y-122821764D01*
X157734000Y-117843236D01*
X157848236Y-117729000D01*
X157983806Y-117729000D01*
X157998538Y-117764655D01*
X158457927Y-118224846D01*
X159058453Y-118474206D01*
X159708694Y-118474774D01*
X160309655Y-118226462D01*
X160769846Y-117767073D01*
X161019206Y-117166547D01*
X161019774Y-116516306D01*
X160771462Y-115915345D01*
X160312073Y-115455154D01*
X159711547Y-115205794D01*
X159061306Y-115205226D01*
X158460345Y-115453538D01*
X158000154Y-115912927D01*
X157984345Y-115951000D01*
X157480000Y-115951000D01*
X157139795Y-116018670D01*
X156851382Y-116211382D01*
X156216382Y-116846382D01*
X156023671Y-117134794D01*
X155956000Y-117475000D01*
X155956000Y-123190000D01*
X156023671Y-123530206D01*
X156114996Y-123666883D01*
X156216382Y-123818618D01*
X161296382Y-128898618D01*
X161584794Y-129091329D01*
X161925000Y-129159000D01*
X204470000Y-129159000D01*
X204810206Y-129091329D01*
X205098618Y-128898618D01*
X205291329Y-128610206D01*
X205359000Y-128270000D01*
X205359000Y-127066929D01*
X205740000Y-127142715D01*
X206155051Y-127060156D01*
X206506914Y-126825049D01*
X206644591Y-126619000D01*
X215265000Y-126619000D01*
X215605206Y-126551329D01*
X215893618Y-126358618D01*
X216268236Y-125984000D01*
X226936560Y-125984000D01*
X226936560Y-128016000D01*
X226980838Y-128251317D01*
X227119910Y-128467441D01*
X227332110Y-128612431D01*
X227584000Y-128663440D01*
X229616000Y-128663440D01*
X229851317Y-128619162D01*
X230067441Y-128480090D01*
X230164899Y-128337456D01*
X230212637Y-128385278D01*
X230813352Y-128634716D01*
X231463795Y-128635284D01*
X232064943Y-128386894D01*
X232410199Y-128042241D01*
X232752637Y-128385278D01*
X233353352Y-128634716D01*
X234003795Y-128635284D01*
X234604943Y-128386894D01*
X234950199Y-128042241D01*
X235292637Y-128385278D01*
X235893352Y-128634716D01*
X236543795Y-128635284D01*
X237144943Y-128386894D01*
X237490199Y-128042241D01*
X237832637Y-128385278D01*
X238433352Y-128634716D01*
X239083795Y-128635284D01*
X239684943Y-128386894D01*
X240030199Y-128042241D01*
X240372637Y-128385278D01*
X240973352Y-128634716D01*
X241623795Y-128635284D01*
X242224943Y-128386894D01*
X242685278Y-127927363D01*
X242934716Y-127326648D01*
X242935284Y-126676205D01*
X242686894Y-126075057D01*
X242227363Y-125614722D01*
X241626648Y-125365284D01*
X240976205Y-125364716D01*
X240375057Y-125613106D01*
X240029801Y-125957759D01*
X239687363Y-125614722D01*
X239086648Y-125365284D01*
X238436205Y-125364716D01*
X237835057Y-125613106D01*
X237489801Y-125957759D01*
X237147363Y-125614722D01*
X236546648Y-125365284D01*
X235896205Y-125364716D01*
X235295057Y-125613106D01*
X234949801Y-125957759D01*
X234607363Y-125614722D01*
X234006648Y-125365284D01*
X233356205Y-125364716D01*
X232755057Y-125613106D01*
X232409801Y-125957759D01*
X232067363Y-125614722D01*
X231466648Y-125365284D01*
X230816205Y-125364716D01*
X230215057Y-125613106D01*
X230164437Y-125663638D01*
X230080090Y-125532559D01*
X229867890Y-125387569D01*
X229616000Y-125336560D01*
X227584000Y-125336560D01*
X227348683Y-125380838D01*
X227132559Y-125519910D01*
X226987569Y-125732110D01*
X226936560Y-125984000D01*
X216268236Y-125984000D01*
X220078236Y-122174000D01*
X229235000Y-122174000D01*
X229575206Y-122106329D01*
X229863618Y-121913618D01*
X238397434Y-113379802D01*
X238433352Y-113394716D01*
X239083795Y-113395284D01*
X239684943Y-113146894D01*
X240030199Y-112802241D01*
X240372637Y-113145278D01*
X240973352Y-113394716D01*
X241623795Y-113395284D01*
X242224943Y-113146894D01*
X242685278Y-112687363D01*
X242701208Y-112649000D01*
X243586000Y-112649000D01*
X243586000Y-135521764D01*
X242836764Y-136271000D01*
X242701745Y-136271000D01*
X242686894Y-136235057D01*
X242227363Y-135774722D01*
X241626648Y-135525284D01*
X240976205Y-135524716D01*
X240375057Y-135773106D01*
X240029801Y-136117759D01*
X239687363Y-135774722D01*
X239086648Y-135525284D01*
X238436205Y-135524716D01*
X237835057Y-135773106D01*
X237489801Y-136117759D01*
X237147363Y-135774722D01*
X236546648Y-135525284D01*
X235896205Y-135524716D01*
X235295057Y-135773106D01*
X234949801Y-136117759D01*
X234607363Y-135774722D01*
X234006648Y-135525284D01*
X233356205Y-135524716D01*
X232755057Y-135773106D01*
X232409801Y-136117759D01*
X232067363Y-135774722D01*
X231466648Y-135525284D01*
X230816205Y-135524716D01*
X230215057Y-135773106D01*
X229869801Y-136117759D01*
X229527363Y-135774722D01*
X228926648Y-135525284D01*
X228276205Y-135524716D01*
X227675057Y-135773106D01*
X227214722Y-136232637D01*
X227198792Y-136271000D01*
X219710000Y-136271000D01*
X219369794Y-136338671D01*
X219100485Y-136518618D01*
X219081382Y-136531382D01*
X218071764Y-137541000D01*
X206644591Y-137541000D01*
X206506914Y-137334951D01*
X206155051Y-137099844D01*
X205740000Y-137017285D01*
X205359000Y-137093071D01*
X205359000Y-132080000D01*
X205291329Y-131739794D01*
X205098618Y-131451382D01*
X203193618Y-129546382D01*
X202905206Y-129353671D01*
X202565000Y-129286000D01*
X161658236Y-129286000D01*
X155829000Y-123456764D01*
X155829000Y-115303236D01*
X157213236Y-113919000D01*
X157983806Y-113919000D01*
X157998538Y-113954655D01*
X158457927Y-114414846D01*
X159058453Y-114664206D01*
X159708694Y-114664774D01*
X160309655Y-114416462D01*
X160769846Y-113957073D01*
X161019206Y-113356547D01*
X161019208Y-113353694D01*
X167910226Y-113353694D01*
X168158538Y-113954655D01*
X168617927Y-114414846D01*
X169218453Y-114664206D01*
X169868694Y-114664774D01*
X170469655Y-114416462D01*
X170707147Y-114179383D01*
X170821382Y-114293618D01*
X171109795Y-114486330D01*
X171450000Y-114554000D01*
X171871343Y-114554000D01*
X171955332Y-114679698D01*
X172337418Y-114935000D01*
X171955332Y-115190302D01*
X171871343Y-115316000D01*
X171450000Y-115316000D01*
X171109795Y-115383670D01*
X170821382Y-115576382D01*
X170707136Y-115690628D01*
X170472073Y-115455154D01*
X169871547Y-115205794D01*
X169221306Y-115205226D01*
X168620345Y-115453538D01*
X168160154Y-115912927D01*
X167910794Y-116513453D01*
X167910226Y-117163694D01*
X168158538Y-117764655D01*
X168617927Y-118224846D01*
X169218453Y-118474206D01*
X169868694Y-118474774D01*
X170469655Y-118226462D01*
X170929846Y-117767073D01*
X170957418Y-117700671D01*
X171155206Y-117661329D01*
X171443618Y-117468618D01*
X171818236Y-117094000D01*
X171871343Y-117094000D01*
X171955332Y-117219698D01*
X172337418Y-117475000D01*
X171955332Y-117730302D01*
X171838594Y-117905012D01*
X171744795Y-117923670D01*
X171456382Y-118116382D01*
X170821382Y-118751382D01*
X170628671Y-119039794D01*
X170565273Y-119358517D01*
X170472073Y-119265154D01*
X169871547Y-119015794D01*
X169221306Y-119015226D01*
X168620345Y-119263538D01*
X168160154Y-119722927D01*
X167910794Y-120323453D01*
X167910226Y-120973694D01*
X168158538Y-121574655D01*
X168617927Y-122034846D01*
X169218453Y-122284206D01*
X169868694Y-122284774D01*
X170469655Y-122036462D01*
X170929846Y-121577073D01*
X170957418Y-121510671D01*
X171155206Y-121471329D01*
X171443618Y-121278618D01*
X171559313Y-121162923D01*
X171535030Y-121285000D01*
X171644263Y-121834151D01*
X171955332Y-122299698D01*
X172420879Y-122610767D01*
X172970030Y-122720000D01*
X173739970Y-122720000D01*
X174289121Y-122610767D01*
X174754668Y-122299698D01*
X175065737Y-121834151D01*
X175174970Y-121285000D01*
X175065737Y-120735849D01*
X174754668Y-120270302D01*
X174372582Y-120015000D01*
X174754668Y-119759698D01*
X175065737Y-119294151D01*
X175174970Y-118745000D01*
X175065737Y-118195849D01*
X174754668Y-117730302D01*
X174372582Y-117475000D01*
X174754668Y-117219698D01*
X175065737Y-116754151D01*
X175174970Y-116205000D01*
X175065737Y-115655849D01*
X174754668Y-115190302D01*
X174372582Y-114935000D01*
X174754668Y-114679698D01*
X175065737Y-114214151D01*
X175174970Y-113665000D01*
X175065737Y-113115849D01*
X174754668Y-112650302D01*
X174372582Y-112395000D01*
X174754668Y-112139698D01*
X175065737Y-111674151D01*
X175174970Y-111125000D01*
X175065737Y-110575849D01*
X174754668Y-110110302D01*
X174372582Y-109855000D01*
X174754668Y-109599698D01*
X175065737Y-109134151D01*
X175174970Y-108585000D01*
X175065737Y-108035849D01*
X174754668Y-107570302D01*
X174376849Y-107317851D01*
X174809500Y-106969896D01*
X175079367Y-106476819D01*
X175096904Y-106394039D01*
X174974915Y-106172000D01*
X173482000Y-106172000D01*
X173482000Y-106192000D01*
X173228000Y-106192000D01*
X173228000Y-106172000D01*
X171735085Y-106172000D01*
X171613096Y-106394039D01*
X171630633Y-106476819D01*
X171900500Y-106969896D01*
X172333151Y-107317851D01*
X171955332Y-107570302D01*
X171644263Y-108035849D01*
X171535030Y-108585000D01*
X171644263Y-109134151D01*
X171955332Y-109599698D01*
X172337418Y-109855000D01*
X171955332Y-110110302D01*
X171644263Y-110575849D01*
X171535030Y-111125000D01*
X171644263Y-111674151D01*
X171955332Y-112139698D01*
X172337418Y-112395000D01*
X171955332Y-112650302D01*
X171871343Y-112776000D01*
X171818236Y-112776000D01*
X171443618Y-112401382D01*
X171424515Y-112388618D01*
X171155206Y-112208671D01*
X170957943Y-112169433D01*
X170931462Y-112105345D01*
X170472073Y-111645154D01*
X169871547Y-111395794D01*
X169221306Y-111395226D01*
X168620345Y-111643538D01*
X168160154Y-112102927D01*
X167910794Y-112703453D01*
X167910226Y-113353694D01*
X161019208Y-113353694D01*
X161019774Y-112706306D01*
X160771462Y-112105345D01*
X160312073Y-111645154D01*
X159711547Y-111395794D01*
X159061306Y-111395226D01*
X158460345Y-111643538D01*
X158000154Y-112102927D01*
X157984345Y-112141000D01*
X156845000Y-112141000D01*
X156504794Y-112208671D01*
X156235485Y-112388618D01*
X156216382Y-112401382D01*
X154311382Y-114306382D01*
X154118671Y-114594794D01*
X154051000Y-114935000D01*
X154051000Y-123825000D01*
X154118671Y-124165206D01*
X154128326Y-124179655D01*
X154311382Y-124453618D01*
X160661382Y-130803618D01*
X160949794Y-130996329D01*
X161290000Y-131064000D01*
X202196764Y-131064000D01*
X203581000Y-132448236D01*
X203581000Y-137127572D01*
X203493935Y-137085019D01*
X203327000Y-137211932D01*
X203327000Y-138303000D01*
X203347000Y-138303000D01*
X203347000Y-138557000D01*
X203327000Y-138557000D01*
X203327000Y-139648068D01*
X203493935Y-139774981D01*
X203830762Y-139610359D01*
X204054949Y-139760156D01*
X204470000Y-139842715D01*
X204885051Y-139760156D01*
X205105000Y-139613191D01*
X205324949Y-139760156D01*
X205740000Y-139842715D01*
X206155051Y-139760156D01*
X206506914Y-139525049D01*
X206644591Y-139319000D01*
X218440000Y-139319000D01*
X218780206Y-139251329D01*
X219068618Y-139058618D01*
X220078236Y-138049000D01*
X227198255Y-138049000D01*
X227213106Y-138084943D01*
X227672637Y-138545278D01*
X228273352Y-138794716D01*
X228923795Y-138795284D01*
X229524943Y-138546894D01*
X229870199Y-138202241D01*
X230212637Y-138545278D01*
X230813352Y-138794716D01*
X231463795Y-138795284D01*
X232064943Y-138546894D01*
X232410199Y-138202241D01*
X232752637Y-138545278D01*
X233335472Y-138787292D01*
X228231764Y-143891000D01*
X206644591Y-143891000D01*
X206506914Y-143684951D01*
X206155051Y-143449844D01*
X205740000Y-143367285D01*
X205359000Y-143443071D01*
X205359000Y-142875000D01*
X205357731Y-142868618D01*
X205291330Y-142534795D01*
X205098618Y-142246382D01*
X204463618Y-141611382D01*
X204175206Y-141418671D01*
X203835000Y-141351000D01*
X202298236Y-141351000D01*
X200914000Y-139966764D01*
X200914000Y-138557000D01*
X202115420Y-138557000D01*
X202115420Y-138857990D01*
X202246580Y-139263373D01*
X202522889Y-139587706D01*
X202906065Y-139774981D01*
X203073000Y-139648068D01*
X203073000Y-138557000D01*
X202115420Y-138557000D01*
X200914000Y-138557000D01*
X200914000Y-138002010D01*
X202115420Y-138002010D01*
X202115420Y-138303000D01*
X203073000Y-138303000D01*
X203073000Y-137211932D01*
X202906065Y-137085019D01*
X202522889Y-137272294D01*
X202246580Y-137596627D01*
X202115420Y-138002010D01*
X200914000Y-138002010D01*
X200914000Y-133350000D01*
X200846329Y-133009794D01*
X200653618Y-132721382D01*
X199383618Y-131451382D01*
X199095206Y-131258671D01*
X198755000Y-131191000D01*
X161023236Y-131191000D01*
X153924000Y-124091764D01*
X153924000Y-110674016D01*
X168825590Y-110674016D01*
X168881271Y-110904611D01*
X169364078Y-111072622D01*
X169874428Y-111043083D01*
X170208729Y-110904611D01*
X170264410Y-110674016D01*
X169545000Y-109954605D01*
X168825590Y-110674016D01*
X153924000Y-110674016D01*
X153924000Y-109594078D01*
X168247378Y-109594078D01*
X168276917Y-110104428D01*
X168415389Y-110438729D01*
X168645984Y-110494410D01*
X169365395Y-109775000D01*
X169724605Y-109775000D01*
X170444016Y-110494410D01*
X170674611Y-110438729D01*
X170842622Y-109955922D01*
X170813083Y-109445572D01*
X170674611Y-109111271D01*
X170444016Y-109055590D01*
X169724605Y-109775000D01*
X169365395Y-109775000D01*
X168645984Y-109055590D01*
X168415389Y-109111271D01*
X168247378Y-109594078D01*
X153924000Y-109594078D01*
X153924000Y-108875984D01*
X168825590Y-108875984D01*
X169545000Y-109595395D01*
X170264410Y-108875984D01*
X170208729Y-108645389D01*
X169725922Y-108477378D01*
X169215572Y-108506917D01*
X168881271Y-108645389D01*
X168825590Y-108875984D01*
X153924000Y-108875984D01*
X153924000Y-104508236D01*
X154307236Y-104125000D01*
X168247560Y-104125000D01*
X168247560Y-105425000D01*
X168291838Y-105660317D01*
X168430910Y-105876441D01*
X168643110Y-106021431D01*
X168895000Y-106072440D01*
X170195000Y-106072440D01*
X170340830Y-106045000D01*
X179155030Y-106045000D01*
X179264263Y-106594151D01*
X179575332Y-107059698D01*
X179957418Y-107315000D01*
X179575332Y-107570302D01*
X179264263Y-108035849D01*
X179155030Y-108585000D01*
X179264263Y-109134151D01*
X179575332Y-109599698D01*
X179957418Y-109855000D01*
X179575332Y-110110302D01*
X179264263Y-110575849D01*
X179155030Y-111125000D01*
X179264263Y-111674151D01*
X179575332Y-112139698D01*
X179957418Y-112395000D01*
X179575332Y-112650302D01*
X179264263Y-113115849D01*
X179155030Y-113665000D01*
X179264263Y-114214151D01*
X179575332Y-114679698D01*
X179957418Y-114935000D01*
X179575332Y-115190302D01*
X179264263Y-115655849D01*
X179155030Y-116205000D01*
X179264263Y-116754151D01*
X179575332Y-117219698D01*
X179957418Y-117475000D01*
X179575332Y-117730302D01*
X179264263Y-118195849D01*
X179155030Y-118745000D01*
X179264263Y-119294151D01*
X179575332Y-119759698D01*
X179957418Y-120015000D01*
X179575332Y-120270302D01*
X179264263Y-120735849D01*
X179155030Y-121285000D01*
X179264263Y-121834151D01*
X179575332Y-122299698D01*
X180040879Y-122610767D01*
X180590030Y-122720000D01*
X181359970Y-122720000D01*
X181909121Y-122610767D01*
X182374668Y-122299698D01*
X182685737Y-121834151D01*
X182794970Y-121285000D01*
X182685737Y-120735849D01*
X182374668Y-120270302D01*
X181992582Y-120015000D01*
X182374668Y-119759698D01*
X182685737Y-119294151D01*
X182753793Y-118952010D01*
X202115420Y-118952010D01*
X202115420Y-119253000D01*
X203073000Y-119253000D01*
X203073000Y-118161932D01*
X202906065Y-118035019D01*
X202522889Y-118222294D01*
X202246580Y-118546627D01*
X202115420Y-118952010D01*
X182753793Y-118952010D01*
X182794970Y-118745000D01*
X182685737Y-118195849D01*
X182374668Y-117730302D01*
X181992582Y-117475000D01*
X182374668Y-117219698D01*
X182685737Y-116754151D01*
X182794970Y-116205000D01*
X182685737Y-115655849D01*
X182374668Y-115190302D01*
X181992582Y-114935000D01*
X182374668Y-114679698D01*
X182685737Y-114214151D01*
X182794970Y-113665000D01*
X182693923Y-113157000D01*
X202115420Y-113157000D01*
X202115420Y-113457990D01*
X202246580Y-113863373D01*
X202522889Y-114187706D01*
X202906065Y-114374981D01*
X203073000Y-114248068D01*
X203073000Y-113157000D01*
X202115420Y-113157000D01*
X182693923Y-113157000D01*
X182685737Y-113115849D01*
X182374668Y-112650302D01*
X182302394Y-112602010D01*
X202115420Y-112602010D01*
X202115420Y-112903000D01*
X203073000Y-112903000D01*
X203073000Y-111811932D01*
X202906065Y-111685019D01*
X202522889Y-111872294D01*
X202246580Y-112196627D01*
X202115420Y-112602010D01*
X182302394Y-112602010D01*
X181992582Y-112395000D01*
X182374668Y-112139698D01*
X182685737Y-111674151D01*
X182794970Y-111125000D01*
X182685737Y-110575849D01*
X182374668Y-110110302D01*
X181992582Y-109855000D01*
X182374668Y-109599698D01*
X182685737Y-109134151D01*
X182794970Y-108585000D01*
X182685737Y-108035849D01*
X182374668Y-107570302D01*
X181992582Y-107315000D01*
X182374668Y-107059698D01*
X182685737Y-106594151D01*
X182794970Y-106045000D01*
X182685737Y-105495849D01*
X182374668Y-105030302D01*
X181996849Y-104777851D01*
X182429500Y-104429896D01*
X182699367Y-103936819D01*
X182716904Y-103854039D01*
X182594915Y-103632000D01*
X181102000Y-103632000D01*
X181102000Y-103652000D01*
X180848000Y-103652000D01*
X180848000Y-103632000D01*
X179355085Y-103632000D01*
X179233096Y-103854039D01*
X179250633Y-103936819D01*
X179520500Y-104429896D01*
X179953151Y-104777851D01*
X179575332Y-105030302D01*
X179264263Y-105495849D01*
X179155030Y-106045000D01*
X170340830Y-106045000D01*
X170430317Y-106028162D01*
X170646441Y-105889090D01*
X170791431Y-105676890D01*
X170842440Y-105425000D01*
X170842440Y-104125000D01*
X170798162Y-103889683D01*
X170659090Y-103673559D01*
X170446890Y-103528569D01*
X170195000Y-103477560D01*
X168895000Y-103477560D01*
X168659683Y-103521838D01*
X168443559Y-103660910D01*
X168298569Y-103873110D01*
X168247560Y-104125000D01*
X154307236Y-104125000D01*
X155943236Y-102489000D01*
X157348806Y-102489000D01*
X157363538Y-102524655D01*
X157822927Y-102984846D01*
X158423453Y-103234206D01*
X159073694Y-103234774D01*
X159674655Y-102986462D01*
X160134846Y-102527073D01*
X160384206Y-101926547D01*
X160384774Y-101276306D01*
X160136462Y-100675345D01*
X159677073Y-100215154D01*
X159076547Y-99965794D01*
X158426306Y-99965226D01*
X157825345Y-100213538D01*
X157365154Y-100672927D01*
X157349345Y-100711000D01*
X155575000Y-100711000D01*
X155234794Y-100778671D01*
X154946382Y-100971382D01*
X152406382Y-103511382D01*
X152213671Y-103799794D01*
X152146000Y-104140000D01*
X152146000Y-124460000D01*
X152213671Y-124800206D01*
X152338359Y-124986814D01*
X152406382Y-125088618D01*
X160026382Y-132708618D01*
X160314794Y-132901329D01*
X160655000Y-132969000D01*
X198386764Y-132969000D01*
X199136000Y-133718236D01*
X199136000Y-140335000D01*
X199203671Y-140675206D01*
X199315788Y-140843000D01*
X199396382Y-140963618D01*
X201301382Y-142868618D01*
X201589794Y-143061329D01*
X201930000Y-143129000D01*
X203466764Y-143129000D01*
X203581000Y-143243236D01*
X203581000Y-143477572D01*
X203493935Y-143435019D01*
X203327000Y-143561932D01*
X203327000Y-144653000D01*
X203347000Y-144653000D01*
X203347000Y-144907000D01*
X203327000Y-144907000D01*
X203327000Y-145998068D01*
X203493935Y-146124981D01*
X203830762Y-145960359D01*
X204054949Y-146110156D01*
X204470000Y-146192715D01*
X204885051Y-146110156D01*
X205105000Y-145963191D01*
X205324949Y-146110156D01*
X205740000Y-146192715D01*
X206155051Y-146110156D01*
X206506914Y-145875049D01*
X206644591Y-145669000D01*
X228600000Y-145669000D01*
X228940206Y-145601329D01*
X229228618Y-145408618D01*
X235857434Y-138779802D01*
X235875472Y-138787292D01*
X228866764Y-145796000D01*
X219710000Y-145796000D01*
X219369794Y-145863671D01*
X219081382Y-146056382D01*
X214896764Y-150241000D01*
X206644591Y-150241000D01*
X206506914Y-150034951D01*
X206155051Y-149799844D01*
X205740000Y-149717285D01*
X205359000Y-149793071D01*
X205359000Y-149225000D01*
X205357731Y-149218618D01*
X205291330Y-148884795D01*
X205098618Y-148596382D01*
X204463618Y-147961382D01*
X204294187Y-147848172D01*
X204175206Y-147768671D01*
X203835000Y-147701000D01*
X200393236Y-147701000D01*
X199009000Y-146316764D01*
X199009000Y-144907000D01*
X202115420Y-144907000D01*
X202115420Y-145207990D01*
X202246580Y-145613373D01*
X202522889Y-145937706D01*
X202906065Y-146124981D01*
X203073000Y-145998068D01*
X203073000Y-144907000D01*
X202115420Y-144907000D01*
X199009000Y-144907000D01*
X199009000Y-144352010D01*
X202115420Y-144352010D01*
X202115420Y-144653000D01*
X203073000Y-144653000D01*
X203073000Y-143561932D01*
X202906065Y-143435019D01*
X202522889Y-143622294D01*
X202246580Y-143946627D01*
X202115420Y-144352010D01*
X199009000Y-144352010D01*
X199009000Y-135255000D01*
X198941329Y-134914794D01*
X198748618Y-134626382D01*
X197478618Y-133356382D01*
X197469067Y-133350000D01*
X197190206Y-133163671D01*
X196850000Y-133096000D01*
X159753236Y-133096000D01*
X152019000Y-125361764D01*
X152019000Y-101968236D01*
X155308236Y-98679000D01*
X157348806Y-98679000D01*
X157363538Y-98714655D01*
X157822927Y-99174846D01*
X158423453Y-99424206D01*
X159073694Y-99424774D01*
X159674655Y-99176462D01*
X160134846Y-98717073D01*
X160384206Y-98116547D01*
X160384774Y-97466306D01*
X160136462Y-96865345D01*
X159677073Y-96405154D01*
X159076547Y-96155794D01*
X158426306Y-96155226D01*
X157825345Y-96403538D01*
X157365154Y-96862927D01*
X157349345Y-96901000D01*
X154940000Y-96901000D01*
X154599795Y-96968670D01*
X154311382Y-97161382D01*
X150501382Y-100971382D01*
X150308671Y-101259794D01*
X150241000Y-101600000D01*
X149352000Y-101600000D01*
X149352000Y-69820641D01*
X173761400Y-69820641D01*
X173761400Y-69879359D01*
X173875474Y-70452848D01*
X174200330Y-70939029D01*
X174471172Y-71120000D01*
X174200330Y-71300971D01*
X173875474Y-71787152D01*
X173761400Y-72360641D01*
X173761400Y-72419359D01*
X173875474Y-72992848D01*
X174200330Y-73479029D01*
X174686511Y-73803885D01*
X175260000Y-73917959D01*
X175833489Y-73803885D01*
X176319670Y-73479029D01*
X176530000Y-73164248D01*
X176740330Y-73479029D01*
X177226511Y-73803885D01*
X177800000Y-73917959D01*
X178373489Y-73803885D01*
X178859670Y-73479029D01*
X179184526Y-72992848D01*
X179298600Y-72419359D01*
X179298600Y-72360641D01*
X179184526Y-71787152D01*
X178859670Y-71300971D01*
X178588828Y-71120000D01*
X178859670Y-70939029D01*
X179184526Y-70452848D01*
X179298600Y-69879359D01*
X179298600Y-69820641D01*
X179184526Y-69247152D01*
X178859670Y-68760971D01*
X178588839Y-68580008D01*
X179006821Y-68198490D01*
X179254968Y-67669027D01*
X179134469Y-67437000D01*
X177927000Y-67437000D01*
X177927000Y-67457000D01*
X177673000Y-67457000D01*
X177673000Y-67437000D01*
X175387000Y-67437000D01*
X175387000Y-67457000D01*
X175133000Y-67457000D01*
X175133000Y-67437000D01*
X173925531Y-67437000D01*
X173805032Y-67669027D01*
X174053179Y-68198490D01*
X174471161Y-68580008D01*
X174200330Y-68760971D01*
X173875474Y-69247152D01*
X173761400Y-69820641D01*
X149352000Y-69820641D01*
X149352000Y-65129027D01*
X173805032Y-65129027D01*
X174053179Y-65658490D01*
X174471152Y-66040000D01*
X174053179Y-66421510D01*
X173805032Y-66950973D01*
X173925531Y-67183000D01*
X175133000Y-67183000D01*
X175133000Y-64897000D01*
X175387000Y-64897000D01*
X175387000Y-67183000D01*
X177673000Y-67183000D01*
X177673000Y-64897000D01*
X177927000Y-64897000D01*
X177927000Y-67183000D01*
X179134469Y-67183000D01*
X179254968Y-66950973D01*
X179006821Y-66421510D01*
X178588848Y-66040000D01*
X179006821Y-65658490D01*
X179254968Y-65129027D01*
X179134469Y-64897000D01*
X177927000Y-64897000D01*
X177673000Y-64897000D01*
X175387000Y-64897000D01*
X175133000Y-64897000D01*
X173925531Y-64897000D01*
X173805032Y-65129027D01*
X149352000Y-65129027D01*
X149352000Y-64389016D01*
X163745590Y-64389016D01*
X163801271Y-64619611D01*
X164284078Y-64787622D01*
X164794428Y-64758083D01*
X165128729Y-64619611D01*
X165184410Y-64389016D01*
X164465000Y-63669605D01*
X163745590Y-64389016D01*
X149352000Y-64389016D01*
X149352000Y-63309078D01*
X163167378Y-63309078D01*
X163196917Y-63819428D01*
X163335389Y-64153729D01*
X163565984Y-64209410D01*
X164285395Y-63490000D01*
X164644605Y-63490000D01*
X165364016Y-64209410D01*
X165594611Y-64153729D01*
X165762622Y-63670922D01*
X165733083Y-63160572D01*
X165594611Y-62826271D01*
X165364016Y-62770590D01*
X164644605Y-63490000D01*
X164285395Y-63490000D01*
X163565984Y-62770590D01*
X163335389Y-62826271D01*
X163167378Y-63309078D01*
X149352000Y-63309078D01*
X149352000Y-62590984D01*
X163745590Y-62590984D01*
X164465000Y-63310395D01*
X165184410Y-62590984D01*
X165128729Y-62360389D01*
X164645922Y-62192378D01*
X164135572Y-62221917D01*
X163801271Y-62360389D01*
X163745590Y-62590984D01*
X149352000Y-62590984D01*
X149352000Y-54102000D01*
X152541043Y-54102000D01*
X151500485Y-54531950D01*
X151500485Y-54531950D01*
G37*
X151500485Y-54531950D02*
X150420741Y-55609811D01*
X149835667Y-57018825D01*
X149834336Y-58544482D01*
X150416950Y-59954515D01*
X151494811Y-61034259D01*
X152903825Y-61619333D01*
X154429482Y-61620664D01*
X155839515Y-61038050D01*
X156919259Y-59960189D01*
X157301355Y-59040000D01*
X163167560Y-59040000D01*
X163167560Y-60340000D01*
X163211838Y-60575317D01*
X163350910Y-60791441D01*
X163563110Y-60936431D01*
X163815000Y-60987440D01*
X165115000Y-60987440D01*
X165350317Y-60943162D01*
X165566441Y-60804090D01*
X165711431Y-60591890D01*
X165762440Y-60340000D01*
X165762440Y-59040000D01*
X165722249Y-58826400D01*
X173748960Y-58826400D01*
X173748960Y-60553600D01*
X173793238Y-60788917D01*
X173932310Y-61005041D01*
X174144510Y-61150031D01*
X174188345Y-61158908D01*
X173875474Y-61627152D01*
X173761400Y-62200641D01*
X173761400Y-62259359D01*
X173875474Y-62832848D01*
X174200330Y-63319029D01*
X174471161Y-63499992D01*
X174053179Y-63881510D01*
X173805032Y-64410973D01*
X173925531Y-64643000D01*
X175133000Y-64643000D01*
X175133000Y-64623000D01*
X175387000Y-64623000D01*
X175387000Y-64643000D01*
X177673000Y-64643000D01*
X177673000Y-64623000D01*
X177927000Y-64623000D01*
X177927000Y-64643000D01*
X179134469Y-64643000D01*
X179254968Y-64410973D01*
X179006821Y-63881510D01*
X178588839Y-63499992D01*
X178859670Y-63319029D01*
X179184526Y-62832848D01*
X179279178Y-62357000D01*
X202115420Y-62357000D01*
X202115420Y-62657990D01*
X202246580Y-63063373D01*
X202522889Y-63387706D01*
X202906065Y-63574981D01*
X203073000Y-63448068D01*
X203073000Y-62357000D01*
X202115420Y-62357000D01*
X179279178Y-62357000D01*
X179298600Y-62259359D01*
X179298600Y-62200641D01*
X179219308Y-61802010D01*
X202115420Y-61802010D01*
X202115420Y-62103000D01*
X203073000Y-62103000D01*
X203073000Y-61011932D01*
X202906065Y-60885019D01*
X202522889Y-61072294D01*
X202246580Y-61396627D01*
X202115420Y-61802010D01*
X179219308Y-61802010D01*
X179184526Y-61627152D01*
X178859670Y-61140971D01*
X178588828Y-60960000D01*
X178859670Y-60779029D01*
X179184526Y-60292848D01*
X179298600Y-59719359D01*
X179298600Y-59660641D01*
X179184526Y-59087152D01*
X178859670Y-58600971D01*
X178373489Y-58276115D01*
X177800000Y-58162041D01*
X177226511Y-58276115D01*
X176740330Y-58600971D01*
X176731195Y-58614642D01*
X176726762Y-58591083D01*
X176587690Y-58374959D01*
X176375490Y-58229969D01*
X176123600Y-58178960D01*
X174396400Y-58178960D01*
X174161083Y-58223238D01*
X173944959Y-58362310D01*
X173799969Y-58574510D01*
X173748960Y-58826400D01*
X165722249Y-58826400D01*
X165718162Y-58804683D01*
X165579090Y-58588559D01*
X165366890Y-58443569D01*
X165115000Y-58392560D01*
X163815000Y-58392560D01*
X163579683Y-58436838D01*
X163363559Y-58575910D01*
X163218569Y-58788110D01*
X163167560Y-59040000D01*
X157301355Y-59040000D01*
X157504333Y-58551175D01*
X157505664Y-57025518D01*
X157294723Y-56515000D01*
X186042560Y-56515000D01*
X186042560Y-59055000D01*
X186086838Y-59290317D01*
X186225910Y-59506441D01*
X186438110Y-59651431D01*
X186690000Y-59702440D01*
X189230000Y-59702440D01*
X189465317Y-59658162D01*
X189681441Y-59519090D01*
X189826431Y-59306890D01*
X189861689Y-59132777D01*
X191871828Y-59132777D01*
X192003520Y-59427657D01*
X192711036Y-59699261D01*
X193468632Y-59679436D01*
X194076480Y-59427657D01*
X194208172Y-59132777D01*
X193040000Y-57964605D01*
X191871828Y-59132777D01*
X189861689Y-59132777D01*
X189877440Y-59055000D01*
X189877440Y-57456036D01*
X191125739Y-57456036D01*
X191145564Y-58213632D01*
X191397343Y-58821480D01*
X191692223Y-58953172D01*
X192860395Y-57785000D01*
X193219605Y-57785000D01*
X194387777Y-58953172D01*
X194682657Y-58821480D01*
X194954261Y-58113964D01*
X194934436Y-57356368D01*
X194682657Y-56748520D01*
X194387777Y-56616828D01*
X193219605Y-57785000D01*
X192860395Y-57785000D01*
X191692223Y-56616828D01*
X191397343Y-56748520D01*
X191125739Y-57456036D01*
X189877440Y-57456036D01*
X189877440Y-56515000D01*
X189862806Y-56437223D01*
X191871828Y-56437223D01*
X193040000Y-57605395D01*
X194208172Y-56437223D01*
X194076480Y-56142343D01*
X193368964Y-55870739D01*
X192611368Y-55890564D01*
X192003520Y-56142343D01*
X191871828Y-56437223D01*
X189862806Y-56437223D01*
X189833162Y-56279683D01*
X189694090Y-56063559D01*
X189481890Y-55918569D01*
X189230000Y-55867560D01*
X186690000Y-55867560D01*
X186454683Y-55911838D01*
X186238559Y-56050910D01*
X186093569Y-56263110D01*
X186042560Y-56515000D01*
X157294723Y-56515000D01*
X156923050Y-55615485D01*
X155845189Y-54535741D01*
X154800625Y-54102000D01*
X263666043Y-54102000D01*
X262625485Y-54531950D01*
X261545741Y-55609811D01*
X260960667Y-57018825D01*
X260959336Y-58544482D01*
X261541950Y-59954515D01*
X262619811Y-61034259D01*
X264028825Y-61619333D01*
X265554482Y-61620664D01*
X266964515Y-61038050D01*
X268044259Y-59960189D01*
X268478000Y-58915625D01*
X268478000Y-156351043D01*
X268048050Y-155310485D01*
X266970189Y-154230741D01*
X265561175Y-153645667D01*
X264035518Y-153644336D01*
X262625485Y-154226950D01*
X261545741Y-155304811D01*
X260960667Y-156713825D01*
X260959336Y-158239482D01*
X261541950Y-159649515D01*
X262619811Y-160729259D01*
X263664375Y-161163000D01*
X154798957Y-161163000D01*
X155839515Y-160733050D01*
X156919259Y-159655189D01*
X157504333Y-158246175D01*
X157505664Y-156720518D01*
X157199689Y-155980000D01*
X164684286Y-155980000D01*
X164684286Y-159950000D01*
X169325715Y-159950000D01*
X169325715Y-155980000D01*
X164684286Y-155980000D01*
X157199689Y-155980000D01*
X156923050Y-155310485D01*
X155845189Y-154230741D01*
X154436175Y-153645667D01*
X152910518Y-153644336D01*
X151500485Y-154226950D01*
X150420741Y-155304811D01*
X149835667Y-156713825D01*
X149834336Y-158239482D01*
X150416950Y-159649515D01*
X151494811Y-160729259D01*
X152539375Y-161163000D01*
X149352000Y-161163000D01*
X149352000Y-151257000D01*
X202115420Y-151257000D01*
X202115420Y-151557990D01*
X202246580Y-151963373D01*
X202522889Y-152287706D01*
X202906065Y-152474981D01*
X203073000Y-152348068D01*
X203073000Y-151257000D01*
X202115420Y-151257000D01*
X149352000Y-151257000D01*
X149352000Y-150702010D01*
X202115420Y-150702010D01*
X202115420Y-151003000D01*
X203073000Y-151003000D01*
X203073000Y-149911932D01*
X202906065Y-149785019D01*
X202522889Y-149972294D01*
X202246580Y-150296627D01*
X202115420Y-150702010D01*
X149352000Y-150702010D01*
X149352000Y-101600000D01*
X150241000Y-101600000D01*
X150241000Y-125730000D01*
X150308671Y-126070206D01*
X150501382Y-126358618D01*
X158756382Y-134613618D01*
X159044794Y-134806329D01*
X159385000Y-134874000D01*
X196481764Y-134874000D01*
X197231000Y-135623236D01*
X197231000Y-146685000D01*
X197298671Y-147025206D01*
X197491382Y-147313618D01*
X199396382Y-149218618D01*
X199684794Y-149411329D01*
X200025000Y-149479000D01*
X203466764Y-149479000D01*
X203581000Y-149593236D01*
X203581000Y-149827572D01*
X203493935Y-149785019D01*
X203327000Y-149911932D01*
X203327000Y-151003000D01*
X203347000Y-151003000D01*
X203347000Y-151257000D01*
X203327000Y-151257000D01*
X203327000Y-152348068D01*
X203493935Y-152474981D01*
X203830762Y-152310359D01*
X204054949Y-152460156D01*
X204470000Y-152542715D01*
X204885051Y-152460156D01*
X205105000Y-152313191D01*
X205324949Y-152460156D01*
X205740000Y-152542715D01*
X206155051Y-152460156D01*
X206506914Y-152225049D01*
X206644591Y-152019000D01*
X215265000Y-152019000D01*
X215605206Y-151951329D01*
X215893618Y-151758618D01*
X220078236Y-147574000D01*
X229235000Y-147574000D01*
X229575206Y-147506329D01*
X229863618Y-147313618D01*
X238397434Y-138779802D01*
X238433352Y-138794716D01*
X239083795Y-138795284D01*
X239684943Y-138546894D01*
X240030199Y-138202241D01*
X240372637Y-138545278D01*
X240973352Y-138794716D01*
X241623795Y-138795284D01*
X242224943Y-138546894D01*
X242685278Y-138087363D01*
X242701208Y-138049000D01*
X243205000Y-138049000D01*
X243545206Y-137981329D01*
X243833618Y-137788618D01*
X244856000Y-136766236D01*
X244856000Y-153301764D01*
X243471764Y-154686000D01*
X240398236Y-154686000D01*
X239649000Y-153936764D01*
X239649000Y-153801745D01*
X239684943Y-153786894D01*
X240030199Y-153442241D01*
X240372637Y-153785278D01*
X240973352Y-154034716D01*
X241623795Y-154035284D01*
X242224943Y-153786894D01*
X242685278Y-153327363D01*
X242934716Y-152726648D01*
X242935284Y-152076205D01*
X242686894Y-151475057D01*
X242227363Y-151014722D01*
X241626648Y-150765284D01*
X240976205Y-150764716D01*
X240375057Y-151013106D01*
X240029801Y-151357759D01*
X239687363Y-151014722D01*
X239086648Y-150765284D01*
X238436205Y-150764716D01*
X237835057Y-151013106D01*
X237489801Y-151357759D01*
X237147363Y-151014722D01*
X236546648Y-150765284D01*
X235896205Y-150764716D01*
X235295057Y-151013106D01*
X234949801Y-151357759D01*
X234607363Y-151014722D01*
X234006648Y-150765284D01*
X233356205Y-150764716D01*
X232755057Y-151013106D01*
X232409801Y-151357759D01*
X232067363Y-151014722D01*
X231466648Y-150765284D01*
X230816205Y-150764716D01*
X230215057Y-151013106D01*
X230164437Y-151063638D01*
X230080090Y-150932559D01*
X229867890Y-150787569D01*
X229616000Y-150736560D01*
X227584000Y-150736560D01*
X227348683Y-150780838D01*
X227132559Y-150919910D01*
X226987569Y-151132110D01*
X226936560Y-151384000D01*
X226936560Y-153416000D01*
X226980838Y-153651317D01*
X227119910Y-153867441D01*
X227332110Y-154012431D01*
X227584000Y-154063440D01*
X227814241Y-154063440D01*
X227923495Y-154226950D01*
X227971382Y-154298618D01*
X234448382Y-160775618D01*
X234736794Y-160968329D01*
X235077000Y-161036000D01*
X246888000Y-161036000D01*
X247228206Y-160968329D01*
X247516618Y-160775618D01*
X251453618Y-156838618D01*
X251537002Y-156713825D01*
X251646329Y-156550206D01*
X251714000Y-156210000D01*
X251714000Y-147848172D01*
X261492538Y-147848172D01*
X261897709Y-148828761D01*
X262647293Y-149579655D01*
X263627173Y-149986536D01*
X264688172Y-149987462D01*
X265668761Y-149582291D01*
X266419655Y-148832707D01*
X266826536Y-147852827D01*
X266827462Y-146791828D01*
X266422291Y-145811239D01*
X265672707Y-145060345D01*
X265049000Y-144801360D01*
X265049000Y-142272428D01*
X265136065Y-142314981D01*
X265303000Y-142188068D01*
X265303000Y-141097000D01*
X265557000Y-141097000D01*
X265557000Y-142188068D01*
X265723935Y-142314981D01*
X266107111Y-142127706D01*
X266383420Y-141803373D01*
X266514580Y-141397990D01*
X266514580Y-141097000D01*
X265557000Y-141097000D01*
X265303000Y-141097000D01*
X265283000Y-141097000D01*
X265283000Y-140843000D01*
X265303000Y-140843000D01*
X265303000Y-139751932D01*
X265557000Y-139751932D01*
X265557000Y-140843000D01*
X266514580Y-140843000D01*
X266514580Y-140542010D01*
X266383420Y-140136627D01*
X266107111Y-139812294D01*
X265723935Y-139625019D01*
X265557000Y-139751932D01*
X265303000Y-139751932D01*
X265136065Y-139625019D01*
X264799238Y-139789641D01*
X264575051Y-139639844D01*
X264160000Y-139557285D01*
X263744949Y-139639844D01*
X263525000Y-139786809D01*
X263305051Y-139639844D01*
X262890000Y-139557285D01*
X262474949Y-139639844D01*
X262123086Y-139874951D01*
X261887979Y-140226814D01*
X261805420Y-140641865D01*
X261805420Y-141298135D01*
X261887979Y-141713186D01*
X262123086Y-142065049D01*
X262474949Y-142300156D01*
X262890000Y-142382715D01*
X263271000Y-142306929D01*
X263271000Y-144801629D01*
X262651239Y-145057709D01*
X261900345Y-145807293D01*
X261493464Y-146787173D01*
X261492538Y-147848172D01*
X251714000Y-147848172D01*
X251714000Y-139919198D01*
X251908201Y-139999838D01*
X252280167Y-140000162D01*
X252476000Y-139919246D01*
X252476000Y-140037811D01*
X252430162Y-140148201D01*
X252429838Y-140520167D01*
X252571883Y-140863943D01*
X252834673Y-141127192D01*
X253178201Y-141269838D01*
X253550167Y-141270162D01*
X253893943Y-141128117D01*
X254157192Y-140865327D01*
X254299838Y-140521799D01*
X254300162Y-140149833D01*
X254254000Y-140038112D01*
X254254000Y-122448172D01*
X261492538Y-122448172D01*
X261897709Y-123428761D01*
X262647293Y-124179655D01*
X263627173Y-124586536D01*
X264688172Y-124587462D01*
X265668761Y-124182291D01*
X266419655Y-123432707D01*
X266826536Y-122452827D01*
X266827462Y-121391828D01*
X266422291Y-120411239D01*
X265672707Y-119660345D01*
X265049000Y-119401360D01*
X265049000Y-116872428D01*
X265136065Y-116914981D01*
X265303000Y-116788068D01*
X265303000Y-115697000D01*
X265557000Y-115697000D01*
X265557000Y-116788068D01*
X265723935Y-116914981D01*
X266107111Y-116727706D01*
X266383420Y-116403373D01*
X266514580Y-115997990D01*
X266514580Y-115697000D01*
X265557000Y-115697000D01*
X265303000Y-115697000D01*
X265283000Y-115697000D01*
X265283000Y-115443000D01*
X265303000Y-115443000D01*
X265303000Y-114351932D01*
X265557000Y-114351932D01*
X265557000Y-115443000D01*
X266514580Y-115443000D01*
X266514580Y-115142010D01*
X266383420Y-114736627D01*
X266107111Y-114412294D01*
X265723935Y-114225019D01*
X265557000Y-114351932D01*
X265303000Y-114351932D01*
X265136065Y-114225019D01*
X264799238Y-114389641D01*
X264575051Y-114239844D01*
X264160000Y-114157285D01*
X263744949Y-114239844D01*
X263525000Y-114386809D01*
X263305051Y-114239844D01*
X262890000Y-114157285D01*
X262474949Y-114239844D01*
X262123086Y-114474951D01*
X261887979Y-114826814D01*
X261805420Y-115241865D01*
X261805420Y-115898135D01*
X261887979Y-116313186D01*
X262123086Y-116665049D01*
X262474949Y-116900156D01*
X262890000Y-116982715D01*
X263271000Y-116906929D01*
X263271000Y-119401629D01*
X262651239Y-119657709D01*
X261900345Y-120407293D01*
X261493464Y-121387173D01*
X261492538Y-122448172D01*
X254254000Y-122448172D01*
X254254000Y-115232189D01*
X254299838Y-115121799D01*
X254300162Y-114749833D01*
X254254000Y-114638112D01*
X254254000Y-97048172D01*
X261492538Y-97048172D01*
X261897709Y-98028761D01*
X262647293Y-98779655D01*
X263627173Y-99186536D01*
X264688172Y-99187462D01*
X265668761Y-98782291D01*
X266419655Y-98032707D01*
X266826536Y-97052827D01*
X266827462Y-95991828D01*
X266422291Y-95011239D01*
X265672707Y-94260345D01*
X265049000Y-94001360D01*
X265049000Y-91472428D01*
X265136065Y-91514981D01*
X265303000Y-91388068D01*
X265303000Y-90297000D01*
X265557000Y-90297000D01*
X265557000Y-91388068D01*
X265723935Y-91514981D01*
X266107111Y-91327706D01*
X266383420Y-91003373D01*
X266514580Y-90597990D01*
X266514580Y-90297000D01*
X265557000Y-90297000D01*
X265303000Y-90297000D01*
X265283000Y-90297000D01*
X265283000Y-90043000D01*
X265303000Y-90043000D01*
X265303000Y-88951932D01*
X265557000Y-88951932D01*
X265557000Y-90043000D01*
X266514580Y-90043000D01*
X266514580Y-89742010D01*
X266383420Y-89336627D01*
X266107111Y-89012294D01*
X265723935Y-88825019D01*
X265557000Y-88951932D01*
X265303000Y-88951932D01*
X265136065Y-88825019D01*
X264799238Y-88989641D01*
X264575051Y-88839844D01*
X264160000Y-88757285D01*
X263744949Y-88839844D01*
X263525000Y-88986809D01*
X263305051Y-88839844D01*
X262890000Y-88757285D01*
X262474949Y-88839844D01*
X262123086Y-89074951D01*
X261887979Y-89426814D01*
X261805420Y-89841865D01*
X261805420Y-90498135D01*
X261887979Y-90913186D01*
X262123086Y-91265049D01*
X262474949Y-91500156D01*
X262890000Y-91582715D01*
X263271000Y-91506929D01*
X263271000Y-94001629D01*
X262651239Y-94257709D01*
X261900345Y-95007293D01*
X261493464Y-95987173D01*
X261492538Y-97048172D01*
X254254000Y-97048172D01*
X254254000Y-89832189D01*
X254299838Y-89721799D01*
X254300162Y-89349833D01*
X254254000Y-89238112D01*
X254254000Y-72918172D01*
X261492538Y-72918172D01*
X261897709Y-73898761D01*
X262647293Y-74649655D01*
X263627173Y-75056536D01*
X264688172Y-75057462D01*
X265668761Y-74652291D01*
X266419655Y-73902707D01*
X266826536Y-72922827D01*
X266827462Y-71861828D01*
X266422291Y-70881239D01*
X265672707Y-70130345D01*
X265049000Y-69871360D01*
X265049000Y-66072428D01*
X265136065Y-66114981D01*
X265303000Y-65988068D01*
X265303000Y-64897000D01*
X265557000Y-64897000D01*
X265557000Y-65988068D01*
X265723935Y-66114981D01*
X266107111Y-65927706D01*
X266383420Y-65603373D01*
X266514580Y-65197990D01*
X266514580Y-64897000D01*
X265557000Y-64897000D01*
X265303000Y-64897000D01*
X265283000Y-64897000D01*
X265283000Y-64643000D01*
X265303000Y-64643000D01*
X265303000Y-63551932D01*
X265557000Y-63551932D01*
X265557000Y-64643000D01*
X266514580Y-64643000D01*
X266514580Y-64342010D01*
X266383420Y-63936627D01*
X266107111Y-63612294D01*
X265723935Y-63425019D01*
X265557000Y-63551932D01*
X265303000Y-63551932D01*
X265136065Y-63425019D01*
X264799238Y-63589641D01*
X264575051Y-63439844D01*
X264160000Y-63357285D01*
X263744949Y-63439844D01*
X263525000Y-63586809D01*
X263305051Y-63439844D01*
X262890000Y-63357285D01*
X262474949Y-63439844D01*
X262123086Y-63674951D01*
X261887979Y-64026814D01*
X261805420Y-64441865D01*
X261805420Y-65098135D01*
X261887979Y-65513186D01*
X262123086Y-65865049D01*
X262474949Y-66100156D01*
X262890000Y-66182715D01*
X263271000Y-66106929D01*
X263271000Y-69871629D01*
X262651239Y-70127709D01*
X261900345Y-70877293D01*
X261493464Y-71857173D01*
X261492538Y-72918172D01*
X254254000Y-72918172D01*
X254254000Y-58420000D01*
X254186329Y-58079794D01*
X253993618Y-57791382D01*
X252723618Y-56521382D01*
X252597665Y-56437223D01*
X252435206Y-56328671D01*
X252095000Y-56261000D01*
X233045000Y-56261000D01*
X232704794Y-56328671D01*
X232542335Y-56437223D01*
X232416382Y-56521382D01*
X230511382Y-58426382D01*
X230318671Y-58714794D01*
X230251000Y-59055000D01*
X230251000Y-59558255D01*
X230215057Y-59573106D01*
X229869801Y-59917759D01*
X229527363Y-59574722D01*
X228926648Y-59325284D01*
X228276205Y-59324716D01*
X227675057Y-59573106D01*
X227214722Y-60032637D01*
X227198792Y-60071000D01*
X221615000Y-60071000D01*
X221274794Y-60138671D01*
X221044052Y-60292848D01*
X220986382Y-60331382D01*
X219976764Y-61341000D01*
X206644591Y-61341000D01*
X206506914Y-61134951D01*
X206155051Y-60899844D01*
X205740000Y-60817285D01*
X205324949Y-60899844D01*
X205105000Y-61046809D01*
X204885051Y-60899844D01*
X204470000Y-60817285D01*
X204054949Y-60899844D01*
X203830762Y-61049641D01*
X203493935Y-60885019D01*
X203327000Y-61011932D01*
X203327000Y-62103000D01*
X203347000Y-62103000D01*
X203347000Y-62357000D01*
X203327000Y-62357000D01*
X203327000Y-63448068D01*
X203493935Y-63574981D01*
X203581000Y-63532428D01*
X203581000Y-64401764D01*
X202831764Y-65151000D01*
X200660000Y-65151000D01*
X200597701Y-65163392D01*
X200534276Y-65159935D01*
X200429123Y-65196924D01*
X200319794Y-65218671D01*
X200266980Y-65253960D01*
X200207060Y-65275038D01*
X200124066Y-65349453D01*
X200031382Y-65411382D01*
X199996092Y-65464196D01*
X199948800Y-65506600D01*
X198043800Y-68046600D01*
X197995601Y-68147110D01*
X197933671Y-68239794D01*
X197921279Y-68302092D01*
X197893813Y-68359367D01*
X197887746Y-68470674D01*
X197866000Y-68580000D01*
X197866000Y-77736764D01*
X197116764Y-78486000D01*
X156845000Y-78486000D01*
X156504795Y-78553670D01*
X156216382Y-78746382D01*
X152406382Y-82556382D01*
X152213671Y-82844794D01*
X152146000Y-83185000D01*
X152146000Y-91440000D01*
X152155687Y-91488700D01*
X152151437Y-91538174D01*
X152189257Y-91657467D01*
X152213671Y-91780206D01*
X152241258Y-91821493D01*
X152256264Y-91868825D01*
X152336854Y-91964562D01*
X152406382Y-92068618D01*
X152447669Y-92096205D01*
X152479646Y-92134192D01*
X155654646Y-94674192D01*
X155765738Y-94731801D01*
X155869794Y-94801329D01*
X155918496Y-94811016D01*
X155962576Y-94833875D01*
X156087262Y-94844586D01*
X156210000Y-94869000D01*
X157348806Y-94869000D01*
X157363538Y-94904655D01*
X157822927Y-95364846D01*
X158423453Y-95614206D01*
X159073694Y-95614774D01*
X159674655Y-95366462D01*
X160134846Y-94907073D01*
X160384206Y-94306547D01*
X160384774Y-93656306D01*
X160136462Y-93055345D01*
X159677073Y-92595154D01*
X159076547Y-92345794D01*
X158426306Y-92345226D01*
X157825345Y-92593538D01*
X157365154Y-93052927D01*
X157349345Y-93091000D01*
X156521844Y-93091000D01*
X153924000Y-91012725D01*
X153924000Y-83553236D01*
X157213236Y-80264000D01*
X197485000Y-80264000D01*
X197825206Y-80196329D01*
X198113618Y-80003618D01*
X199383618Y-78733618D01*
X199576329Y-78445206D01*
X199644000Y-78105000D01*
X199644000Y-68876333D01*
X200187242Y-68152010D01*
X202115420Y-68152010D01*
X202115420Y-68453000D01*
X203073000Y-68453000D01*
X203073000Y-67361932D01*
X202906065Y-67235019D01*
X202522889Y-67422294D01*
X202246580Y-67746627D01*
X202115420Y-68152010D01*
X200187242Y-68152010D01*
X201104500Y-66929000D01*
X203200000Y-66929000D01*
X203540206Y-66861329D01*
X203828618Y-66668618D01*
X205098618Y-65398618D01*
X205145269Y-65328800D01*
X205291329Y-65110206D01*
X205359000Y-64770000D01*
X205359000Y-63566929D01*
X205740000Y-63642715D01*
X206155051Y-63560156D01*
X206506914Y-63325049D01*
X206644591Y-63119000D01*
X220345000Y-63119000D01*
X220685206Y-63051329D01*
X220973618Y-62858618D01*
X221983236Y-61849000D01*
X227198255Y-61849000D01*
X227213106Y-61884943D01*
X227672637Y-62345278D01*
X228273352Y-62594716D01*
X228923795Y-62595284D01*
X229524943Y-62346894D01*
X229870199Y-62002241D01*
X230212637Y-62345278D01*
X230813352Y-62594716D01*
X231463795Y-62595284D01*
X232064943Y-62346894D01*
X232410199Y-62002241D01*
X232752637Y-62345278D01*
X233335472Y-62587292D01*
X228231764Y-67691000D01*
X206644591Y-67691000D01*
X206506914Y-67484951D01*
X206155051Y-67249844D01*
X205740000Y-67167285D01*
X205324949Y-67249844D01*
X205105000Y-67396809D01*
X204885051Y-67249844D01*
X204470000Y-67167285D01*
X204054949Y-67249844D01*
X203830762Y-67399641D01*
X203493935Y-67235019D01*
X203327000Y-67361932D01*
X203327000Y-68453000D01*
X203347000Y-68453000D01*
X203347000Y-68707000D01*
X203327000Y-68707000D01*
X203327000Y-68727000D01*
X203073000Y-68727000D01*
X203073000Y-68707000D01*
X202115420Y-68707000D01*
X202115420Y-69007990D01*
X202246580Y-69413373D01*
X202522889Y-69737706D01*
X202906065Y-69924981D01*
X203072998Y-69798070D01*
X203072998Y-69965570D01*
X203097194Y-69965570D01*
X202831764Y-70231000D01*
X202565000Y-70231000D01*
X202224794Y-70298671D01*
X201994052Y-70452848D01*
X201936382Y-70491382D01*
X200666382Y-71761382D01*
X200473671Y-72049794D01*
X200406000Y-72390000D01*
X200406000Y-79006764D01*
X199021764Y-80391000D01*
X158750000Y-80391000D01*
X158409794Y-80458671D01*
X158130933Y-80645000D01*
X158121382Y-80651382D01*
X154946382Y-83826382D01*
X154753671Y-84114794D01*
X154686000Y-84455000D01*
X154686000Y-88900000D01*
X154753671Y-89240206D01*
X154826922Y-89349833D01*
X154946382Y-89528618D01*
X156216382Y-90798618D01*
X156504794Y-90991329D01*
X156845000Y-91059000D01*
X157348806Y-91059000D01*
X157363538Y-91094655D01*
X157822927Y-91554846D01*
X158423453Y-91804206D01*
X159073694Y-91804774D01*
X159674655Y-91556462D01*
X160134846Y-91097073D01*
X160384206Y-90496547D01*
X160384774Y-89846306D01*
X160136462Y-89245345D01*
X159677073Y-88785154D01*
X159076547Y-88535794D01*
X158426306Y-88535226D01*
X157825345Y-88783538D01*
X157365154Y-89242927D01*
X157349345Y-89281000D01*
X157213236Y-89281000D01*
X156464000Y-88531764D01*
X156464000Y-84823236D01*
X159118236Y-82169000D01*
X199390000Y-82169000D01*
X199730206Y-82101329D01*
X200018618Y-81908618D01*
X201923618Y-80003618D01*
X202116329Y-79715206D01*
X202184000Y-79375000D01*
X202184000Y-75569954D01*
X202246580Y-75763373D01*
X202522889Y-76087706D01*
X202906065Y-76274981D01*
X203073000Y-76148068D01*
X203073000Y-75057000D01*
X203053000Y-75057000D01*
X203053000Y-74803000D01*
X203073000Y-74803000D01*
X203073000Y-73711932D01*
X202906065Y-73585019D01*
X202522889Y-73772294D01*
X202246580Y-74096627D01*
X202184000Y-74290046D01*
X202184000Y-72758236D01*
X202933236Y-72009000D01*
X203200000Y-72009000D01*
X203540206Y-71941329D01*
X203828618Y-71748618D01*
X205098618Y-70478618D01*
X205200004Y-70326883D01*
X205291329Y-70190206D01*
X205346194Y-69914382D01*
X205740000Y-69992715D01*
X206155051Y-69910156D01*
X206506914Y-69675049D01*
X206644591Y-69469000D01*
X222643764Y-69469000D01*
X218071764Y-74041000D01*
X206644591Y-74041000D01*
X206506914Y-73834951D01*
X206155051Y-73599844D01*
X205740000Y-73517285D01*
X205324949Y-73599844D01*
X205105000Y-73746809D01*
X204885051Y-73599844D01*
X204470000Y-73517285D01*
X204054949Y-73599844D01*
X203830762Y-73749641D01*
X203493935Y-73585019D01*
X203327000Y-73711932D01*
X203327000Y-74803000D01*
X203347000Y-74803000D01*
X203347000Y-75057000D01*
X203327000Y-75057000D01*
X203327000Y-76148068D01*
X203493935Y-76274981D01*
X203581000Y-76232428D01*
X203581000Y-80276764D01*
X201561764Y-82296000D01*
X161925000Y-82296000D01*
X161584794Y-82363671D01*
X161296382Y-82556382D01*
X159112176Y-84740588D01*
X159076547Y-84725794D01*
X158426306Y-84725226D01*
X157825345Y-84973538D01*
X157365154Y-85432927D01*
X157115794Y-86033453D01*
X157115226Y-86683694D01*
X157363538Y-87284655D01*
X157822927Y-87744846D01*
X158423453Y-87994206D01*
X159073694Y-87994774D01*
X159674655Y-87746462D01*
X160134846Y-87287073D01*
X160384206Y-86686547D01*
X160384208Y-86683694D01*
X167275226Y-86683694D01*
X167523538Y-87284655D01*
X167982927Y-87744846D01*
X168583453Y-87994206D01*
X169233694Y-87994774D01*
X169834655Y-87746462D01*
X170294846Y-87287073D01*
X170310655Y-87249000D01*
X170446764Y-87249000D01*
X170561000Y-87363236D01*
X170561000Y-89375929D01*
X170520206Y-89348671D01*
X170322943Y-89309433D01*
X170296462Y-89245345D01*
X169837073Y-88785154D01*
X169236547Y-88535794D01*
X168586306Y-88535226D01*
X167985345Y-88783538D01*
X167525154Y-89242927D01*
X167275794Y-89843453D01*
X167275226Y-90493694D01*
X167523538Y-91094655D01*
X167982927Y-91554846D01*
X168583453Y-91804206D01*
X169233694Y-91804774D01*
X169834655Y-91556462D01*
X169926000Y-91465276D01*
X169926000Y-92684236D01*
X169837073Y-92595154D01*
X169236547Y-92345794D01*
X168586306Y-92345226D01*
X167985345Y-92593538D01*
X167525154Y-93052927D01*
X167275794Y-93653453D01*
X167275226Y-94303694D01*
X167523538Y-94904655D01*
X167982927Y-95364846D01*
X168583453Y-95614206D01*
X169233694Y-95614774D01*
X169721133Y-95413369D01*
X170821382Y-96513618D01*
X171109794Y-96706329D01*
X171450000Y-96774000D01*
X171871343Y-96774000D01*
X171955332Y-96899698D01*
X172337418Y-97155000D01*
X171955332Y-97410302D01*
X171871343Y-97536000D01*
X171818236Y-97536000D01*
X171443618Y-97161382D01*
X171424515Y-97148618D01*
X171155206Y-96968671D01*
X170815000Y-96901000D01*
X170311194Y-96901000D01*
X170296462Y-96865345D01*
X169837073Y-96405154D01*
X169236547Y-96155794D01*
X168586306Y-96155226D01*
X167985345Y-96403538D01*
X167525154Y-96862927D01*
X167275794Y-97463453D01*
X167275226Y-98113694D01*
X167523538Y-98714655D01*
X167982927Y-99174846D01*
X168583453Y-99424206D01*
X169233694Y-99424774D01*
X169834655Y-99176462D01*
X170294846Y-98717073D01*
X170310655Y-98679000D01*
X170446764Y-98679000D01*
X170821382Y-99053618D01*
X171109795Y-99246330D01*
X171450000Y-99314000D01*
X171871343Y-99314000D01*
X171955332Y-99439698D01*
X172337418Y-99695000D01*
X171955332Y-99950302D01*
X171871343Y-100076000D01*
X170815000Y-100076000D01*
X170474795Y-100143670D01*
X170186382Y-100336382D01*
X170072136Y-100450628D01*
X169837073Y-100215154D01*
X169236547Y-99965794D01*
X168586306Y-99965226D01*
X167985345Y-100213538D01*
X167525154Y-100672927D01*
X167275794Y-101273453D01*
X167275226Y-101923694D01*
X167523538Y-102524655D01*
X167982927Y-102984846D01*
X168583453Y-103234206D01*
X169233694Y-103234774D01*
X169834655Y-102986462D01*
X170294846Y-102527073D01*
X170322418Y-102460671D01*
X170520206Y-102421329D01*
X170808618Y-102228618D01*
X171183236Y-101854000D01*
X171871343Y-101854000D01*
X171955332Y-101979698D01*
X172337418Y-102235000D01*
X171955332Y-102490302D01*
X171644263Y-102955849D01*
X171535030Y-103505000D01*
X171644263Y-104054151D01*
X171955332Y-104519698D01*
X172333151Y-104772149D01*
X171900500Y-105120104D01*
X171630633Y-105613181D01*
X171613096Y-105695961D01*
X171735085Y-105918000D01*
X173228000Y-105918000D01*
X173228000Y-105898000D01*
X173482000Y-105898000D01*
X173482000Y-105918000D01*
X174974915Y-105918000D01*
X175096904Y-105695961D01*
X175079367Y-105613181D01*
X174809500Y-105120104D01*
X174376849Y-104772149D01*
X174754668Y-104519698D01*
X175065737Y-104054151D01*
X175174970Y-103505000D01*
X175065737Y-102955849D01*
X174754668Y-102490302D01*
X174372582Y-102235000D01*
X174754668Y-101979698D01*
X175065737Y-101514151D01*
X175174970Y-100965000D01*
X175065737Y-100415849D01*
X174754668Y-99950302D01*
X174372582Y-99695000D01*
X174754668Y-99439698D01*
X175065737Y-98974151D01*
X175174970Y-98425000D01*
X175065737Y-97875849D01*
X174754668Y-97410302D01*
X174372582Y-97155000D01*
X174754668Y-96899698D01*
X175065737Y-96434151D01*
X175174970Y-95885000D01*
X175065737Y-95335849D01*
X174754668Y-94870302D01*
X174372582Y-94615000D01*
X174754668Y-94359698D01*
X175065737Y-93894151D01*
X175174970Y-93345000D01*
X175065737Y-92795849D01*
X174754668Y-92330302D01*
X174372582Y-92075000D01*
X174754668Y-91819698D01*
X175065737Y-91354151D01*
X175174970Y-90805000D01*
X175065737Y-90255849D01*
X174754668Y-89790302D01*
X174372582Y-89535000D01*
X174754668Y-89279698D01*
X175065737Y-88814151D01*
X175174970Y-88265000D01*
X179155030Y-88265000D01*
X179264263Y-88814151D01*
X179575332Y-89279698D01*
X179957418Y-89535000D01*
X179575332Y-89790302D01*
X179264263Y-90255849D01*
X179155030Y-90805000D01*
X179264263Y-91354151D01*
X179575332Y-91819698D01*
X179957418Y-92075000D01*
X179575332Y-92330302D01*
X179264263Y-92795849D01*
X179155030Y-93345000D01*
X179264263Y-93894151D01*
X179575332Y-94359698D01*
X179957418Y-94615000D01*
X179575332Y-94870302D01*
X179264263Y-95335849D01*
X179155030Y-95885000D01*
X179264263Y-96434151D01*
X179575332Y-96899698D01*
X179957418Y-97155000D01*
X179575332Y-97410302D01*
X179264263Y-97875849D01*
X179155030Y-98425000D01*
X179264263Y-98974151D01*
X179575332Y-99439698D01*
X179957418Y-99695000D01*
X179575332Y-99950302D01*
X179264263Y-100415849D01*
X179155030Y-100965000D01*
X179264263Y-101514151D01*
X179575332Y-101979698D01*
X179953151Y-102232149D01*
X179520500Y-102580104D01*
X179250633Y-103073181D01*
X179233096Y-103155961D01*
X179355085Y-103378000D01*
X180848000Y-103378000D01*
X180848000Y-103358000D01*
X181102000Y-103358000D01*
X181102000Y-103378000D01*
X182594915Y-103378000D01*
X182716904Y-103155961D01*
X182699367Y-103073181D01*
X182429500Y-102580104D01*
X181996849Y-102232149D01*
X182374668Y-101979698D01*
X182458657Y-101854000D01*
X183146764Y-101854000D01*
X184156382Y-102863618D01*
X184444794Y-103056329D01*
X184785000Y-103124000D01*
X185288806Y-103124000D01*
X185303538Y-103159655D01*
X185762927Y-103619846D01*
X186363453Y-103869206D01*
X187013694Y-103869774D01*
X187614655Y-103621462D01*
X188074846Y-103162073D01*
X188324206Y-102561547D01*
X188324774Y-101911306D01*
X188076462Y-101310345D01*
X187617073Y-100850154D01*
X187016547Y-100600794D01*
X186366306Y-100600226D01*
X185765345Y-100848538D01*
X185305154Y-101307927D01*
X185289345Y-101346000D01*
X185153236Y-101346000D01*
X184143618Y-100336382D01*
X183855206Y-100143671D01*
X183515000Y-100076000D01*
X182458657Y-100076000D01*
X182374668Y-99950302D01*
X181992582Y-99695000D01*
X182374668Y-99439698D01*
X182458657Y-99314000D01*
X185288806Y-99314000D01*
X185303538Y-99349655D01*
X185762927Y-99809846D01*
X186363453Y-100059206D01*
X187013694Y-100059774D01*
X187614655Y-99811462D01*
X188074846Y-99352073D01*
X188324206Y-98751547D01*
X188324774Y-98101306D01*
X188076462Y-97500345D01*
X187617073Y-97040154D01*
X187016547Y-96790794D01*
X186366306Y-96790226D01*
X185765345Y-97038538D01*
X185305154Y-97497927D01*
X185289345Y-97536000D01*
X182458657Y-97536000D01*
X182374668Y-97410302D01*
X181992582Y-97155000D01*
X182374668Y-96899698D01*
X182491406Y-96724987D01*
X182585206Y-96706329D01*
X182873618Y-96513618D01*
X183883236Y-95504000D01*
X185288806Y-95504000D01*
X185303538Y-95539655D01*
X185762927Y-95999846D01*
X186363453Y-96249206D01*
X187013694Y-96249774D01*
X187614655Y-96001462D01*
X188074846Y-95542073D01*
X188324206Y-94941547D01*
X188324774Y-94291306D01*
X188076462Y-93690345D01*
X187617073Y-93230154D01*
X187016547Y-92980794D01*
X186366306Y-92980226D01*
X185765345Y-93228538D01*
X185305154Y-93687927D01*
X185289345Y-93726000D01*
X183515000Y-93726000D01*
X183174794Y-93793671D01*
X182905485Y-93973618D01*
X182886382Y-93986382D01*
X182151547Y-94721217D01*
X181992582Y-94615000D01*
X182374668Y-94359698D01*
X182491406Y-94184987D01*
X182585206Y-94166329D01*
X182873618Y-93973618D01*
X183930226Y-92917010D01*
X202115420Y-92917010D01*
X202115420Y-93218000D01*
X203073000Y-93218000D01*
X203073000Y-92126932D01*
X202906065Y-92000019D01*
X202522889Y-92187294D01*
X202246580Y-92511627D01*
X202115420Y-92917010D01*
X183930226Y-92917010D01*
X185153236Y-91694000D01*
X185288806Y-91694000D01*
X185303538Y-91729655D01*
X185762927Y-92189846D01*
X186363453Y-92439206D01*
X187013694Y-92439774D01*
X187614655Y-92191462D01*
X188074846Y-91732073D01*
X188324206Y-91131547D01*
X188324774Y-90481306D01*
X188076462Y-89880345D01*
X187617073Y-89420154D01*
X187016547Y-89170794D01*
X186366306Y-89170226D01*
X185765345Y-89418538D01*
X185305154Y-89877927D01*
X185289345Y-89916000D01*
X184785000Y-89916000D01*
X184444794Y-89983671D01*
X184156382Y-90176382D01*
X182151547Y-92181217D01*
X181992582Y-92075000D01*
X182374668Y-91819698D01*
X182685737Y-91354151D01*
X182794970Y-90805000D01*
X182685737Y-90255849D01*
X182374668Y-89790302D01*
X181992582Y-89535000D01*
X182374668Y-89279698D01*
X182685737Y-88814151D01*
X182794970Y-88265000D01*
X182693923Y-87757000D01*
X202115420Y-87757000D01*
X202115420Y-88057990D01*
X202246580Y-88463373D01*
X202522889Y-88787706D01*
X202906065Y-88974981D01*
X203073000Y-88848068D01*
X203073000Y-87757000D01*
X202115420Y-87757000D01*
X182693923Y-87757000D01*
X182685737Y-87715849D01*
X182374668Y-87250302D01*
X182302395Y-87202010D01*
X202115420Y-87202010D01*
X202115420Y-87503000D01*
X203073000Y-87503000D01*
X203073000Y-86411932D01*
X202906065Y-86285019D01*
X202522889Y-86472294D01*
X202246580Y-86796627D01*
X202115420Y-87202010D01*
X182302395Y-87202010D01*
X181909121Y-86939233D01*
X181359970Y-86830000D01*
X180590030Y-86830000D01*
X180040879Y-86939233D01*
X179575332Y-87250302D01*
X179264263Y-87715849D01*
X179155030Y-88265000D01*
X175174970Y-88265000D01*
X175065737Y-87715849D01*
X174754668Y-87250302D01*
X174289121Y-86939233D01*
X173739970Y-86830000D01*
X172970030Y-86830000D01*
X172420879Y-86939233D01*
X172338814Y-86994067D01*
X172301937Y-86808671D01*
X172271330Y-86654795D01*
X172078618Y-86366382D01*
X171443618Y-85731382D01*
X171155206Y-85538671D01*
X170815000Y-85471000D01*
X170311194Y-85471000D01*
X170296462Y-85435345D01*
X169837073Y-84975154D01*
X169236547Y-84725794D01*
X168586306Y-84725226D01*
X167985345Y-84973538D01*
X167525154Y-85432927D01*
X167275794Y-86033453D01*
X167275226Y-86683694D01*
X160384208Y-86683694D01*
X160384774Y-86036306D01*
X160369031Y-85998205D01*
X162293236Y-84074000D01*
X201930000Y-84074000D01*
X202270206Y-84006329D01*
X202558618Y-83813618D01*
X205098618Y-81273618D01*
X205291329Y-80985206D01*
X205359000Y-80645000D01*
X205359000Y-76266929D01*
X205740000Y-76342715D01*
X206155051Y-76260156D01*
X206506914Y-76025049D01*
X206644591Y-75819000D01*
X218440000Y-75819000D01*
X218780206Y-75751329D01*
X219068618Y-75558618D01*
X219443236Y-75184000D01*
X226936560Y-75184000D01*
X226936560Y-77216000D01*
X226980838Y-77451317D01*
X227119910Y-77667441D01*
X227332110Y-77812431D01*
X227584000Y-77863440D01*
X229616000Y-77863440D01*
X229851317Y-77819162D01*
X230067441Y-77680090D01*
X230164899Y-77537456D01*
X230212637Y-77585278D01*
X230813352Y-77834716D01*
X231463795Y-77835284D01*
X232064943Y-77586894D01*
X232410199Y-77242241D01*
X232752637Y-77585278D01*
X233353352Y-77834716D01*
X234003795Y-77835284D01*
X234604943Y-77586894D01*
X234950199Y-77242241D01*
X235292637Y-77585278D01*
X235893352Y-77834716D01*
X236543795Y-77835284D01*
X237144943Y-77586894D01*
X237490199Y-77242241D01*
X237832637Y-77585278D01*
X238433352Y-77834716D01*
X239083795Y-77835284D01*
X239684943Y-77586894D01*
X240030199Y-77242241D01*
X240372637Y-77585278D01*
X240973352Y-77834716D01*
X241623795Y-77835284D01*
X242224943Y-77586894D01*
X242685278Y-77127363D01*
X242934716Y-76526648D01*
X242935284Y-75876205D01*
X242686894Y-75275057D01*
X242227363Y-74814722D01*
X241626648Y-74565284D01*
X240976205Y-74564716D01*
X240375057Y-74813106D01*
X240029801Y-75157759D01*
X239687363Y-74814722D01*
X239086648Y-74565284D01*
X238436205Y-74564716D01*
X237835057Y-74813106D01*
X237489801Y-75157759D01*
X237147363Y-74814722D01*
X236546648Y-74565284D01*
X235896205Y-74564716D01*
X235295057Y-74813106D01*
X234949801Y-75157759D01*
X234607363Y-74814722D01*
X234006648Y-74565284D01*
X233356205Y-74564716D01*
X232755057Y-74813106D01*
X232409801Y-75157759D01*
X232067363Y-74814722D01*
X231466648Y-74565284D01*
X230816205Y-74564716D01*
X230215057Y-74813106D01*
X230164437Y-74863638D01*
X230080090Y-74732559D01*
X229867890Y-74587569D01*
X229616000Y-74536560D01*
X227584000Y-74536560D01*
X227348683Y-74580838D01*
X227132559Y-74719910D01*
X226987569Y-74932110D01*
X226936560Y-75184000D01*
X219443236Y-75184000D01*
X223888236Y-70739000D01*
X229870000Y-70739000D01*
X230210206Y-70671329D01*
X230498618Y-70478618D01*
X238397434Y-62579802D01*
X238433352Y-62594716D01*
X239083795Y-62595284D01*
X239684943Y-62346894D01*
X240030199Y-62002241D01*
X240372637Y-62345278D01*
X240973352Y-62594716D01*
X241623795Y-62595284D01*
X242224943Y-62346894D01*
X242685278Y-61887363D01*
X242701208Y-61849000D01*
X242836764Y-61849000D01*
X243586000Y-62598236D01*
X243586000Y-85471000D01*
X242701745Y-85471000D01*
X242686894Y-85435057D01*
X242227363Y-84974722D01*
X241626648Y-84725284D01*
X240976205Y-84724716D01*
X240375057Y-84973106D01*
X240029801Y-85317759D01*
X239687363Y-84974722D01*
X239086648Y-84725284D01*
X238436205Y-84724716D01*
X237835057Y-84973106D01*
X237489801Y-85317759D01*
X237147363Y-84974722D01*
X236546648Y-84725284D01*
X235896205Y-84724716D01*
X235295057Y-84973106D01*
X234949801Y-85317759D01*
X234607363Y-84974722D01*
X234006648Y-84725284D01*
X233356205Y-84724716D01*
X232755057Y-84973106D01*
X232409801Y-85317759D01*
X232067363Y-84974722D01*
X231466648Y-84725284D01*
X230816205Y-84724716D01*
X230215057Y-84973106D01*
X229869801Y-85317759D01*
X229527363Y-84974722D01*
X228926648Y-84725284D01*
X228276205Y-84724716D01*
X227675057Y-84973106D01*
X227214722Y-85432637D01*
X227198792Y-85471000D01*
X218440000Y-85471000D01*
X218099794Y-85538671D01*
X217811382Y-85731382D01*
X216801764Y-86741000D01*
X206644591Y-86741000D01*
X206506914Y-86534951D01*
X206155051Y-86299844D01*
X205740000Y-86217285D01*
X205324949Y-86299844D01*
X205105000Y-86446809D01*
X204885051Y-86299844D01*
X204470000Y-86217285D01*
X204054949Y-86299844D01*
X203830762Y-86449641D01*
X203493935Y-86285019D01*
X203327000Y-86411932D01*
X203327000Y-87503000D01*
X203347000Y-87503000D01*
X203347000Y-87757000D01*
X203327000Y-87757000D01*
X203327000Y-88848068D01*
X203493935Y-88974981D01*
X203581000Y-88932428D01*
X203581000Y-89166764D01*
X202831764Y-89916000D01*
X198251194Y-89916000D01*
X198236462Y-89880345D01*
X197777073Y-89420154D01*
X197176547Y-89170794D01*
X196526306Y-89170226D01*
X195925345Y-89418538D01*
X195465154Y-89877927D01*
X195215794Y-90478453D01*
X195215226Y-91128694D01*
X195463538Y-91729655D01*
X195922927Y-92189846D01*
X196523453Y-92439206D01*
X197173694Y-92439774D01*
X197774655Y-92191462D01*
X198234846Y-91732073D01*
X198250655Y-91694000D01*
X203200000Y-91694000D01*
X203540206Y-91626329D01*
X203828618Y-91433618D01*
X205098618Y-90163618D01*
X205179212Y-90043000D01*
X205291329Y-89875206D01*
X205359000Y-89535000D01*
X205359000Y-88966929D01*
X205740000Y-89042715D01*
X206155051Y-88960156D01*
X206506914Y-88725049D01*
X206644591Y-88519000D01*
X217170000Y-88519000D01*
X217510206Y-88451329D01*
X217798618Y-88258618D01*
X218808236Y-87249000D01*
X227198255Y-87249000D01*
X227213106Y-87284943D01*
X227672637Y-87745278D01*
X228273352Y-87994716D01*
X228923795Y-87995284D01*
X229524943Y-87746894D01*
X229870199Y-87402241D01*
X230212637Y-87745278D01*
X230813352Y-87994716D01*
X231463795Y-87995284D01*
X232064943Y-87746894D01*
X232410199Y-87402241D01*
X232752637Y-87745278D01*
X233335472Y-87987292D01*
X228866764Y-92456000D01*
X206644591Y-92456000D01*
X206506914Y-92249951D01*
X206155051Y-92014844D01*
X205740000Y-91932285D01*
X205324949Y-92014844D01*
X205105000Y-92161809D01*
X204885051Y-92014844D01*
X204470000Y-91932285D01*
X204054949Y-92014844D01*
X203830762Y-92164641D01*
X203493935Y-92000019D01*
X203327000Y-92126932D01*
X203327000Y-93218000D01*
X203347000Y-93218000D01*
X203347000Y-93472000D01*
X203327000Y-93472000D01*
X203327000Y-93492000D01*
X203073000Y-93492000D01*
X203073000Y-93472000D01*
X202115420Y-93472000D01*
X202115420Y-93772990D01*
X202246580Y-94178373D01*
X202402165Y-94361000D01*
X200393236Y-94361000D01*
X200018618Y-93986382D01*
X199999515Y-93973618D01*
X199730206Y-93793671D01*
X199390000Y-93726000D01*
X198251194Y-93726000D01*
X198236462Y-93690345D01*
X197777073Y-93230154D01*
X197176547Y-92980794D01*
X196526306Y-92980226D01*
X195925345Y-93228538D01*
X195465154Y-93687927D01*
X195215794Y-94288453D01*
X195215226Y-94938694D01*
X195463538Y-95539655D01*
X195922927Y-95999846D01*
X196523453Y-96249206D01*
X197173694Y-96249774D01*
X197774655Y-96001462D01*
X198234846Y-95542073D01*
X198250655Y-95504000D01*
X199021764Y-95504000D01*
X199396382Y-95878618D01*
X199684795Y-96071330D01*
X200025000Y-96139000D01*
X203835000Y-96139000D01*
X204175206Y-96071329D01*
X204463618Y-95878618D01*
X205098618Y-95243618D01*
X205291330Y-94955205D01*
X205346194Y-94679382D01*
X205740000Y-94757715D01*
X206155051Y-94675156D01*
X206506914Y-94440049D01*
X206644591Y-94234000D01*
X221373764Y-94234000D01*
X216801764Y-98806000D01*
X206644591Y-98806000D01*
X206506914Y-98599951D01*
X206155051Y-98364844D01*
X205740000Y-98282285D01*
X205346194Y-98360618D01*
X205291330Y-98084795D01*
X205098618Y-97796382D01*
X204463618Y-97161382D01*
X204444515Y-97148618D01*
X204175206Y-96968671D01*
X203835000Y-96901000D01*
X199390000Y-96901000D01*
X199049795Y-96968670D01*
X198761382Y-97161382D01*
X198386764Y-97536000D01*
X198251194Y-97536000D01*
X198236462Y-97500345D01*
X197777073Y-97040154D01*
X197176547Y-96790794D01*
X196526306Y-96790226D01*
X195925345Y-97038538D01*
X195465154Y-97497927D01*
X195215794Y-98098453D01*
X195215226Y-98748694D01*
X195463538Y-99349655D01*
X195922927Y-99809846D01*
X196523453Y-100059206D01*
X197173694Y-100059774D01*
X197749151Y-99822000D01*
X202115420Y-99822000D01*
X202115420Y-100122990D01*
X202246580Y-100528373D01*
X202522889Y-100852706D01*
X202906065Y-101039981D01*
X203073000Y-100913068D01*
X203073000Y-99822000D01*
X202115420Y-99822000D01*
X197749151Y-99822000D01*
X197774655Y-99811462D01*
X198234846Y-99352073D01*
X198250655Y-99314000D01*
X198755000Y-99314000D01*
X199095206Y-99246329D01*
X199383618Y-99053618D01*
X199758236Y-98679000D01*
X202402165Y-98679000D01*
X202246580Y-98861627D01*
X202115420Y-99267010D01*
X202115420Y-99568000D01*
X203073000Y-99568000D01*
X203073000Y-99548000D01*
X203327000Y-99548000D01*
X203327000Y-99568000D01*
X203347000Y-99568000D01*
X203347000Y-99822000D01*
X203327000Y-99822000D01*
X203327000Y-100913068D01*
X203493935Y-101039981D01*
X203830762Y-100875359D01*
X204054949Y-101025156D01*
X204470000Y-101107715D01*
X204885051Y-101025156D01*
X205105000Y-100878191D01*
X205324949Y-101025156D01*
X205740000Y-101107715D01*
X206155051Y-101025156D01*
X206506914Y-100790049D01*
X206644591Y-100584000D01*
X217170000Y-100584000D01*
X226936560Y-100584000D01*
X226936560Y-102616000D01*
X226980838Y-102851317D01*
X227119910Y-103067441D01*
X227332110Y-103212431D01*
X227584000Y-103263440D01*
X229616000Y-103263440D01*
X229851317Y-103219162D01*
X230067441Y-103080090D01*
X230164899Y-102937456D01*
X230212637Y-102985278D01*
X230813352Y-103234716D01*
X231463795Y-103235284D01*
X232064943Y-102986894D01*
X232410199Y-102642241D01*
X232752637Y-102985278D01*
X233353352Y-103234716D01*
X234003795Y-103235284D01*
X234604943Y-102986894D01*
X234950199Y-102642241D01*
X235292637Y-102985278D01*
X235893352Y-103234716D01*
X236543795Y-103235284D01*
X237144943Y-102986894D01*
X237490199Y-102642241D01*
X237832637Y-102985278D01*
X238433352Y-103234716D01*
X239083795Y-103235284D01*
X239684943Y-102986894D01*
X240030199Y-102642241D01*
X240372637Y-102985278D01*
X240973352Y-103234716D01*
X241623795Y-103235284D01*
X242224943Y-102986894D01*
X242685278Y-102527363D01*
X242934716Y-101926648D01*
X242935284Y-101276205D01*
X242686894Y-100675057D01*
X242227363Y-100214722D01*
X241626648Y-99965284D01*
X240976205Y-99964716D01*
X240375057Y-100213106D01*
X240029801Y-100557759D01*
X239687363Y-100214722D01*
X239086648Y-99965284D01*
X238436205Y-99964716D01*
X237835057Y-100213106D01*
X237489801Y-100557759D01*
X237147363Y-100214722D01*
X236546648Y-99965284D01*
X235896205Y-99964716D01*
X235295057Y-100213106D01*
X234949801Y-100557759D01*
X234607363Y-100214722D01*
X234006648Y-99965284D01*
X233356205Y-99964716D01*
X232755057Y-100213106D01*
X232409801Y-100557759D01*
X232067363Y-100214722D01*
X231466648Y-99965284D01*
X230816205Y-99964716D01*
X230215057Y-100213106D01*
X230164437Y-100263638D01*
X230080090Y-100132559D01*
X229867890Y-99987569D01*
X229616000Y-99936560D01*
X227584000Y-99936560D01*
X227348683Y-99980838D01*
X227132559Y-100119910D01*
X226987569Y-100332110D01*
X226936560Y-100584000D01*
X217170000Y-100584000D01*
X217510206Y-100516329D01*
X217798618Y-100323618D01*
X222618236Y-95504000D01*
X230505000Y-95504000D01*
X230845206Y-95436329D01*
X231133618Y-95243618D01*
X238397434Y-87979802D01*
X238433352Y-87994716D01*
X239083795Y-87995284D01*
X239684943Y-87746894D01*
X240030199Y-87402241D01*
X240372637Y-87745278D01*
X240973352Y-87994716D01*
X241623795Y-87995284D01*
X242224943Y-87746894D01*
X242685278Y-87287363D01*
X242701208Y-87249000D01*
X243586000Y-87249000D01*
X243586000Y-110871000D01*
X242701745Y-110871000D01*
X242686894Y-110835057D01*
X242227363Y-110374722D01*
X241626648Y-110125284D01*
X240976205Y-110124716D01*
X240375057Y-110373106D01*
X240029801Y-110717759D01*
X239687363Y-110374722D01*
X239086648Y-110125284D01*
X238436205Y-110124716D01*
X237835057Y-110373106D01*
X237489801Y-110717759D01*
X237147363Y-110374722D01*
X236546648Y-110125284D01*
X235896205Y-110124716D01*
X235295057Y-110373106D01*
X234949801Y-110717759D01*
X234607363Y-110374722D01*
X234006648Y-110125284D01*
X233356205Y-110124716D01*
X232755057Y-110373106D01*
X232409801Y-110717759D01*
X232067363Y-110374722D01*
X231466648Y-110125284D01*
X230816205Y-110124716D01*
X230215057Y-110373106D01*
X229869801Y-110717759D01*
X229527363Y-110374722D01*
X228926648Y-110125284D01*
X228276205Y-110124716D01*
X227675057Y-110373106D01*
X227214722Y-110832637D01*
X227198792Y-110871000D01*
X221615000Y-110871000D01*
X221274794Y-110938671D01*
X220995933Y-111125000D01*
X220986382Y-111131382D01*
X219976764Y-112141000D01*
X206644591Y-112141000D01*
X206506914Y-111934951D01*
X206155051Y-111699844D01*
X205740000Y-111617285D01*
X205359000Y-111693071D01*
X205359000Y-107950000D01*
X205291330Y-107609795D01*
X205098618Y-107321382D01*
X199383618Y-101606382D01*
X199364515Y-101593618D01*
X199095206Y-101413671D01*
X198755000Y-101346000D01*
X198251194Y-101346000D01*
X198236462Y-101310345D01*
X197777073Y-100850154D01*
X197176547Y-100600794D01*
X196526306Y-100600226D01*
X195925345Y-100848538D01*
X195465154Y-101307927D01*
X195215794Y-101908453D01*
X195215226Y-102558694D01*
X195463538Y-103159655D01*
X195922927Y-103619846D01*
X196523453Y-103869206D01*
X197173694Y-103869774D01*
X197774655Y-103621462D01*
X198234846Y-103162073D01*
X198250655Y-103124000D01*
X198386764Y-103124000D01*
X203581000Y-108318236D01*
X203581000Y-111727572D01*
X203493935Y-111685019D01*
X203327000Y-111811932D01*
X203327000Y-112903000D01*
X203347000Y-112903000D01*
X203347000Y-113157000D01*
X203327000Y-113157000D01*
X203327000Y-114248068D01*
X203493935Y-114374981D01*
X203830762Y-114210359D01*
X204054949Y-114360156D01*
X204470000Y-114442715D01*
X204885051Y-114360156D01*
X205105000Y-114213191D01*
X205324949Y-114360156D01*
X205740000Y-114442715D01*
X206155051Y-114360156D01*
X206506914Y-114125049D01*
X206644591Y-113919000D01*
X220345000Y-113919000D01*
X220685206Y-113851329D01*
X220973618Y-113658618D01*
X221983236Y-112649000D01*
X227198255Y-112649000D01*
X227213106Y-112684943D01*
X227672637Y-113145278D01*
X228273352Y-113394716D01*
X228923795Y-113395284D01*
X229524943Y-113146894D01*
X229870199Y-112802241D01*
X230212637Y-113145278D01*
X230813352Y-113394716D01*
X231463795Y-113395284D01*
X232064943Y-113146894D01*
X232410199Y-112802241D01*
X232752637Y-113145278D01*
X233335472Y-113387292D01*
X228231764Y-118491000D01*
X206644591Y-118491000D01*
X206506914Y-118284951D01*
X206155051Y-118049844D01*
X205740000Y-117967285D01*
X205324949Y-118049844D01*
X205105000Y-118196809D01*
X204885051Y-118049844D01*
X204470000Y-117967285D01*
X204054949Y-118049844D01*
X203830762Y-118199641D01*
X203493935Y-118035019D01*
X203327000Y-118161932D01*
X203327000Y-119253000D01*
X203347000Y-119253000D01*
X203347000Y-119507000D01*
X203327000Y-119507000D01*
X203327000Y-119527000D01*
X203073000Y-119527000D01*
X203073000Y-119507000D01*
X202115420Y-119507000D01*
X202115420Y-119807990D01*
X202246580Y-120213373D01*
X202522889Y-120537706D01*
X202906065Y-120724981D01*
X203072998Y-120598070D01*
X203072998Y-120765570D01*
X203097194Y-120765570D01*
X202831764Y-121031000D01*
X200025000Y-121031000D01*
X199684794Y-121098671D01*
X199396382Y-121291382D01*
X197116764Y-123571000D01*
X161023236Y-123571000D01*
X160274000Y-122821764D01*
X160274000Y-122051194D01*
X160309655Y-122036462D01*
X160769846Y-121577073D01*
X161019206Y-120976547D01*
X161019774Y-120326306D01*
X160771462Y-119725345D01*
X160312073Y-119265154D01*
X159711547Y-119015794D01*
X159061306Y-119015226D01*
X158460345Y-119263538D01*
X158000154Y-119722927D01*
X157750794Y-120323453D01*
X157750226Y-120973694D01*
X157998538Y-121574655D01*
X158457927Y-122034846D01*
X158496000Y-122050655D01*
X158496000Y-123190000D01*
X158563671Y-123530206D01*
X158654996Y-123666883D01*
X158756382Y-123818618D01*
X160026382Y-125088618D01*
X160314794Y-125281329D01*
X160655000Y-125349000D01*
X197485000Y-125349000D01*
X197721235Y-125302010D01*
X202115420Y-125302010D01*
X202115420Y-125603000D01*
X203073000Y-125603000D01*
X203073000Y-124511932D01*
X202906065Y-124385019D01*
X202522889Y-124572294D01*
X202246580Y-124896627D01*
X202115420Y-125302010D01*
X197721235Y-125302010D01*
X197825206Y-125281329D01*
X198113618Y-125088618D01*
X200393236Y-122809000D01*
X203200000Y-122809000D01*
X203540206Y-122741329D01*
X203828618Y-122548618D01*
X205098618Y-121278618D01*
X205200004Y-121126883D01*
X205291329Y-120990206D01*
X205346194Y-120714382D01*
X205740000Y-120792715D01*
X206155051Y-120710156D01*
X206506914Y-120475049D01*
X206644591Y-120269000D01*
X228600000Y-120269000D01*
X228940206Y-120201329D01*
X229228618Y-120008618D01*
X235857434Y-113379802D01*
X235875472Y-113387292D01*
X228866764Y-120396000D01*
X219710000Y-120396000D01*
X219369794Y-120463671D01*
X219081382Y-120656382D01*
X214896764Y-124841000D01*
X206644591Y-124841000D01*
X206506914Y-124634951D01*
X206155051Y-124399844D01*
X205740000Y-124317285D01*
X205324949Y-124399844D01*
X205105000Y-124546809D01*
X204885051Y-124399844D01*
X204470000Y-124317285D01*
X204054949Y-124399844D01*
X203830762Y-124549641D01*
X203493935Y-124385019D01*
X203327000Y-124511932D01*
X203327000Y-125603000D01*
X203347000Y-125603000D01*
X203347000Y-125857000D01*
X203327000Y-125857000D01*
X203327000Y-126948068D01*
X203493935Y-127074981D01*
X203581000Y-127032428D01*
X203581000Y-127381000D01*
X162293236Y-127381000D01*
X160769236Y-125857000D01*
X202115420Y-125857000D01*
X202115420Y-126157990D01*
X202246580Y-126563373D01*
X202522889Y-126887706D01*
X202906065Y-127074981D01*
X203073000Y-126948068D01*
X203073000Y-125857000D01*
X202115420Y-125857000D01*
X160769236Y-125857000D01*
X157734000Y-122821764D01*
X157734000Y-117843236D01*
X157848236Y-117729000D01*
X157983806Y-117729000D01*
X157998538Y-117764655D01*
X158457927Y-118224846D01*
X159058453Y-118474206D01*
X159708694Y-118474774D01*
X160309655Y-118226462D01*
X160769846Y-117767073D01*
X161019206Y-117166547D01*
X161019774Y-116516306D01*
X160771462Y-115915345D01*
X160312073Y-115455154D01*
X159711547Y-115205794D01*
X159061306Y-115205226D01*
X158460345Y-115453538D01*
X158000154Y-115912927D01*
X157984345Y-115951000D01*
X157480000Y-115951000D01*
X157139795Y-116018670D01*
X156851382Y-116211382D01*
X156216382Y-116846382D01*
X156023671Y-117134794D01*
X155956000Y-117475000D01*
X155956000Y-123190000D01*
X156023671Y-123530206D01*
X156114996Y-123666883D01*
X156216382Y-123818618D01*
X161296382Y-128898618D01*
X161584794Y-129091329D01*
X161925000Y-129159000D01*
X204470000Y-129159000D01*
X204810206Y-129091329D01*
X205098618Y-128898618D01*
X205291329Y-128610206D01*
X205359000Y-128270000D01*
X205359000Y-127066929D01*
X205740000Y-127142715D01*
X206155051Y-127060156D01*
X206506914Y-126825049D01*
X206644591Y-126619000D01*
X215265000Y-126619000D01*
X215605206Y-126551329D01*
X215893618Y-126358618D01*
X216268236Y-125984000D01*
X226936560Y-125984000D01*
X226936560Y-128016000D01*
X226980838Y-128251317D01*
X227119910Y-128467441D01*
X227332110Y-128612431D01*
X227584000Y-128663440D01*
X229616000Y-128663440D01*
X229851317Y-128619162D01*
X230067441Y-128480090D01*
X230164899Y-128337456D01*
X230212637Y-128385278D01*
X230813352Y-128634716D01*
X231463795Y-128635284D01*
X232064943Y-128386894D01*
X232410199Y-128042241D01*
X232752637Y-128385278D01*
X233353352Y-128634716D01*
X234003795Y-128635284D01*
X234604943Y-128386894D01*
X234950199Y-128042241D01*
X235292637Y-128385278D01*
X235893352Y-128634716D01*
X236543795Y-128635284D01*
X237144943Y-128386894D01*
X237490199Y-128042241D01*
X237832637Y-128385278D01*
X238433352Y-128634716D01*
X239083795Y-128635284D01*
X239684943Y-128386894D01*
X240030199Y-128042241D01*
X240372637Y-128385278D01*
X240973352Y-128634716D01*
X241623795Y-128635284D01*
X242224943Y-128386894D01*
X242685278Y-127927363D01*
X242934716Y-127326648D01*
X242935284Y-126676205D01*
X242686894Y-126075057D01*
X242227363Y-125614722D01*
X241626648Y-125365284D01*
X240976205Y-125364716D01*
X240375057Y-125613106D01*
X240029801Y-125957759D01*
X239687363Y-125614722D01*
X239086648Y-125365284D01*
X238436205Y-125364716D01*
X237835057Y-125613106D01*
X237489801Y-125957759D01*
X237147363Y-125614722D01*
X236546648Y-125365284D01*
X235896205Y-125364716D01*
X235295057Y-125613106D01*
X234949801Y-125957759D01*
X234607363Y-125614722D01*
X234006648Y-125365284D01*
X233356205Y-125364716D01*
X232755057Y-125613106D01*
X232409801Y-125957759D01*
X232067363Y-125614722D01*
X231466648Y-125365284D01*
X230816205Y-125364716D01*
X230215057Y-125613106D01*
X230164437Y-125663638D01*
X230080090Y-125532559D01*
X229867890Y-125387569D01*
X229616000Y-125336560D01*
X227584000Y-125336560D01*
X227348683Y-125380838D01*
X227132559Y-125519910D01*
X226987569Y-125732110D01*
X226936560Y-125984000D01*
X216268236Y-125984000D01*
X220078236Y-122174000D01*
X229235000Y-122174000D01*
X229575206Y-122106329D01*
X229863618Y-121913618D01*
X238397434Y-113379802D01*
X238433352Y-113394716D01*
X239083795Y-113395284D01*
X239684943Y-113146894D01*
X240030199Y-112802241D01*
X240372637Y-113145278D01*
X240973352Y-113394716D01*
X241623795Y-113395284D01*
X242224943Y-113146894D01*
X242685278Y-112687363D01*
X242701208Y-112649000D01*
X243586000Y-112649000D01*
X243586000Y-135521764D01*
X242836764Y-136271000D01*
X242701745Y-136271000D01*
X242686894Y-136235057D01*
X242227363Y-135774722D01*
X241626648Y-135525284D01*
X240976205Y-135524716D01*
X240375057Y-135773106D01*
X240029801Y-136117759D01*
X239687363Y-135774722D01*
X239086648Y-135525284D01*
X238436205Y-135524716D01*
X237835057Y-135773106D01*
X237489801Y-136117759D01*
X237147363Y-135774722D01*
X236546648Y-135525284D01*
X235896205Y-135524716D01*
X235295057Y-135773106D01*
X234949801Y-136117759D01*
X234607363Y-135774722D01*
X234006648Y-135525284D01*
X233356205Y-135524716D01*
X232755057Y-135773106D01*
X232409801Y-136117759D01*
X232067363Y-135774722D01*
X231466648Y-135525284D01*
X230816205Y-135524716D01*
X230215057Y-135773106D01*
X229869801Y-136117759D01*
X229527363Y-135774722D01*
X228926648Y-135525284D01*
X228276205Y-135524716D01*
X227675057Y-135773106D01*
X227214722Y-136232637D01*
X227198792Y-136271000D01*
X219710000Y-136271000D01*
X219369794Y-136338671D01*
X219100485Y-136518618D01*
X219081382Y-136531382D01*
X218071764Y-137541000D01*
X206644591Y-137541000D01*
X206506914Y-137334951D01*
X206155051Y-137099844D01*
X205740000Y-137017285D01*
X205359000Y-137093071D01*
X205359000Y-132080000D01*
X205291329Y-131739794D01*
X205098618Y-131451382D01*
X203193618Y-129546382D01*
X202905206Y-129353671D01*
X202565000Y-129286000D01*
X161658236Y-129286000D01*
X155829000Y-123456764D01*
X155829000Y-115303236D01*
X157213236Y-113919000D01*
X157983806Y-113919000D01*
X157998538Y-113954655D01*
X158457927Y-114414846D01*
X159058453Y-114664206D01*
X159708694Y-114664774D01*
X160309655Y-114416462D01*
X160769846Y-113957073D01*
X161019206Y-113356547D01*
X161019208Y-113353694D01*
X167910226Y-113353694D01*
X168158538Y-113954655D01*
X168617927Y-114414846D01*
X169218453Y-114664206D01*
X169868694Y-114664774D01*
X170469655Y-114416462D01*
X170707147Y-114179383D01*
X170821382Y-114293618D01*
X171109795Y-114486330D01*
X171450000Y-114554000D01*
X171871343Y-114554000D01*
X171955332Y-114679698D01*
X172337418Y-114935000D01*
X171955332Y-115190302D01*
X171871343Y-115316000D01*
X171450000Y-115316000D01*
X171109795Y-115383670D01*
X170821382Y-115576382D01*
X170707136Y-115690628D01*
X170472073Y-115455154D01*
X169871547Y-115205794D01*
X169221306Y-115205226D01*
X168620345Y-115453538D01*
X168160154Y-115912927D01*
X167910794Y-116513453D01*
X167910226Y-117163694D01*
X168158538Y-117764655D01*
X168617927Y-118224846D01*
X169218453Y-118474206D01*
X169868694Y-118474774D01*
X170469655Y-118226462D01*
X170929846Y-117767073D01*
X170957418Y-117700671D01*
X171155206Y-117661329D01*
X171443618Y-117468618D01*
X171818236Y-117094000D01*
X171871343Y-117094000D01*
X171955332Y-117219698D01*
X172337418Y-117475000D01*
X171955332Y-117730302D01*
X171838594Y-117905012D01*
X171744795Y-117923670D01*
X171456382Y-118116382D01*
X170821382Y-118751382D01*
X170628671Y-119039794D01*
X170565273Y-119358517D01*
X170472073Y-119265154D01*
X169871547Y-119015794D01*
X169221306Y-119015226D01*
X168620345Y-119263538D01*
X168160154Y-119722927D01*
X167910794Y-120323453D01*
X167910226Y-120973694D01*
X168158538Y-121574655D01*
X168617927Y-122034846D01*
X169218453Y-122284206D01*
X169868694Y-122284774D01*
X170469655Y-122036462D01*
X170929846Y-121577073D01*
X170957418Y-121510671D01*
X171155206Y-121471329D01*
X171443618Y-121278618D01*
X171559313Y-121162923D01*
X171535030Y-121285000D01*
X171644263Y-121834151D01*
X171955332Y-122299698D01*
X172420879Y-122610767D01*
X172970030Y-122720000D01*
X173739970Y-122720000D01*
X174289121Y-122610767D01*
X174754668Y-122299698D01*
X175065737Y-121834151D01*
X175174970Y-121285000D01*
X175065737Y-120735849D01*
X174754668Y-120270302D01*
X174372582Y-120015000D01*
X174754668Y-119759698D01*
X175065737Y-119294151D01*
X175174970Y-118745000D01*
X175065737Y-118195849D01*
X174754668Y-117730302D01*
X174372582Y-117475000D01*
X174754668Y-117219698D01*
X175065737Y-116754151D01*
X175174970Y-116205000D01*
X175065737Y-115655849D01*
X174754668Y-115190302D01*
X174372582Y-114935000D01*
X174754668Y-114679698D01*
X175065737Y-114214151D01*
X175174970Y-113665000D01*
X175065737Y-113115849D01*
X174754668Y-112650302D01*
X174372582Y-112395000D01*
X174754668Y-112139698D01*
X175065737Y-111674151D01*
X175174970Y-111125000D01*
X175065737Y-110575849D01*
X174754668Y-110110302D01*
X174372582Y-109855000D01*
X174754668Y-109599698D01*
X175065737Y-109134151D01*
X175174970Y-108585000D01*
X175065737Y-108035849D01*
X174754668Y-107570302D01*
X174376849Y-107317851D01*
X174809500Y-106969896D01*
X175079367Y-106476819D01*
X175096904Y-106394039D01*
X174974915Y-106172000D01*
X173482000Y-106172000D01*
X173482000Y-106192000D01*
X173228000Y-106192000D01*
X173228000Y-106172000D01*
X171735085Y-106172000D01*
X171613096Y-106394039D01*
X171630633Y-106476819D01*
X171900500Y-106969896D01*
X172333151Y-107317851D01*
X171955332Y-107570302D01*
X171644263Y-108035849D01*
X171535030Y-108585000D01*
X171644263Y-109134151D01*
X171955332Y-109599698D01*
X172337418Y-109855000D01*
X171955332Y-110110302D01*
X171644263Y-110575849D01*
X171535030Y-111125000D01*
X171644263Y-111674151D01*
X171955332Y-112139698D01*
X172337418Y-112395000D01*
X171955332Y-112650302D01*
X171871343Y-112776000D01*
X171818236Y-112776000D01*
X171443618Y-112401382D01*
X171424515Y-112388618D01*
X171155206Y-112208671D01*
X170957943Y-112169433D01*
X170931462Y-112105345D01*
X170472073Y-111645154D01*
X169871547Y-111395794D01*
X169221306Y-111395226D01*
X168620345Y-111643538D01*
X168160154Y-112102927D01*
X167910794Y-112703453D01*
X167910226Y-113353694D01*
X161019208Y-113353694D01*
X161019774Y-112706306D01*
X160771462Y-112105345D01*
X160312073Y-111645154D01*
X159711547Y-111395794D01*
X159061306Y-111395226D01*
X158460345Y-111643538D01*
X158000154Y-112102927D01*
X157984345Y-112141000D01*
X156845000Y-112141000D01*
X156504794Y-112208671D01*
X156235485Y-112388618D01*
X156216382Y-112401382D01*
X154311382Y-114306382D01*
X154118671Y-114594794D01*
X154051000Y-114935000D01*
X154051000Y-123825000D01*
X154118671Y-124165206D01*
X154128326Y-124179655D01*
X154311382Y-124453618D01*
X160661382Y-130803618D01*
X160949794Y-130996329D01*
X161290000Y-131064000D01*
X202196764Y-131064000D01*
X203581000Y-132448236D01*
X203581000Y-137127572D01*
X203493935Y-137085019D01*
X203327000Y-137211932D01*
X203327000Y-138303000D01*
X203347000Y-138303000D01*
X203347000Y-138557000D01*
X203327000Y-138557000D01*
X203327000Y-139648068D01*
X203493935Y-139774981D01*
X203830762Y-139610359D01*
X204054949Y-139760156D01*
X204470000Y-139842715D01*
X204885051Y-139760156D01*
X205105000Y-139613191D01*
X205324949Y-139760156D01*
X205740000Y-139842715D01*
X206155051Y-139760156D01*
X206506914Y-139525049D01*
X206644591Y-139319000D01*
X218440000Y-139319000D01*
X218780206Y-139251329D01*
X219068618Y-139058618D01*
X220078236Y-138049000D01*
X227198255Y-138049000D01*
X227213106Y-138084943D01*
X227672637Y-138545278D01*
X228273352Y-138794716D01*
X228923795Y-138795284D01*
X229524943Y-138546894D01*
X229870199Y-138202241D01*
X230212637Y-138545278D01*
X230813352Y-138794716D01*
X231463795Y-138795284D01*
X232064943Y-138546894D01*
X232410199Y-138202241D01*
X232752637Y-138545278D01*
X233335472Y-138787292D01*
X228231764Y-143891000D01*
X206644591Y-143891000D01*
X206506914Y-143684951D01*
X206155051Y-143449844D01*
X205740000Y-143367285D01*
X205359000Y-143443071D01*
X205359000Y-142875000D01*
X205357731Y-142868618D01*
X205291330Y-142534795D01*
X205098618Y-142246382D01*
X204463618Y-141611382D01*
X204175206Y-141418671D01*
X203835000Y-141351000D01*
X202298236Y-141351000D01*
X200914000Y-139966764D01*
X200914000Y-138557000D01*
X202115420Y-138557000D01*
X202115420Y-138857990D01*
X202246580Y-139263373D01*
X202522889Y-139587706D01*
X202906065Y-139774981D01*
X203073000Y-139648068D01*
X203073000Y-138557000D01*
X202115420Y-138557000D01*
X200914000Y-138557000D01*
X200914000Y-138002010D01*
X202115420Y-138002010D01*
X202115420Y-138303000D01*
X203073000Y-138303000D01*
X203073000Y-137211932D01*
X202906065Y-137085019D01*
X202522889Y-137272294D01*
X202246580Y-137596627D01*
X202115420Y-138002010D01*
X200914000Y-138002010D01*
X200914000Y-133350000D01*
X200846329Y-133009794D01*
X200653618Y-132721382D01*
X199383618Y-131451382D01*
X199095206Y-131258671D01*
X198755000Y-131191000D01*
X161023236Y-131191000D01*
X153924000Y-124091764D01*
X153924000Y-110674016D01*
X168825590Y-110674016D01*
X168881271Y-110904611D01*
X169364078Y-111072622D01*
X169874428Y-111043083D01*
X170208729Y-110904611D01*
X170264410Y-110674016D01*
X169545000Y-109954605D01*
X168825590Y-110674016D01*
X153924000Y-110674016D01*
X153924000Y-109594078D01*
X168247378Y-109594078D01*
X168276917Y-110104428D01*
X168415389Y-110438729D01*
X168645984Y-110494410D01*
X169365395Y-109775000D01*
X169724605Y-109775000D01*
X170444016Y-110494410D01*
X170674611Y-110438729D01*
X170842622Y-109955922D01*
X170813083Y-109445572D01*
X170674611Y-109111271D01*
X170444016Y-109055590D01*
X169724605Y-109775000D01*
X169365395Y-109775000D01*
X168645984Y-109055590D01*
X168415389Y-109111271D01*
X168247378Y-109594078D01*
X153924000Y-109594078D01*
X153924000Y-108875984D01*
X168825590Y-108875984D01*
X169545000Y-109595395D01*
X170264410Y-108875984D01*
X170208729Y-108645389D01*
X169725922Y-108477378D01*
X169215572Y-108506917D01*
X168881271Y-108645389D01*
X168825590Y-108875984D01*
X153924000Y-108875984D01*
X153924000Y-104508236D01*
X154307236Y-104125000D01*
X168247560Y-104125000D01*
X168247560Y-105425000D01*
X168291838Y-105660317D01*
X168430910Y-105876441D01*
X168643110Y-106021431D01*
X168895000Y-106072440D01*
X170195000Y-106072440D01*
X170340830Y-106045000D01*
X179155030Y-106045000D01*
X179264263Y-106594151D01*
X179575332Y-107059698D01*
X179957418Y-107315000D01*
X179575332Y-107570302D01*
X179264263Y-108035849D01*
X179155030Y-108585000D01*
X179264263Y-109134151D01*
X179575332Y-109599698D01*
X179957418Y-109855000D01*
X179575332Y-110110302D01*
X179264263Y-110575849D01*
X179155030Y-111125000D01*
X179264263Y-111674151D01*
X179575332Y-112139698D01*
X179957418Y-112395000D01*
X179575332Y-112650302D01*
X179264263Y-113115849D01*
X179155030Y-113665000D01*
X179264263Y-114214151D01*
X179575332Y-114679698D01*
X179957418Y-114935000D01*
X179575332Y-115190302D01*
X179264263Y-115655849D01*
X179155030Y-116205000D01*
X179264263Y-116754151D01*
X179575332Y-117219698D01*
X179957418Y-117475000D01*
X179575332Y-117730302D01*
X179264263Y-118195849D01*
X179155030Y-118745000D01*
X179264263Y-119294151D01*
X179575332Y-119759698D01*
X179957418Y-120015000D01*
X179575332Y-120270302D01*
X179264263Y-120735849D01*
X179155030Y-121285000D01*
X179264263Y-121834151D01*
X179575332Y-122299698D01*
X180040879Y-122610767D01*
X180590030Y-122720000D01*
X181359970Y-122720000D01*
X181909121Y-122610767D01*
X182374668Y-122299698D01*
X182685737Y-121834151D01*
X182794970Y-121285000D01*
X182685737Y-120735849D01*
X182374668Y-120270302D01*
X181992582Y-120015000D01*
X182374668Y-119759698D01*
X182685737Y-119294151D01*
X182753793Y-118952010D01*
X202115420Y-118952010D01*
X202115420Y-119253000D01*
X203073000Y-119253000D01*
X203073000Y-118161932D01*
X202906065Y-118035019D01*
X202522889Y-118222294D01*
X202246580Y-118546627D01*
X202115420Y-118952010D01*
X182753793Y-118952010D01*
X182794970Y-118745000D01*
X182685737Y-118195849D01*
X182374668Y-117730302D01*
X181992582Y-117475000D01*
X182374668Y-117219698D01*
X182685737Y-116754151D01*
X182794970Y-116205000D01*
X182685737Y-115655849D01*
X182374668Y-115190302D01*
X181992582Y-114935000D01*
X182374668Y-114679698D01*
X182685737Y-114214151D01*
X182794970Y-113665000D01*
X182693923Y-113157000D01*
X202115420Y-113157000D01*
X202115420Y-113457990D01*
X202246580Y-113863373D01*
X202522889Y-114187706D01*
X202906065Y-114374981D01*
X203073000Y-114248068D01*
X203073000Y-113157000D01*
X202115420Y-113157000D01*
X182693923Y-113157000D01*
X182685737Y-113115849D01*
X182374668Y-112650302D01*
X182302394Y-112602010D01*
X202115420Y-112602010D01*
X202115420Y-112903000D01*
X203073000Y-112903000D01*
X203073000Y-111811932D01*
X202906065Y-111685019D01*
X202522889Y-111872294D01*
X202246580Y-112196627D01*
X202115420Y-112602010D01*
X182302394Y-112602010D01*
X181992582Y-112395000D01*
X182374668Y-112139698D01*
X182685737Y-111674151D01*
X182794970Y-111125000D01*
X182685737Y-110575849D01*
X182374668Y-110110302D01*
X181992582Y-109855000D01*
X182374668Y-109599698D01*
X182685737Y-109134151D01*
X182794970Y-108585000D01*
X182685737Y-108035849D01*
X182374668Y-107570302D01*
X181992582Y-107315000D01*
X182374668Y-107059698D01*
X182685737Y-106594151D01*
X182794970Y-106045000D01*
X182685737Y-105495849D01*
X182374668Y-105030302D01*
X181996849Y-104777851D01*
X182429500Y-104429896D01*
X182699367Y-103936819D01*
X182716904Y-103854039D01*
X182594915Y-103632000D01*
X181102000Y-103632000D01*
X181102000Y-103652000D01*
X180848000Y-103652000D01*
X180848000Y-103632000D01*
X179355085Y-103632000D01*
X179233096Y-103854039D01*
X179250633Y-103936819D01*
X179520500Y-104429896D01*
X179953151Y-104777851D01*
X179575332Y-105030302D01*
X179264263Y-105495849D01*
X179155030Y-106045000D01*
X170340830Y-106045000D01*
X170430317Y-106028162D01*
X170646441Y-105889090D01*
X170791431Y-105676890D01*
X170842440Y-105425000D01*
X170842440Y-104125000D01*
X170798162Y-103889683D01*
X170659090Y-103673559D01*
X170446890Y-103528569D01*
X170195000Y-103477560D01*
X168895000Y-103477560D01*
X168659683Y-103521838D01*
X168443559Y-103660910D01*
X168298569Y-103873110D01*
X168247560Y-104125000D01*
X154307236Y-104125000D01*
X155943236Y-102489000D01*
X157348806Y-102489000D01*
X157363538Y-102524655D01*
X157822927Y-102984846D01*
X158423453Y-103234206D01*
X159073694Y-103234774D01*
X159674655Y-102986462D01*
X160134846Y-102527073D01*
X160384206Y-101926547D01*
X160384774Y-101276306D01*
X160136462Y-100675345D01*
X159677073Y-100215154D01*
X159076547Y-99965794D01*
X158426306Y-99965226D01*
X157825345Y-100213538D01*
X157365154Y-100672927D01*
X157349345Y-100711000D01*
X155575000Y-100711000D01*
X155234794Y-100778671D01*
X154946382Y-100971382D01*
X152406382Y-103511382D01*
X152213671Y-103799794D01*
X152146000Y-104140000D01*
X152146000Y-124460000D01*
X152213671Y-124800206D01*
X152338359Y-124986814D01*
X152406382Y-125088618D01*
X160026382Y-132708618D01*
X160314794Y-132901329D01*
X160655000Y-132969000D01*
X198386764Y-132969000D01*
X199136000Y-133718236D01*
X199136000Y-140335000D01*
X199203671Y-140675206D01*
X199315788Y-140843000D01*
X199396382Y-140963618D01*
X201301382Y-142868618D01*
X201589794Y-143061329D01*
X201930000Y-143129000D01*
X203466764Y-143129000D01*
X203581000Y-143243236D01*
X203581000Y-143477572D01*
X203493935Y-143435019D01*
X203327000Y-143561932D01*
X203327000Y-144653000D01*
X203347000Y-144653000D01*
X203347000Y-144907000D01*
X203327000Y-144907000D01*
X203327000Y-145998068D01*
X203493935Y-146124981D01*
X203830762Y-145960359D01*
X204054949Y-146110156D01*
X204470000Y-146192715D01*
X204885051Y-146110156D01*
X205105000Y-145963191D01*
X205324949Y-146110156D01*
X205740000Y-146192715D01*
X206155051Y-146110156D01*
X206506914Y-145875049D01*
X206644591Y-145669000D01*
X228600000Y-145669000D01*
X228940206Y-145601329D01*
X229228618Y-145408618D01*
X235857434Y-138779802D01*
X235875472Y-138787292D01*
X228866764Y-145796000D01*
X219710000Y-145796000D01*
X219369794Y-145863671D01*
X219081382Y-146056382D01*
X214896764Y-150241000D01*
X206644591Y-150241000D01*
X206506914Y-150034951D01*
X206155051Y-149799844D01*
X205740000Y-149717285D01*
X205359000Y-149793071D01*
X205359000Y-149225000D01*
X205357731Y-149218618D01*
X205291330Y-148884795D01*
X205098618Y-148596382D01*
X204463618Y-147961382D01*
X204294187Y-147848172D01*
X204175206Y-147768671D01*
X203835000Y-147701000D01*
X200393236Y-147701000D01*
X199009000Y-146316764D01*
X199009000Y-144907000D01*
X202115420Y-144907000D01*
X202115420Y-145207990D01*
X202246580Y-145613373D01*
X202522889Y-145937706D01*
X202906065Y-146124981D01*
X203073000Y-145998068D01*
X203073000Y-144907000D01*
X202115420Y-144907000D01*
X199009000Y-144907000D01*
X199009000Y-144352010D01*
X202115420Y-144352010D01*
X202115420Y-144653000D01*
X203073000Y-144653000D01*
X203073000Y-143561932D01*
X202906065Y-143435019D01*
X202522889Y-143622294D01*
X202246580Y-143946627D01*
X202115420Y-144352010D01*
X199009000Y-144352010D01*
X199009000Y-135255000D01*
X198941329Y-134914794D01*
X198748618Y-134626382D01*
X197478618Y-133356382D01*
X197469067Y-133350000D01*
X197190206Y-133163671D01*
X196850000Y-133096000D01*
X159753236Y-133096000D01*
X152019000Y-125361764D01*
X152019000Y-101968236D01*
X155308236Y-98679000D01*
X157348806Y-98679000D01*
X157363538Y-98714655D01*
X157822927Y-99174846D01*
X158423453Y-99424206D01*
X159073694Y-99424774D01*
X159674655Y-99176462D01*
X160134846Y-98717073D01*
X160384206Y-98116547D01*
X160384774Y-97466306D01*
X160136462Y-96865345D01*
X159677073Y-96405154D01*
X159076547Y-96155794D01*
X158426306Y-96155226D01*
X157825345Y-96403538D01*
X157365154Y-96862927D01*
X157349345Y-96901000D01*
X154940000Y-96901000D01*
X154599795Y-96968670D01*
X154311382Y-97161382D01*
X150501382Y-100971382D01*
X150308671Y-101259794D01*
X150241000Y-101600000D01*
X149352000Y-101600000D01*
X149352000Y-69820641D01*
X173761400Y-69820641D01*
X173761400Y-69879359D01*
X173875474Y-70452848D01*
X174200330Y-70939029D01*
X174471172Y-71120000D01*
X174200330Y-71300971D01*
X173875474Y-71787152D01*
X173761400Y-72360641D01*
X173761400Y-72419359D01*
X173875474Y-72992848D01*
X174200330Y-73479029D01*
X174686511Y-73803885D01*
X175260000Y-73917959D01*
X175833489Y-73803885D01*
X176319670Y-73479029D01*
X176530000Y-73164248D01*
X176740330Y-73479029D01*
X177226511Y-73803885D01*
X177800000Y-73917959D01*
X178373489Y-73803885D01*
X178859670Y-73479029D01*
X179184526Y-72992848D01*
X179298600Y-72419359D01*
X179298600Y-72360641D01*
X179184526Y-71787152D01*
X178859670Y-71300971D01*
X178588828Y-71120000D01*
X178859670Y-70939029D01*
X179184526Y-70452848D01*
X179298600Y-69879359D01*
X179298600Y-69820641D01*
X179184526Y-69247152D01*
X178859670Y-68760971D01*
X178588839Y-68580008D01*
X179006821Y-68198490D01*
X179254968Y-67669027D01*
X179134469Y-67437000D01*
X177927000Y-67437000D01*
X177927000Y-67457000D01*
X177673000Y-67457000D01*
X177673000Y-67437000D01*
X175387000Y-67437000D01*
X175387000Y-67457000D01*
X175133000Y-67457000D01*
X175133000Y-67437000D01*
X173925531Y-67437000D01*
X173805032Y-67669027D01*
X174053179Y-68198490D01*
X174471161Y-68580008D01*
X174200330Y-68760971D01*
X173875474Y-69247152D01*
X173761400Y-69820641D01*
X149352000Y-69820641D01*
X149352000Y-65129027D01*
X173805032Y-65129027D01*
X174053179Y-65658490D01*
X174471152Y-66040000D01*
X174053179Y-66421510D01*
X173805032Y-66950973D01*
X173925531Y-67183000D01*
X175133000Y-67183000D01*
X175133000Y-64897000D01*
X175387000Y-64897000D01*
X175387000Y-67183000D01*
X177673000Y-67183000D01*
X177673000Y-64897000D01*
X177927000Y-64897000D01*
X177927000Y-67183000D01*
X179134469Y-67183000D01*
X179254968Y-66950973D01*
X179006821Y-66421510D01*
X178588848Y-66040000D01*
X179006821Y-65658490D01*
X179254968Y-65129027D01*
X179134469Y-64897000D01*
X177927000Y-64897000D01*
X177673000Y-64897000D01*
X175387000Y-64897000D01*
X175133000Y-64897000D01*
X173925531Y-64897000D01*
X173805032Y-65129027D01*
X149352000Y-65129027D01*
X149352000Y-64389016D01*
X163745590Y-64389016D01*
X163801271Y-64619611D01*
X164284078Y-64787622D01*
X164794428Y-64758083D01*
X165128729Y-64619611D01*
X165184410Y-64389016D01*
X164465000Y-63669605D01*
X163745590Y-64389016D01*
X149352000Y-64389016D01*
X149352000Y-63309078D01*
X163167378Y-63309078D01*
X163196917Y-63819428D01*
X163335389Y-64153729D01*
X163565984Y-64209410D01*
X164285395Y-63490000D01*
X164644605Y-63490000D01*
X165364016Y-64209410D01*
X165594611Y-64153729D01*
X165762622Y-63670922D01*
X165733083Y-63160572D01*
X165594611Y-62826271D01*
X165364016Y-62770590D01*
X164644605Y-63490000D01*
X164285395Y-63490000D01*
X163565984Y-62770590D01*
X163335389Y-62826271D01*
X163167378Y-63309078D01*
X149352000Y-63309078D01*
X149352000Y-62590984D01*
X163745590Y-62590984D01*
X164465000Y-63310395D01*
X165184410Y-62590984D01*
X165128729Y-62360389D01*
X164645922Y-62192378D01*
X164135572Y-62221917D01*
X163801271Y-62360389D01*
X163745590Y-62590984D01*
X149352000Y-62590984D01*
X149352000Y-54102000D01*
X152541043Y-54102000D01*
X151500485Y-54531950D01*
M02*
