M48
;DRILL file {KiCad 4.0.2-stable} date 15/03/2016 10:56:18 PM
;FORMAT={-:-/ absolute / inch / decimal}
FMAT,2
INCH,TZ
T1C0.016
T2C0.024
T3C0.031
T4C0.036
T5C0.039
T6C0.039
T7C0.040
T8C0.060
T9C0.120
T10C0.126
%
G90
G05
M72
T1
X9.675Y-2.9
X9.675Y-3.9
X9.675Y-4.9
X9.725Y-2.85
X9.725Y-3.85
X9.725Y-4.85
X9.775Y-2.8
X9.775Y-3.8
X9.775Y-4.8
X9.825Y-2.75
X9.825Y-3.75
X9.825Y-4.75
X9.875Y-2.7
X9.875Y-3.7
X9.875Y-4.7
X9.925Y-3.475
X9.925Y-4.475
X9.925Y-5.475
X9.975Y-3.525
X9.975Y-4.525
X9.975Y-5.525
T2
X8.Y-2.45
X8.Y-2.7
X8.Y-2.95
X8.Y-3.45
X8.Y-3.675
X8.Y-3.925
X8.Y-4.45
X8.Y-4.7
X8.Y-4.95
X8.Y-5.45
X8.Y-5.7
X8.Y-5.95
X8.05Y-2.45
X8.05Y-2.7
X8.05Y-2.95
X8.05Y-3.45
X8.05Y-3.675
X8.05Y-3.925
X8.05Y-4.45
X8.05Y-4.7
X8.05Y-4.95
X8.05Y-5.45
X8.05Y-5.7
X8.05Y-5.95
X8.1Y-2.45
X8.1Y-2.7
X8.1Y-2.95
X8.1Y-3.45
X8.1Y-3.675
X8.1Y-3.925
X8.1Y-4.45
X8.1Y-4.7
X8.1Y-4.95
X8.1Y-5.45
X8.1Y-5.7
X8.1Y-5.95
X10.35Y-2.55
X10.35Y-3.55
X10.35Y-4.55
X10.35Y-5.55
X10.4Y-2.55
X10.4Y-3.55
X10.4Y-4.55
X10.4Y-5.55
X10.45Y-2.55
X10.45Y-3.55
X10.45Y-4.55
X10.45Y-5.55
T3
X6.475Y-2.35
X6.475Y-2.4996
X6.675Y-4.125
X6.675Y-4.3219
X6.825Y-3.475
X6.825Y-3.575
X6.825Y-3.675
X6.825Y-3.775
X6.825Y-3.875
X6.825Y-3.975
X6.825Y-4.075
X6.825Y-4.175
X6.825Y-4.275
X6.825Y-4.375
X6.825Y-4.475
X6.825Y-4.575
X6.825Y-4.675
X6.825Y-4.775
X7.125Y-3.475
X7.125Y-3.575
X7.125Y-3.675
X7.125Y-3.775
X7.125Y-3.875
X7.125Y-3.975
X7.125Y-4.075
X7.125Y-4.175
X7.125Y-4.275
X7.125Y-4.375
X7.125Y-4.475
X7.125Y-4.575
X7.125Y-4.675
X7.125Y-4.775
T4
X9.Y-3.
X9.Y-4.
X9.Y-5.
X9.Y-6.
T5
X9.Y-2.4
X9.Y-3.4
X9.Y-4.4
X9.Y-5.4
X9.1Y-2.4
X9.1Y-3.
X9.1Y-3.4
X9.1Y-4.
X9.1Y-4.4
X9.1Y-5.
X9.1Y-5.4
X9.1Y-6.
X9.2Y-2.4
X9.2Y-3.
X9.2Y-3.4
X9.2Y-4.
X9.2Y-4.4
X9.2Y-5.
X9.2Y-5.4
X9.2Y-6.
X9.3Y-2.4
X9.3Y-3.
X9.3Y-3.4
X9.3Y-4.
X9.3Y-4.4
X9.3Y-5.
X9.3Y-5.4
X9.3Y-6.
X9.4Y-2.4
X9.4Y-3.
X9.4Y-3.4
X9.4Y-4.
X9.4Y-4.4
X9.4Y-5.
X9.4Y-5.4
X9.4Y-6.
X9.5Y-2.4
X9.5Y-3.
X9.5Y-3.4
X9.5Y-4.
X9.5Y-4.4
X9.5Y-5.
X9.5Y-5.4
X9.5Y-6.
T6
X6.25Y-3.4
X6.25Y-3.55
X6.25Y-3.7
X6.25Y-3.85
X6.25Y-4.
X6.275Y-4.45
X6.275Y-4.6
X6.275Y-4.75
X6.65Y-3.4
X6.65Y-3.55
X6.65Y-3.7
X6.65Y-3.85
X6.65Y-4.
X6.675Y-4.45
X6.675Y-4.6
X6.675Y-4.75
X7.35Y-3.575
X7.35Y-3.725
X7.35Y-3.875
X7.35Y-4.025
X7.75Y-3.575
X7.75Y-3.725
X7.75Y-3.875
X7.75Y-4.025
T7
X6.9Y-2.35
X6.9Y-2.45
X6.9Y-2.55
X6.9Y-2.65
X6.9Y-2.75
X6.9Y-2.85
X7.Y-2.35
X7.Y-2.45
X7.Y-2.55
X7.Y-2.65
X7.Y-2.75
X7.Y-2.85
T8
X7.4Y-2.275
X7.6Y-2.275
T9
X10.4Y-2.85
X10.4Y-3.8
X10.4Y-4.8
X10.4Y-5.8
T10
X6.05Y-2.275
X6.05Y-6.2
X10.425Y-2.275
X10.425Y-6.2
T0
M30
